<?xml version="1.0" encoding="utf-8"?>
<!-- Generator: Adobe Illustrator 16.0.0, SVG Export Plug-In . SVG Version: 6.00 Build 0)  -->
<!DOCTYPE svg PUBLIC "-//W3C//DTD SVG 1.1//EN" "http://www.w3.org/Graphics/SVG/1.1/DTD/svg11.dtd">
<svg version="1.1" id="Capa_1" xmlns="http://www.w3.org/2000/svg" xmlns:xlink="http://www.w3.org/1999/xlink" x="0px" y="0px"
	 width="85.067px" height="85.896px" viewBox="0 0 113.067 113.896" enable-background="new 0 0 113.067 113.896"
	 xml:space="preserve">
<path fill="#FFFFFF" d="M56.315,112.286c27.614,0,50-22.387,50-50c0-27.614-22.386-50-50-50c-27.613,0-50,22.386-50,50
	C6.315,89.899,28.703,112.286,56.315,112.286 M59.44,79.708c4.912,0.406,9.079,1.736,12.571,3.51
	c-3.815,8.211-8.995,14.754-12.571,18.711V79.708z M59.44,73.438v-8.027h17.459c-0.336,4.205-1.255,8.219-2.538,11.975
	C70.203,75.342,65.255,73.842,59.44,73.438 M59.44,59.161v-8.025c5.878-0.41,10.871-1.936,15.057-4.014
	c1.281,3.762,2.174,7.797,2.45,12.04H59.44z M59.44,44.867V22.951c3.697,3.934,8.901,10.309,12.692,18.342
	C68.616,43.099,64.41,44.455,59.44,44.867 M53.19,44.875c-4.956-0.397-9.169-1.744-12.708-3.545
	c3.792-8.051,9.005-14.441,12.708-18.379V44.875z M53.19,51.143v8.018H35.685c0.275-4.23,1.164-8.252,2.438-12.004
	C42.33,49.229,47.328,50.745,53.19,51.143 M53.19,65.411v8.02c-5.8,0.395-10.754,1.881-14.933,3.92
	c-1.274-3.746-2.19-7.748-2.525-11.939H53.19z M53.19,79.698v22.23c-3.581-3.965-8.771-10.518-12.587-18.746
	C44.117,81.413,48.292,80.09,53.19,79.698 M47.661,105.174c-7.723-1.557-14.715-5.154-20.389-10.201
	c1.619-2.361,4.22-5.551,7.956-8.414C39.022,94.538,43.926,100.946,47.661,105.174 M77.374,86.622
	c3.755,2.916,6.316,6.146,7.861,8.465c-5.652,4.988-12.598,8.543-20.263,10.088C68.695,100.958,73.583,94.571,77.374,86.622
	 M79.867,80.676c1.706-4.703,2.926-9.824,3.3-15.266h16.787c-0.678,9.545-4.43,18.252-10.269,25.135
	C87.598,87.624,84.388,83.909,79.867,80.676 M83.212,59.161c-0.306-5.498-1.502-10.647-3.215-15.36
	c4.451-3.211,7.621-6.881,9.687-9.775c5.839,6.885,9.592,15.592,10.269,25.135H83.212z M77.481,37.865
	c-3.869-7.98-8.932-14.338-12.808-18.525c7.783,1.512,14.835,5.092,20.561,10.146C83.704,31.783,81.176,34.974,77.481,37.865
	 M35.12,37.93c-3.677-2.844-6.245-5.992-7.848-8.331c5.748-5.112,12.847-8.735,20.687-10.259
	C44.073,23.539,38.994,29.918,35.12,37.93 M32.612,43.859c-1.701,4.695-2.888,9.825-3.193,15.301H12.678
	c0.673-9.488,4.386-18.149,10.166-25.014C24.973,37.06,28.174,40.69,32.612,43.859 M29.465,65.411
	c0.373,5.42,1.584,10.521,3.279,15.209c-4.507,3.189-7.751,6.863-9.9,9.805c-5.78-6.865-9.493-15.525-10.166-25.014H29.465z"/>
</svg>
