<?xml version="1.0" encoding="utf-8"?>
<!-- Generator: Adobe Illustrator 16.0.0, SVG Export Plug-In . SVG Version: 6.00 Build 0)  -->
<!DOCTYPE svg PUBLIC "-//W3C//DTD SVG 1.1//EN" "http://www.w3.org/Graphics/SVG/1.1/DTD/svg11.dtd">
<svg version="1.1" id="Capa_1" xmlns="http://www.w3.org/2000/svg" xmlns:xlink="http://www.w3.org/1999/xlink" x="0px" y="0px"
	 width="85.067px" height="85.896px" viewBox="0 0 113.067 113.896" enable-background="new 0 0 113.067 113.896"
	 xml:space="preserve">
<path fill="#FFFFFF" d="M103.553,98.847l-4.398-14.538c-2.487-8.801-9.47-15.591-18.174-17.887l-1.243-0.383
	c-0.097-0.096-0.287-0.096-0.479-0.191c-1.625-0.382-3.347,0.096-4.591,1.34l-0.096,0.096c-5.069,6.121-11.095,9.277-17.312,9.277
	c-7.844,0-13.773-4.879-17.313-8.99c-1.148-1.34-2.965-1.912-4.688-1.436c-0.19,0-0.383,0.096-0.479,0.191l-1.147,0.383
	c-8.799,2.295-15.78,9.086-18.268,17.887l-4.401,14.633c-0.477,1.818-0.096,3.635,0.958,5.069c1.053,1.437,2.678,2.2,4.495,2.2
	h81.778c1.914-0.096,3.539-0.957,4.592-2.487C103.84,102.386,104.126,100.569,103.553,98.847 M99.631,101.62
	c-0.382,0.479-0.956,0.863-1.53,0.863H16.418c-0.575,0-1.147-0.289-1.435-0.767c-0.383-0.478-0.479-1.147-0.383-1.722L19,85.456
	c2.105-7.461,8.034-13.295,15.688-15.207l1.147-0.383c0.19,0,0.286-0.096,0.381-0.096c0.384-0.096,0.67,0.096,0.862,0.287
	c5.834,6.695,13.008,10.33,20.182,10.33c7.27,0,14.348-3.635,20.182-10.33c0.191-0.191,0.478-0.383,0.956-0.383
	c0.096,0,0.191,0.096,0.383,0.096l1.244,0.383c7.46,1.912,13.485,7.748,15.591,15.207l4.398,14.539
	C100.111,100.569,100.014,101.143,99.631,101.62"/>
<path fill="#FFFFFF" d="M19.862,57.911l2.678,0.668c7.46,1.818,15.017,3.062,22.382,3.635c3.539,3.539,7.843,5.549,12.339,5.549
	c4.495,0,8.799-2.104,12.338-5.645c7.557-0.668,14.922-1.912,21.809-3.539l2.678-0.668h0.096c1.148-0.383,2.104-1.244,2.487-2.297
	c0.382-1.051,0.286-2.295-0.288-3.347l-7.269-12.243c-2.583-4.496-4.591-8.992-5.931-13.391l-0.479-1.721
	c-2.677-8.322-9.277-14.635-17.503-17.026l-1.243-0.383c-4.591-1.339-9.565-1.339-14.252,0l-1.052,0.383
	c-8.417,2.391-15.018,8.799-17.6,17.121l-0.478,1.626c-1.627,4.974-3.539,9.469-5.932,13.391L17.47,52.267
	c-0.67,1.052-0.67,2.392-0.191,3.539C17.757,56.858,18.714,57.718,19.862,57.911 M57.26,64.032
	c-9.183,0-17.217-11.191-18.078-24.487c14.252,2.774,21.234-3.06,24.391-7.46c2.966,3.443,7.077,4.783,11.859,3.921v1.148
	C75.432,51.5,66.92,64.032,57.26,64.032 M27.992,41.936c2.487-4.208,4.591-8.99,6.313-14.251l0.479-1.626
	c2.201-7.078,7.844-12.435,15.017-14.538l1.053-0.383c3.922-1.148,8.13-1.148,11.955,0l1.243,0.383
	c7.078,2.008,12.626,7.46,14.921,14.442l0.479,1.625c1.435,4.592,3.634,9.374,6.313,14.158l7.27,12.242h-0.097l-2.582,0.67
	c-5.547,1.338-11.383,2.391-17.407,3.06c3.729-5.548,6.121-12.912,6.121-20.85c0-1.34-0.097-2.583-0.287-3.827
	c-0.095-0.574-0.382-1.052-0.861-1.339c-0.478-0.287-1.052-0.383-1.53-0.191c-5.165,1.53-8.703,0.287-11.287-3.922
	c-0.382-0.669-1.052-0.956-1.815-0.86c-0.767-0.096-1.531,0.288-1.818,1.052c-1.816,3.539-7.747,11.383-23.912,7.365
	c-0.572-0.096-1.147,0-1.627,0.383c-0.477,0.382-0.764,0.957-0.764,1.53c0,7.94,2.391,15.399,6.217,20.946
	c-5.834-0.573-11.956-1.625-17.886-3.061l-2.679-0.668L27.992,41.936z"/>
<polygon fill="#FFFFFF" points="13.903,102.597 21.461,94.625 29.029,102.583 29.646,102.583 37.258,94.555 44.877,102.568 
	45.072,102.568 52.735,94.487 60.407,102.553 60.898,102.553 60.891,94.237 13.688,94.28 13.696,102.597 "/>
</svg>
