<?xml version="1.0" encoding="utf-8"?>
<!-- Generator: Adobe Illustrator 16.0.0, SVG Export Plug-In . SVG Version: 6.00 Build 0)  -->
<!DOCTYPE svg PUBLIC "-//W3C//DTD SVG 1.1//EN" "http://www.w3.org/Graphics/SVG/1.1/DTD/svg11.dtd">
<svg version="1.1" id="Capa_1" xmlns="http://www.w3.org/2000/svg" xmlns:xlink="http://www.w3.org/1999/xlink" x="0px" y="0px"
	 width="85.067px" height="85.896px" viewBox="0 0 113.067 113.896" enable-background="new 0 0 113.067 113.896"
	 xml:space="preserve">
<path fill="#FFFFFF" d="M18.061,40.12c-0.418-1.883-3.3-1.082-2.882,0.797c1.402,6.316,6.046,10.652,11.617,13.273
	c0.488,2.895,1.402,5.695,3.238,8.059c3.199,4.109,7.59,7.156,11.84,10.09c3.984,2.746,8.004,5.438,12.027,8.129
	c0.254,1.066,0.485,2.145,0.68,3.223c0.898,5.008,0.602,22.23,0.418,27.289c-0.004,0.141,0.012,0.27,0.039,0.391
	c-0.348,0.883,0.094,2.105,1.328,2.105h5.184c0.14,0,0.269-0.023,0.39-0.051c0.75,0.004,1.504-0.477,1.504-1.445V77.706
	c2.223-2.906,4.707-5.563,7.453-8.004c3.184-2.832,7.02-5.027,9.606-8.484c1.414-1.891,2.465-3.984,3.152-6.176
	c0.063-0.016,0.129-0.035,0.192-0.055c2.445-0.777,7.578-2.004,8.187-5.066c0.817-4.137-0.391-9.016-1.117-13.112
	c-0.336-1.899-3.219-1.095-2.883,0.792c0.434,2.461,0.777,4.926,1.024,7.41c0.097,1,0.167,2.005,0.21,3.012
	c0.102,2.215-2.851,2.844-4.316,3.412c-0.172,0.064-0.348,0.127-0.523,0.193c0.464-3.434,0.066-6.984-1.254-10.305
	c-0.703-1.77-3.598-1-2.887,0.793c1.414,3.559,1.648,7.172,0.863,10.551c-1.492,0.406-3.004,0.75-4.519,1.078
	c0.406-0.488,0.816-0.973,1.226-1.445c1.266-1.445-0.843-3.566-2.113-2.113c-1.273,1.461-2.516,2.988-3.723,4.563
	c-2.961,0.703-6.093,2.023-8.582,3.961v-8.375c0-0.449-0.164-0.789-0.41-1.025c0.406-0.291,0.821-0.564,1.223-0.837
	c2.394-1.638,4.691-3.388,6.75-5.442c3.637-3.629,5.598-8.512,4.863-13.617c-0.273-1.906-3.152-1.09-2.883,0.793
	c1.078,7.504-5.656,12.551-11.097,16.27c-2.469,1.688-3.762,3.559-4.321,5.748c-0.64-0.631-1.382-1.225-2.246-1.799
	c-4.914-3.266-7.937-8.719-8.863-14.452c-0.309-1.903-3.188-1.095-2.883,0.793c0.715,4.437,2.578,8.343,5.371,11.843
	c1.371,1.723,3.082,3.133,4.867,4.398c1.141,0.813,1.969,1.594,2.555,2.453l-0.012,2.445c-0.332-0.234-0.664-0.471-1-0.695
	c-1.511-1.012-3.281-1.539-5.035-1.918c-2.258-0.492-4.601-0.633-6.941-0.75c-2.875-3.039-5.938-5.926-8.781-8.867
	c-1.344-1.391-3.454,0.727-2.114,2.113c2.09,2.168,4.289,4.293,6.434,6.469c-0.234-0.023-0.465-0.039-0.699-0.066
	c-2.875-0.32-5.875-0.977-8.664-2.059c-0.168-1.328-0.266-2.691-0.344-4.07c-0.289-5.293-0.004-10.605,0.652-15.859
	c0.239-1.91-2.754-1.891-2.988,0c-0.707,5.648-0.902,11.309-0.59,16.996c0.027,0.48,0.059,0.965,0.094,1.449
	C22.347,48.401,19.147,45.01,18.061,40.12 M73.788,57.327c2.141-0.535,4.297-0.961,6.246-1.379c-1.062,2.34-2.648,4.504-4.711,6.363
	c-2.851,2.57-6.035,4.707-8.816,7.379c-0.5,0.48-0.981,0.984-1.461,1.488C67.511,66.417,70.511,61.67,73.788,57.327 M63.444,62.542
	c1.344-1.641,3.344-2.828,5.629-3.738c-2.031,2.941-3.922,6.006-5.629,9.113V62.542z M60.206,53.108
	c0.047-0.336,0.133-0.648,0.246-0.938v5.621c-0.051-0.316-0.113-0.621-0.187-0.918C60.108,55.624,60.034,54.377,60.206,53.108
	 M53.851,59.792c0.874,0.512,1.675,1.078,2.488,1.625l-0.09,16.215c-0.887-3.191-2.02-6.316-3.285-9.371
	c-1.602-3.863-3.957-7.27-6.645-10.449C48.983,57.999,51.499,58.413,53.851,59.792 M31.413,55.928c3.438,1,7.047,1.375,10.637,1.621
	c3.422,3.75,6.484,7.773,8.441,12.504c0.828,2,1.574,4.047,2.227,6.125c-6.489-4.168-13.102-8.41-18.555-13.715
	c-2.09-2.035-3.258-4.379-3.945-6.91C30.616,55.686,31.015,55.811,31.413,55.928"/>
<path fill="#FFFFFF" d="M101.538,34.022c0.672-1.422,1.133-3.16,1.398-5.266c0.778-6.148-0.543-11.07-4.031-15.043
	c-2.941-3.348-7.976-5.426-13.14-5.426c-3.528,0-6.723,0.98-9.141,2.789C73.62,3.065,65.143,0.143,58.565,0.104h-0.09
	c-4.32,0-8.863,1.868-11.851,4.871c-2.059,2.07-3.289,4.551-3.606,7.238c-3.089-1.909-7.148-2.984-11.367-2.984
	c-1.468,0-2.879,0.133-4.191,0.398c-2.797,0.559-5.172,2.23-6.875,4.832c-1.984,3.039-2.793,6.977-2.231,10.707
	c-6.492,0.099-14.769,3.246-17.199,11.871c-1.094,3.892-1.836,9.316,0.86,13.07c2.054,2.867,5.003,4.441,8.996,4.789
	c-1.325,4.551-1.024,11.168,1.871,14.898c3.906,5.035,9.836,7.813,16.687,7.813c0.438,0,0.875-0.01,1.313-0.035
	c1.472-0.07,2.234-1.389,2.203-2.594c-0.035-1.332-0.942-2.299-2.16-2.299l-0.121,0.004c-0.684,0.029-1.485,0.064-2.262,0.064
	c-1.774,0-3.152-0.176-4.469-0.568c-1.687-0.514-3.445-1.826-4.996-2.986l-0.684-0.51c-3.644-2.689-4.718-10.418-2.019-14.51
	c0.379-0.574,0.504-1.227,0.348-1.836c-0.141-0.551-0.5-1.039-1-1.365c-0.395-0.592-1.02-0.918-1.747-0.918h-0.113
	c-0.402,0.018-0.804,0.029-1.203,0.029c-2.746,0-4.66-0.602-6.203-1.953c-2.617-2.293-1.605-6.645-0.867-9.82
	c1.336-5.738,7.512-8.309,13.035-8.309c0.801,0,1.582,0.056,2.32,0.168c1.102,0.168,2.071-0.434,2.539-1.477
	c0.395-0.871,0.332-1.824-0.144-2.48c-0.992-3.008-0.684-6.09,0.851-8.477c1.336-2.078,3.453-3.355,5.961-3.602
	c4.282-0.413,10.567,1.051,13.364,4.891c0.421,0.578,0.996,0.895,1.617,0.895c0.707,0,1.394-0.418,1.84-1.102
	c0.769-0.477,1.328-1.445,0.961-2.684c-0.79-2.668-0.469-4.984,0.949-6.879C50.8,6.69,54.733,5.092,59.147,5.092
	c6.446,0,13.559,3.52,13.942,11.25c0.078,1.543,1.25,2.348,2.371,2.348c0.992,0,2.027-0.66,2.191-1.925
	c1.989-3.103,5.668-3.571,7.703-3.571c3.504,0,7.387,1.34,9.664,3.336c2.395,2.102,3.598,5.184,3.579,9.16
	c-0.012,2.07-0.309,6.984-2.852,7.98c-1.074,0.418-1.676,1.527-1.504,2.759c0.149,1.058,0.817,1.847,1.695,2.026
	c0.36,0.191,0.762,0.27,1.223,0.215c3.324-0.405,6.473,0.945,8.645,3.688c2.277,2.875,3.105,6.865,2.211,10.668
	c-0.817,3.477-6.051,5.523-8.571,6.508c-2.679,1.051-5.711,1.586-9.008,1.586c-0.511,0-1.023-0.016-1.531-0.039h-0.117
	c-1.223,0-2.133,0.969-2.164,2.311c-0.027,1.201,0.734,2.518,2.203,2.584c0.488,0.023,0.977,0.035,1.461,0.035
	c4.754,0,9.285-1.066,13.848-3.258c2.984-1.434,8.074-4.66,8.656-10.152C113.725,43.784,108.745,35.725,101.538,34.022"/>
</svg>
