<?xml version="1.0" encoding="utf-8"?>
<!-- Generator: Adobe Illustrator 16.0.0, SVG Export Plug-In . SVG Version: 6.00 Build 0)  -->
<!DOCTYPE svg PUBLIC "-//W3C//DTD SVG 1.1//EN" "http://www.w3.org/Graphics/SVG/1.1/DTD/svg11.dtd">
<svg version="1.1" id="Capa_1" xmlns="http://www.w3.org/2000/svg" xmlns:xlink="http://www.w3.org/1999/xlink" x="0px" y="0px"
	 width="85.067px" height="85.896px" viewBox="0 0 113.067 113.896" enable-background="new 0 0 113.067 113.896"
	 xml:space="preserve">
<path fill="#FFFFFF" d="M64.336,18.496c0-1.207,0.978-2.185,2.185-2.185h0.521c1.207,0,2.186,0.978,2.186,2.185
	c0,1.208-0.979,2.186-2.186,2.186h-0.521C65.314,20.682,64.336,19.704,64.336,18.496 M67.352,69.308
	c0,1.209,0.978,2.187,2.185,2.187h0.521c1.207,0,2.185-0.978,2.185-2.187c0-1.207-0.978-2.185-2.185-2.185h-0.521
	C68.33,67.124,67.352,68.101,67.352,69.308 M69.798,59.29c5.524,0,10.02,4.494,10.02,10.019c0,4.774-3.357,8.78-7.834,9.78v6.638
	c0,1.207-0.979,2.185-2.186,2.185s-2.186-0.978-2.186-2.185v-6.638c-4.477-1-7.834-5.006-7.834-9.78
	C59.778,63.784,64.273,59.29,69.798,59.29 M69.798,63.661c-3.114,0-5.648,2.535-5.648,5.647c0,3.114,2.534,5.649,5.648,5.649
	c3.114,0,5.647-2.535,5.647-5.649C75.445,66.196,72.912,63.661,69.798,63.661 M34.594,40.229c0-5.525,4.494-10.021,10.019-10.021
	c5.525,0,10.021,4.495,10.021,10.021c0,4.772-3.357,8.779-7.834,9.779v6.637c0,1.207-0.979,2.186-2.187,2.186
	c-1.207,0-2.185-0.979-2.185-2.186v-6.637C37.951,49.008,34.594,45.003,34.594,40.229 M38.965,40.229
	c0,3.114,2.534,5.646,5.648,5.646c3.116,0,5.649-2.533,5.649-5.646c0-3.114-2.533-5.648-5.649-5.648
	C41.499,34.581,38.965,37.115,38.965,40.229 M56.762,18.496c0-5.525,4.494-10.019,10.019-10.019c5.525,0,10.02,4.494,10.02,10.019
	c0,4.775-3.356,8.779-7.834,9.78v6.637c0,1.208-0.979,2.186-2.186,2.186s-2.185-0.978-2.185-2.186v-6.637
	C60.119,27.275,56.762,23.271,56.762,18.496 M61.134,18.496c0,3.114,2.533,5.649,5.647,5.649c3.114,0,5.649-2.535,5.649-5.649
	s-2.535-5.648-5.649-5.648C63.667,12.848,61.134,15.382,61.134,18.496 M93.729,46.26l-3.659-1.324l-3.016-20.645
	c-0.358-2.459-1.72-4.495-3.834-5.734c-1.042-0.611-2.381-0.26-2.991,0.781c-0.611,1.042-0.261,2.38,0.78,2.991
	c0.987,0.578,1.549,1.426,1.72,2.593l3.204,21.94c0.117,0.796,0.662,1.465,1.419,1.74l4.889,1.77
	c3.351,1.213,3.682,2.049,3.596,2.643L90.576,89.03c-0.247,1.694-1.363,2.77-3.317,3.194l-33.154,7.233
	c-0.294,0.064-0.524,0.015-0.793-0.168c-0.721-0.487-1.378-1.75-1.597-3.07l-0.177-1.059c-0.107-0.641-0.492-1.201-1.053-1.527
	c-0.561-0.328-1.237-0.389-1.848-0.168l-29.293,10.602c-0.417,0.151-0.942-0.248-1.094-0.373c-0.696-0.58-1.134-1.537-1.02-2.226
	l10.157-60.83c0.247-1.481,1.056-2.888,1.84-3.201c1.121-0.447,1.667-1.719,1.22-2.84c-0.448-1.122-1.72-1.668-2.84-1.219
	c-2.718,1.084-4.124,4.09-4.532,6.541l-10.157,60.83c-0.372,2.236,0.623,4.711,2.535,6.305c1.127,0.938,2.408,1.424,3.68,1.424
	c0.573,0,1.145-0.1,1.698-0.299l26.927-9.747c0.606,1.92,1.711,3.538,3.101,4.478c1.265,0.856,2.709,1.141,4.177,0.819l33.154-7.231
	c3.751-0.819,6.197-3.309,6.711-6.834l5.261-36.016C100.864,48.843,95.68,46.967,93.729,46.26 M44.355,42.415h0.519
	c1.207,0,2.186-0.979,2.186-2.186c0-1.207-0.979-2.187-2.186-2.187h-0.519c-1.207,0-2.187,0.979-2.187,2.187
	C42.168,41.436,43.148,42.415,44.355,42.415 M40.241,26.176c0.121,0.021,0.243,0.03,0.362,0.03c1.049,0,1.975-0.758,2.153-1.827
	l1.11-6.645c0.221-1.321,0.878-2.584,1.598-3.072c0.27-0.182,0.5-0.231,0.794-0.167l5.415,1.181c1.179,0.259,2.343-0.49,2.601-1.67
	c0.257-1.178-0.49-2.343-1.67-2.601l-5.414-1.18c-1.468-0.32-2.913-0.038-4.178,0.818c-1.737,1.176-3.031,3.408-3.458,5.971
	l-1.11,6.646C38.246,24.85,39.049,25.977,40.241,26.176"/>
</svg>
