<?xml version="1.0" encoding="utf-8"?>
<!-- Generator: Adobe Illustrator 16.0.0, SVG Export Plug-In . SVG Version: 6.00 Build 0)  -->
<!DOCTYPE svg PUBLIC "-//W3C//DTD SVG 1.1//EN" "http://www.w3.org/Graphics/SVG/1.1/DTD/svg11.dtd">
<svg version="1.1" id="Capa_1" xmlns="http://www.w3.org/2000/svg" xmlns:xlink="http://www.w3.org/1999/xlink" x="0px" y="0px"
	 width="85.067px" height="85.896px" viewBox="0 0 113.067 113.896" enable-background="new 0 0 113.067 113.896"
	 xml:space="preserve">
<path fill="#FFFFFF" d="M63.316,56.396c0.294,0.575,0.881,0.909,1.487,0.909c0.253,0,0.513-0.058,0.754-0.183
	c0.098-0.049,9.901-5.028,14.735-6.555c0.877-0.279,1.362-1.215,1.084-2.091c-0.276-0.877-1.205-1.364-2.09-1.087
	c-5.092,1.609-14.828,6.557-15.24,6.766C63.228,54.572,62.9,55.576,63.316,56.396"/>
<path fill="#FFFFFF" d="M64.804,37.321c0.253,0,0.513-0.059,0.754-0.182c0.099-0.05,9.901-5.03,14.735-6.556
	c0.877-0.278,1.363-1.214,1.084-2.091c-0.276-0.876-1.205-1.364-2.089-1.087c-5.093,1.61-14.829,6.557-15.242,6.766
	c-0.819,0.417-1.146,1.42-0.729,2.24C63.611,36.987,64.198,37.321,64.804,37.321"/>
<path fill="#FFFFFF" d="M104.771,33.99c-0.92,0-1.666,0.746-1.666,1.666v64.949c0,2.755-2.241,4.996-4.995,4.996H58.141v-3.832
	c2.428-0.85,8.753-2.829,14.988-2.829c14.507,0,24.357,3.212,24.456,3.245c0.501,0.166,1.061,0.082,1.499-0.23
	c0.434-0.313,0.69-0.816,0.69-1.35V27.329c0-0.781-0.541-1.457-1.304-1.626c0,0-1.305-0.291-3.537-0.701
	c-0.902-0.167-1.771,0.434-1.938,1.336c-0.166,0.906,0.432,1.774,1.336,1.94c0.851,0.157,1.563,0.295,2.112,0.404v69.71
	c-3.772-0.99-12.152-2.784-23.314-2.784c-7.256,0-14.384,2.384-16.589,3.192c-1.96-0.867-7.886-3.192-15.054-3.192
	c-11.471,0-20.92,1.894-24.979,2.853V28.617c3.326-0.817,13.146-2.954,24.979-2.954c6.072,0,11.28,1.891,13.323,2.745v65.536
	c0,0.599,0.323,1.153,0.844,1.448c0.521,0.296,1.165,0.289,1.68-0.021c0.165-0.099,16.665-9.953,31.311-14.834
	c0.681-0.23,1.138-0.863,1.138-1.582v-68.28c0-0.546-0.267-1.057-0.717-1.369c-0.445-0.311-1.02-0.383-1.534-0.191
	c-13.323,4.998-26.807,13.387-26.941,13.471c-0.78,0.488-1.018,1.515-0.529,2.295c0.486,0.779,1.513,1.018,2.294,0.53
	c0.123-0.079,11.854-7.377,24.098-12.301v64.653c-11.367,3.949-23.236,10.4-28.312,13.287V27.329c0-0.632-0.356-1.207-0.92-1.49
	c-0.287-0.142-7.112-3.506-15.733-3.506c-15.049,0-26.616,3.256-27.104,3.395c-0.714,0.203-1.207,0.858-1.207,1.602v73.276
	c0,0.521,0.246,1.014,0.661,1.328c0.293,0.223,0.646,0.336,1.004,0.336c0.154,0,0.307-0.021,0.457-0.064
	c0.114-0.031,11.63-3.265,26.188-3.265c6.088,0,11.291,1.896,13.323,2.745v3.916H14.841c-2.755,0-4.996-2.241-4.996-4.996V35.656
	c0-0.92-0.746-1.666-1.665-1.666s-1.665,0.746-1.665,1.666v64.949c0,4.592,3.735,8.326,8.326,8.326h83.269
	c4.592,0,8.327-3.734,8.327-8.326V35.656C106.437,34.736,105.691,33.99,104.771,33.99"/>
<path fill="#FFFFFF" d="M63.316,46.403c0.294,0.576,0.881,0.909,1.487,0.909c0.253,0,0.513-0.058,0.754-0.181
	c0.098-0.051,9.901-5.03,14.735-6.557c0.877-0.278,1.362-1.214,1.084-2.09c-0.276-0.876-1.205-1.363-2.09-1.087
	c-5.092,1.61-14.828,6.556-15.24,6.766C63.228,44.58,62.9,45.584,63.316,46.403"/>
<path fill="#FFFFFF" d="M63.316,66.388c0.294,0.576,0.881,0.91,1.487,0.91c0.253,0,0.513-0.061,0.754-0.184
	c0.098-0.049,9.901-5.029,14.735-6.555c0.877-0.279,1.362-1.215,1.084-2.09c-0.276-0.877-1.205-1.365-2.09-1.088
	c-5.092,1.609-14.828,6.557-15.24,6.766C63.228,64.564,62.9,65.568,63.316,66.388"/>
<path fill="#FFFFFF" d="M46.863,39.915c-10.284-2.413-21.971,0.661-22.461,0.793c-0.888,0.238-1.416,1.151-1.178,2.04
	c0.2,0.744,0.872,1.234,1.606,1.234c0.144,0,0.289-0.019,0.434-0.056c0.111-0.032,11.363-2.991,20.839-0.768
	c0.892,0.208,1.791-0.347,2.002-1.243C48.316,41.021,47.759,40.126,46.863,39.915"/>
<path fill="#FFFFFF" d="M46.863,49.908c-10.284-2.411-21.971,0.66-22.461,0.793c-0.888,0.238-1.416,1.15-1.178,2.039
	c0.2,0.744,0.872,1.234,1.606,1.234c0.144,0,0.289-0.018,0.434-0.057c0.111-0.031,11.363-2.99,20.839-0.768
	c0.892,0.209,1.791-0.346,2.002-1.242C48.316,51.013,47.759,50.118,46.863,49.908"/>
<path fill="#FFFFFF" d="M63.316,76.38c0.294,0.576,0.881,0.908,1.487,0.908c0.253,0,0.513-0.058,0.754-0.181
	c0.098-0.05,9.901-5.03,14.735-6.558c0.877-0.276,1.362-1.213,1.084-2.09c-0.276-0.875-1.205-1.363-2.09-1.086
	c-5.092,1.609-14.828,6.557-15.24,6.766C63.228,74.556,62.9,75.56,63.316,76.38"/>
<path fill="#FFFFFF" d="M46.863,59.9c-10.284-2.412-21.971,0.659-22.461,0.793c-0.888,0.238-1.416,1.15-1.178,2.04
	c0.2,0.744,0.872,1.235,1.606,1.235c0.144,0,0.289-0.02,0.434-0.059c0.111-0.031,11.363-2.99,20.839-0.768
	c0.892,0.209,1.791-0.346,2.002-1.242C48.316,61.005,47.759,60.111,46.863,59.9"/>
<path fill="#FFFFFF" d="M46.863,79.884c-10.284-2.414-21.971,0.66-22.461,0.793c-0.888,0.238-1.416,1.15-1.178,2.039
	c0.2,0.744,0.872,1.236,1.606,1.236c0.144,0,0.289-0.02,0.434-0.058c0.111-0.032,11.363-2.991,20.839-0.769
	c0.892,0.207,1.791-0.346,2.002-1.242C48.316,80.99,47.759,80.093,46.863,79.884"/>
<path fill="#FFFFFF" d="M46.863,69.892c-10.284-2.414-21.971,0.66-22.461,0.793c-0.888,0.237-1.416,1.15-1.178,2.039
	c0.2,0.744,0.872,1.236,1.606,1.236c0.144,0,0.289-0.02,0.434-0.059c0.111-0.031,11.363-2.99,20.839-0.768
	c0.892,0.209,1.791-0.346,2.002-1.242C48.316,70.998,47.759,70.103,46.863,69.892"/>
</svg>
