<?xml version="1.0" encoding="utf-8"?>
<!-- Generator: Adobe Illustrator 19.0.0, SVG Export Plug-In . SVG Version: 6.00 Build 0)  -->
<svg version="1.1" id="Capa_1" xmlns="http://www.w3.org/2000/svg" xmlns:xlink="http://www.w3.org/1999/xlink" x="0px" y="0px"
	 viewBox="0 0 36 36" style="enable-background:new 0 0 36 36;" xml:space="preserve">
<style type="text/css">
	.st0{fill:#579E32;}
	.st1{fill:#FFFFFF;}
	.st2{fill:#EC8B00;}
</style>
<circle id="XMLID_449_" class="st0" cx="-63.1" cy="69.3" r="17.6"/>
<circle id="XMLID_446_" class="st0" cx="-21.6" cy="69.3" r="17.6"/>
<circle id="XMLID_443_" class="st0" cx="19.8" cy="69.3" r="17.6"/>
<g id="XMLID_426_">
	<g id="XMLID_427_">
		<g id="XMLID_428_">
			<path id="XMLID_442_" class="st1" d="M-19.9,72.2c-0.2,0-0.3,0.1-0.5,0.2v3.4c0.2,0.2,0.3,0.2,0.5,0.2c0.3,0,0.4-0.2,0.4-0.7
				v-2.4C-19.5,72.4-19.6,72.2-19.9,72.2z"/>
			<path id="XMLID_441_" class="st1" d="M-16.2,72.2c-0.3,0-0.5,0.3-0.5,0.8v0.5h1v-0.5C-15.7,72.4-15.9,72.2-16.2,72.2z"/>
			<g id="XMLID_429_">
				<path id="XMLID_435_" class="st1" d="M-14.1,68.4c-0.6-0.7-1.3-0.7-1.7-0.7c-2.3-0.2-5.8-0.2-5.8-0.2h0c0,0-3.5,0-5.8,0.2
					c-0.3,0-1,0-1.7,0.7c-0.5,0.5-0.7,1.6-0.7,1.6s-0.2,1.3-0.2,2.7v1.3c0,1.3,0.2,2.7,0.2,2.7s0.2,1.1,0.7,1.6
					c0.6,0.7,1.5,0.6,1.8,0.7c1.3,0.1,5.6,0.2,5.6,0.2s3.5,0,5.8-0.2c0.3,0,1,0,1.7-0.7c0.5-0.5,0.7-1.6,0.7-1.6s0.2-1.3,0.2-2.7
					v-1.3c0-1.3-0.2-2.7-0.2-2.7S-13.7,68.9-14.1,68.4z M-26.3,76.9h-1.1v-6.4h-1.2v-1h3.5v1h-1.2V76.9L-26.3,76.9z M-22.3,76.9h-1
					v-0.6c-0.4,0.5-0.8,0.7-1.1,0.7c-0.3,0-0.5-0.1-0.6-0.4c-0.1-0.2-0.1-0.4-0.1-0.8v-4.4h1v4.1c0,0.2,0,0.4,0,0.4
					c0,0.2,0.1,0.2,0.2,0.2c0.2,0,0.4-0.2,0.6-0.5v-4.2h1V76.9L-22.3,76.9z M-18.5,75.2c0,0.5,0,0.9-0.1,1.1
					c-0.1,0.4-0.4,0.6-0.8,0.6c-0.4,0-0.7-0.2-1-0.6v0.5h-1v-7.4h1v2.4c0.3-0.4,0.7-0.6,1-0.6c0.4,0,0.7,0.2,0.8,0.6
					c0.1,0.2,0.1,0.6,0.1,1.1V75.2z M-14.7,74.3h-2v1c0,0.5,0.2,0.8,0.5,0.8c0.2,0,0.4-0.1,0.4-0.4c0-0.1,0-0.3,0-0.7h1v0.1
					c0,0.3,0,0.5,0,0.6c0,0.2-0.1,0.4-0.2,0.6c-0.3,0.4-0.7,0.6-1.2,0.6c-0.5,0-0.9-0.2-1.2-0.6c-0.2-0.3-0.3-0.7-0.3-1.3v-1.9
					c0-0.6,0.1-1,0.3-1.3c0.3-0.4,0.7-0.6,1.2-0.6c0.5,0,0.9,0.2,1.2,0.6c0.2,0.3,0.3,0.7,0.3,1.3V74.3L-14.7,74.3z"/>
				<path id="XMLID_434_" class="st1" d="M-24.3,66.9v-3l1.4-4.5h-1.1l-0.8,2.9l-0.8-2.9h-1.2c0.2,0.7,0.5,1.4,0.7,2.1
					c0.4,1,0.6,1.8,0.7,2.4v3H-24.3L-24.3,66.9z"/>
				<path id="XMLID_431_" class="st1" d="M-21.6,67c0.5,0,0.9-0.2,1.2-0.6c0.2-0.3,0.3-0.7,0.3-1.3v-2c0-0.6-0.1-1-0.3-1.3
					c-0.3-0.4-0.7-0.6-1.2-0.6c-0.5,0-0.9,0.2-1.2,0.6c-0.2,0.3-0.3,0.7-0.3,1.3v2c0,0.6,0.1,1,0.3,1.3C-22.5,66.8-22.1,67-21.6,67z
					 M-22.1,63c0-0.5,0.2-0.8,0.5-0.8c0.3,0,0.5,0.3,0.5,0.8v2.4c0,0.5-0.2,0.8-0.5,0.8c-0.3,0-0.5-0.3-0.5-0.8V63z"/>
				<path id="XMLID_430_" class="st1" d="M-16.4,66.9v-5.6h-1v4.3c-0.2,0.3-0.4,0.5-0.6,0.5c-0.1,0-0.2-0.1-0.2-0.2c0,0,0-0.2,0-0.4
					v-4.1h-1v4.4c0,0.4,0,0.7,0.1,0.8c0.1,0.3,0.3,0.4,0.7,0.4c0.4,0,0.8-0.2,1.2-0.7v0.6H-16.4z"/>
			</g>
		</g>
	</g>
</g>
<g id="XMLID_417_">
	<circle id="XMLID_452_" class="st2" cx="18" cy="18" r="18"/>
	<g id="XMLID_424_">
		<path id="XMLID_425_" class="st1" d="M23.2,7.5l-2.7,0c-3,0-5,2-5,5.1v2.4h-2.7c-0.2,0-0.4,0.2-0.4,0.4v3.4c0,0.2,0.2,0.4,0.4,0.4
			h2.7V28c0,0.2,0.2,0.4,0.4,0.4h3.6c0.2,0,0.4-0.2,0.4-0.4v-8.7h3.2c0.2,0,0.4-0.2,0.4-0.4l0-3.4c0-0.1,0-0.2-0.1-0.3
			c-0.1-0.1-0.2-0.1-0.3-0.1h-3.2v-2c0-1,0.2-1.5,1.5-1.5l1.8,0c0.2,0,0.4-0.2,0.4-0.4V8C23.7,7.7,23.5,7.5,23.2,7.5z"/>
	</g>
</g>
<g id="XMLID_421_">
	<g id="XMLID_422_">
		<path id="XMLID_423_" class="st1" d="M-51.7,63c-0.7,0.3-1.5,0.6-2.4,0.7c0.9-0.5,1.5-1.3,1.8-2.3c-0.8,0.5-1.7,0.8-2.6,1
			c-0.8-0.8-1.8-1.3-3-1.3c-2.3,0-4.2,1.9-4.2,4.2c0,0.3,0,0.6,0.1,0.9c-3.5-0.2-6.5-1.8-8.6-4.3c-0.4,0.6-0.6,1.3-0.6,2.1
			c0,1.4,0.7,2.7,1.8,3.5c-0.7,0-1.3-0.2-1.9-0.5v0.1c0,2,1.4,3.7,3.3,4.1c-0.3,0.1-0.7,0.1-1.1,0.1c-0.3,0-0.5,0-0.8-0.1
			c0.5,1.7,2.1,2.9,3.9,2.9c-1.4,1.1-3.2,1.8-5.2,1.8c-0.3,0-0.7,0-1-0.1c1.8,1.2,4,1.9,6.4,1.9c7.6,0,11.8-6.3,11.8-11.8l0-0.5
			C-53,64.5-52.3,63.8-51.7,63z"/>
	</g>
</g>
<g id="XMLID_418_">
	<path id="Flickr" class="st1" d="M30,69.3c0,2.5-2,4.5-4.5,4.5c-2.5,0-4.5-2-4.5-4.5c0-2.5,2-4.5,4.5-4.5
		C27.9,64.8,30,66.8,30,69.3z M14.2,64.8c-2.5,0-4.5,2-4.5,4.5c0,2.5,2,4.5,4.5,4.5c2.5,0,4.5-2,4.5-4.5
		C18.8,66.8,16.8,64.8,14.2,64.8z"/>
</g>
<rect id="XMLID_445_" x="-65.1" y="-10.4" class="st2" width="48" height="48"/>
</svg>
