<?xml version="1.0" encoding="utf-8"?>
<!-- Generator: Adobe Illustrator 19.0.0, SVG Export Plug-In . SVG Version: 6.00 Build 0)  -->
<svg version="1.1" id="Capa_1" xmlns="http://www.w3.org/2000/svg" xmlns:xlink="http://www.w3.org/1999/xlink" x="0px" y="0px"
	 viewBox="0 0 36 36" style="enable-background:new 0 0 36 36;" xml:space="preserve">
<style type="text/css">
	.st0{fill:#FFFFFF;}
	.st1{fill:#579F32;}
</style>
<g id="XMLID_17_">
	<path id="XMLID_18_" class="st0" d="M23.1,7.5l-2.7,0c-3,0-5,2-5,5.1v2.4h-2.7c-0.2,0-0.4,0.2-0.4,0.4v3.4c0,0.2,0.2,0.4,0.4,0.4
		h2.7V28c0,0.2,0.2,0.4,0.4,0.4h3.6c0.2,0,0.4-0.2,0.4-0.4v-8.7H23c0.2,0,0.4-0.2,0.4-0.4l0-3.4c0-0.1,0-0.2-0.1-0.3
		c-0.1-0.1-0.2-0.1-0.3-0.1h-3.2v-2c0-1,0.2-1.5,1.5-1.5l1.8,0c0.2,0,0.4-0.2,0.4-0.4V8C23.5,7.7,23.3,7.5,23.1,7.5z"/>
</g>
<g id="XMLID_13_">
	<circle id="XMLID_39_" class="st1" cx="18" cy="18" r="18"/>
	<g id="XMLID_19_">
		<g id="XMLID_20_">
			<g id="XMLID_21_">
				<path id="XMLID_35_" class="st0" d="M19.7,21c-0.2,0-0.3,0.1-0.5,0.2v3.5c0.2,0.2,0.3,0.3,0.5,0.3c0.3,0,0.4-0.3,0.4-0.8v-2.4
					C20.2,21.2,20,21,19.7,21z"/>
				<path id="XMLID_34_" class="st0" d="M23.5,21c-0.3,0-0.5,0.3-0.5,0.8v0.5h1v-0.5C24,21.2,23.8,21,23.5,21z"/>
				<g id="XMLID_22_">
					<path id="XMLID_28_" class="st0" d="M25.6,17.1c-0.6-0.7-1.4-0.7-1.7-0.7c-2.4-0.2-5.9-0.2-5.9-0.2h0c0,0-3.6,0-5.9,0.2
						c-0.3,0-1.1,0-1.7,0.7c-0.5,0.5-0.7,1.7-0.7,1.7s-0.2,1.4-0.2,2.7v1.3c0,1.4,0.2,2.7,0.2,2.7s0.2,1.2,0.7,1.7
						c0.6,0.7,1.5,0.7,1.9,0.7c1.4,0.1,5.8,0.2,5.8,0.2s3.6,0,5.9-0.2c0.3,0,1.1,0,1.7-0.7c0.5-0.5,0.7-1.7,0.7-1.7s0.2-1.4,0.2-2.7
						v-1.3c0-1.4-0.2-2.7-0.2-2.7S26.1,17.6,25.6,17.1z M13.3,25.8h-1.1v-6.5h-1.2v-1.1h3.6v1.1h-1.2V25.8L13.3,25.8z M17.3,25.8h-1
						v-0.6c-0.4,0.5-0.8,0.7-1.2,0.7c-0.3,0-0.6-0.1-0.7-0.4c-0.1-0.2-0.1-0.4-0.1-0.8v-4.5h1v4.2c0,0.2,0,0.4,0,0.4
						c0,0.2,0.1,0.2,0.2,0.2c0.2,0,0.4-0.2,0.6-0.5v-4.3h1V25.8L17.3,25.8z M21.2,24.1c0,0.5,0,0.9-0.1,1.1
						c-0.1,0.4-0.4,0.6-0.8,0.6c-0.4,0-0.7-0.2-1.1-0.6v0.5h-1v-7.6h1v2.5c0.3-0.4,0.7-0.6,1.1-0.6c0.4,0,0.7,0.2,0.8,0.6
						c0.1,0.2,0.1,0.6,0.1,1.1V24.1z M25,23.1H23v1c0,0.5,0.2,0.8,0.5,0.8c0.3,0,0.4-0.1,0.5-0.4c0-0.1,0-0.3,0-0.7h1V24
						c0,0.3,0,0.6,0,0.7c0,0.2-0.1,0.4-0.2,0.6c-0.3,0.4-0.7,0.6-1.2,0.6c-0.5,0-0.9-0.2-1.2-0.6C22.1,25,22,24.5,22,23.9v-2
						c0-0.6,0.1-1,0.3-1.3c0.3-0.4,0.7-0.6,1.2-0.6c0.5,0,0.9,0.2,1.2,0.6c0.2,0.3,0.3,0.7,0.3,1.3V23.1L25,23.1z"/>
					<path id="XMLID_27_" class="st0" d="M15.3,15.6v-3.1l1.4-4.6h-1.2l-0.8,3l-0.8-3h-1.2c0.2,0.7,0.5,1.4,0.7,2.1
						c0.4,1.1,0.6,1.9,0.7,2.4v3.1H15.3L15.3,15.6z"/>
					<path id="XMLID_24_" class="st0" d="M18,15.7c0.5,0,0.9-0.2,1.2-0.6c0.2-0.3,0.3-0.7,0.3-1.3v-2c0-0.6-0.1-1.1-0.3-1.3
						C18.9,10,18.5,9.8,18,9.8c-0.5,0-0.9,0.2-1.2,0.6c-0.2,0.3-0.3,0.7-0.3,1.3v2c0,0.6,0.1,1.1,0.3,1.3
						C17.1,15.5,17.5,15.7,18,15.7z M17.5,11.6c0-0.5,0.2-0.8,0.5-0.8c0.3,0,0.5,0.3,0.5,0.8V14c0,0.5-0.2,0.8-0.5,0.8
						c-0.3,0-0.5-0.3-0.5-0.8V11.6z"/>
					<path id="XMLID_23_" class="st0" d="M23.3,15.6V9.9h-1v4.4c-0.2,0.3-0.4,0.5-0.7,0.5c-0.1,0-0.2-0.1-0.2-0.2c0,0,0-0.2,0-0.4
						V9.9h-1v4.5c0,0.4,0,0.7,0.1,0.9c0.1,0.3,0.3,0.4,0.7,0.4c0.4,0,0.8-0.2,1.2-0.7v0.6H23.3z"/>
				</g>
			</g>
		</g>
	</g>
</g>
</svg>
