<?xml version="1.0" encoding="utf-8"?>
<!-- Generator: Adobe Illustrator 21.1.0, SVG Export Plug-In . SVG Version: 6.00 Build 0)  -->
<svg version="1.1" xmlns="http://www.w3.org/2000/svg" xmlns:xlink="http://www.w3.org/1999/xlink" x="0px" y="0px"
	 viewBox="0 0 51.9 17" style="enable-background:new 0 0 51.9 17;" xml:space="preserve">
<style type="text/css">
	.st0{clip-path:url(#SVGID_2_);}
	.st1{clip-path:url(#SVGID_6_);}
	.st2{fill:#D1D1D1;}
	.st3{clip-path:url(#SVGID_10_);}
	.st4{fill:#514B3F;}
	.st5{fill:#008144;}
	.st6{clip-path:url(#SVGID_14_);}
	.st7{fill:#EDEDED;}
	.st8{fill:url(#SVGID_17_);}
	.st9{fill:#8CB81F;}
	.st10{fill:#FFFFFF;}
	.st11{fill:url(#SVGID_20_);}
	.st12{fill:#00491A;}
	.st13{fill:#89B382;}
	.st14{opacity:0.85;}
	.st15{fill:#004100;}
	.st16{fill:#008044;}
	.st17{fill:#008436;}
	.st18{fill:#E4E4E4;}
	.st19{opacity:0.9;fill:#008044;}
	.st20{fill:none;stroke:#1D1D1B;stroke-width:0.5;stroke-miterlimit:10;}
	.st21{fill:#008048;}
	.st22{fill:#EFEFEF;}
	.st23{fill:#A9A9A9;}
	.st24{fill:#026434;}
	.st25{fill:#75B683;}
	.st26{fill-rule:evenodd;clip-rule:evenodd;fill:#87B580;}
	.st27{fill:#87B580;}
	.st28{fill:#B8D2B2;}
	.st29{clip-path:url(#SVGID_28_);fill:#87B580;}
	.st30{clip-path:url(#SVGID_28_);fill:#B8D2B2;}
	.st31{opacity:0.25;fill:#008A32;}
	.st32{fill:#AED39E;}
	.st33{opacity:0.25;fill:#FFFFFF;}
	.st34{opacity:0.6;clip-path:url(#SVGID_30_);}
</style>
<g id="guias">
</g>
<g id="Capa_2">
	<g>
		<g>
			<g>
				<g>
					<path class="st4" d="M51.5,8.2c0,0.3-0.1,0.5-0.4,0.7L43,15.3c-0.5,0.4-1.4,0.4-1.9,0c-0.5-0.4-0.5-1.1,0-1.5l7.2-5.6l-7.2-5.6
						c-0.5-0.4-0.5-1.1,0-1.5c0.5-0.4,1.3-0.4,1.9,0l8.1,6.3C51.4,7.7,51.5,7.9,51.5,8.2L51.5,8.2z M51.5,8.2"/>
				</g>
			</g>
			<g>
				<g>
					<path class="st4" d="M40.3,8.2c0,0.3-0.1,0.5-0.4,0.7l-8.1,6.3c-0.5,0.4-1.4,0.4-1.9,0c-0.5-0.4-0.5-1.1,0-1.5l7.2-5.6L30,2.6
						c-0.5-0.4-0.5-1.1,0-1.5c0.5-0.4,1.3-0.4,1.9,0L40,7.5C40.2,7.7,40.3,8,40.3,8.2L40.3,8.2z M40.3,8.2"/>
				</g>
			</g>
			<g>
				<g>
					<path class="st4" d="M28.4,8.2c0,0.3-0.1,0.5-0.4,0.7l-8.1,6.3c-0.5,0.4-1.4,0.4-1.9,0c-0.5-0.4-0.5-1.1,0-1.5l7.2-5.6
						l-7.2-5.6c-0.5-0.4-0.5-1.1,0-1.5c0.5-0.4,1.3-0.4,1.9,0L28,7.5C28.3,7.7,28.4,8,28.4,8.2L28.4,8.2z M28.4,8.2"/>
				</g>
			</g>
			<path class="st4" d="M12.7,16.1L12.7,16.1c0.6,0,1.2-0.5,1.2-1.2l0-13.4c0-0.6-0.5-1.2-1.2-1.2h0c-0.6,0-1.2,0.5-1.2,1.2l0,13.4
				C11.5,15.6,12,16.1,12.7,16.1z"/>
			<path class="st4" d="M2.9,16.1L2.9,16.1C3.5,16.1,4,15.6,4,15L4,1.6c0-0.6-0.5-1.2-1.2-1.2h0c-0.6,0-1.2,0.5-1.2,1.2l0,13.4
				C1.7,15.6,2.2,16.1,2.9,16.1z"/>
			<circle class="st4" cx="8" cy="2.3" r="1.4"/>
			<circle class="st4" cx="8" cy="8.3" r="1.4"/>
			<circle class="st4" cx="8" cy="14.2" r="1.4"/>
		</g>
	</g>
</g>
</svg>
