<?xml version="1.0" encoding="utf-8"?>
<!-- Generator: Adobe Illustrator 19.0.0, SVG Export Plug-In . SVG Version: 6.00 Build 0)  -->
<svg version="1.1" id="Capa_1" xmlns="http://www.w3.org/2000/svg" xmlns:xlink="http://www.w3.org/1999/xlink" x="0px" y="0px"
	 viewBox="0 0 64 63" style="enable-background:new 0 0 64 63;" xml:space="preserve">
<style type="text/css">
	.st0{fill:#0C53A2;}
	.st1{fill:#FFFFFF;}
</style>
<g id="XMLID_72_">
	<circle id="XMLID_259_" class="st0" cx="32" cy="25.5" r="25.3"/>
	<path id="XMLID_205_" class="st1" d="M32.1,48.4c-12.7,0-23-10.3-23-22.9c0-12.7,10.3-22.9,23-22.9c12.7,0,23,10.3,23,22.9
		C55.1,38.2,44.8,48.4,32.1,48.4z M26.2,5.8c0,0-5.1,1.2-7.7,4.4c1.4,1.1,3,2,3.8,2.4C23.1,10.5,25.7,6.6,26.2,5.8z M24.4,13.4
		c1.8,0.9,4.2,1.5,6.4,1.7V5.1L29,5.2C27.7,6.9,25,11.9,24.4,13.4z M11.6,24.4h8c0.3-4.1,1.4-7.6,2.3-9.8c-1.4-0.5-5.1-2.7-5.1-2.7
		C12.4,15.9,11.6,22.1,11.6,24.4z M21.6,24.3h9.3v-7.6c-3.2-0.2-5.9-1.1-7.2-1.5C22.5,18,21.7,22.3,21.6,24.3z M16.8,39.4
		c1.4-1.1,3.8-2.3,5.1-2.7c-1.4-2.7-2.4-8.6-2.4-10.2h-8C11,32.5,15.6,38.3,16.8,39.4z M23.8,35.9c1.4-0.8,5.6-1.7,7.1-1.8v-7.7
		h-9.3C21.4,29,23.2,34.3,23.8,35.9z M26.4,45.2c-0.9-0.8-3.5-5.6-4.1-7.1c-0.8,0.3-3.3,1.8-3.9,2.4C21.4,43,24.4,44.5,26.4,45.2z
		 M29.4,45.5c0,0,1.2,0,1.5,0v-9.6c-2.3,0.2-4.8,1.1-6.3,1.7C25.2,39.8,28.6,44.8,29.4,45.5z M41.8,12.7c0.8-0.5,2.4-1.4,3.8-2.4
		c-2.6-3.2-7.7-4.4-7.7-4.4C38.4,6.7,40.9,10.6,41.8,12.7z M35.1,5.3l-1.8-0.2v9.9c2.2-0.2,4.6-0.8,6.4-1.7
		C39.1,11.9,36.4,7,35.1,5.3z M47.3,11.9c0,0-3.8,2.3-5.1,2.7c0.9,2.3,2,5.8,2.3,9.8h8C52.4,22.2,51.7,16,47.3,11.9z M40.4,15.2
		c-1.4,0.4-4.1,1.2-7.2,1.4v7.7h9.3C42.4,22.4,41.6,18.1,40.4,15.2z M52.6,26.5h-8c0,1.7-1.1,7.5-2.4,10.2c1.4,0.5,3.5,1.7,4.9,2.7
		C48.3,38.4,53,32.5,52.6,26.5z M42.5,26.5h-9.3v7.6c1.5,0.2,5.4,1.1,7.1,1.9C40.9,34.3,42.7,29.1,42.5,26.5z M45.7,40.7
		c-0.6-0.6-3.2-2.1-3.9-2.4c-0.6,1.5-3.2,6.3-4.1,7.1C39.7,44.6,42.7,43.1,45.7,40.7z M39.5,37.6C38,37,35.4,36.1,33.2,36v9.6
		c0.3,0,1.5,0,1.5,0C35.4,44.9,38.9,39.9,39.5,37.6z"/>
	<g id="XMLID_73_">
		<g id="XMLID_302_">
			<path id="XMLID_330_" class="st0" d="M0,55.6c0.4-0.1,1-0.1,1.7-0.1c0.9,0,1.5,0.2,2,0.5c0.4,0.3,0.6,0.7,0.6,1.3
				c0,0.7-0.5,1.3-1.2,1.6v0c0.7,0.2,1.5,0.7,1.5,1.8c0,0.6-0.2,1.1-0.6,1.4c-0.5,0.5-1.3,0.7-2.5,0.7c-0.6,0-1.1,0-1.4-0.1V55.6z
				 M0.9,58.6h0.8c1,0,1.5-0.5,1.5-1.2c0-0.8-0.6-1.2-1.6-1.2c-0.4,0-0.7,0-0.8,0.1V58.6z M0.9,62c0.2,0,0.4,0,0.8,0
				c1,0,1.8-0.3,1.8-1.4c0-1-0.8-1.4-1.8-1.4H0.9V62z"/>
			<path id="XMLID_327_" class="st0" d="M8.5,62.7L8.4,62h0c-0.3,0.4-0.8,0.8-1.6,0.8c-1,0-1.6-0.7-1.6-1.5c0-1.2,1.1-1.9,3.1-1.9
				v-0.1c0-0.4-0.1-1.2-1.2-1.2c-0.5,0-1,0.1-1.3,0.4l-0.2-0.6c0.4-0.3,1-0.5,1.7-0.5c1.6,0,1.9,1.1,1.9,2.1v1.9
				c0,0.4,0,0.9,0.1,1.2H8.5z M8.4,60c-1,0-2.2,0.2-2.2,1.1c0,0.6,0.4,0.9,0.9,0.9c0.7,0,1.1-0.4,1.2-0.9c0-0.1,0.1-0.2,0.1-0.3V60z
				"/>
			<path id="XMLID_325_" class="st0" d="M10.8,58.9c0-0.5,0-1,0-1.4h0.8l0.1,0.8h0c0.3-0.5,0.8-1,1.7-1c0.7,0,1.8,0.4,1.8,2.2v3
				h-0.9v-2.9c0-0.8-0.3-1.5-1.2-1.5c-0.6,0-1.1,0.4-1.2,1c0,0.1-0.1,0.3-0.1,0.4v3.1h-0.9V58.9z"/>
			<path id="XMLID_323_" class="st0" d="M20.3,62.5c-0.2,0.1-0.8,0.3-1.5,0.3c-1.5,0-2.5-1-2.5-2.6c0-1.6,1.1-2.7,2.7-2.7
				c0.5,0,1,0.1,1.3,0.3l-0.2,0.7c-0.2-0.1-0.6-0.2-1.1-0.2c-1.2,0-1.8,0.9-1.8,1.9c0,1.2,0.8,1.9,1.8,1.9c0.5,0,0.9-0.1,1.1-0.3
				L20.3,62.5z"/>
			<path id="XMLID_320_" class="st0" d="M25.9,60.1c0,1.9-1.3,2.7-2.5,2.7c-1.4,0-2.5-1-2.5-2.6c0-1.7,1.1-2.7,2.5-2.7
				C24.9,57.4,25.9,58.5,25.9,60.1z M21.9,60.1c0,1.1,0.6,2,1.6,2c0.9,0,1.6-0.8,1.6-2c0-0.9-0.4-2-1.5-2
				C22.4,58.1,21.9,59.1,21.9,60.1z"/>
			<path id="XMLID_318_" class="st0" d="M35.4,59.5c-0.1-1-0.1-2.2-0.1-3.1h0c-0.2,0.8-0.5,1.7-0.9,2.7l-1.3,3.5h-0.7l-1.2-3.4
				c-0.3-1-0.6-1.9-0.8-2.8h0c0,0.9-0.1,2.1-0.1,3.1l-0.2,3h-0.9l0.5-7.1h1.2l1.2,3.4c0.3,0.9,0.5,1.7,0.7,2.4h0
				c0.2-0.7,0.4-1.5,0.7-2.4l1.3-3.4H36l0.4,7.1h-0.9L35.4,59.5z"/>
			<path id="XMLID_316_" class="st0" d="M42.1,61.3c0,0.5,0,1,0,1.4h-0.8l-0.1-0.8h0c-0.2,0.4-0.8,1-1.7,1c-0.8,0-1.8-0.4-1.8-2.2
				v-3h0.9v2.8c0,1,0.3,1.6,1.1,1.6c0.6,0,1.1-0.4,1.2-0.8c0.1-0.1,0.1-0.3,0.1-0.5v-3.1h0.9V61.3z"/>
			<path id="XMLID_314_" class="st0" d="M43.7,58.9c0-0.5,0-1,0-1.4h0.8l0.1,0.8h0c0.3-0.5,0.8-1,1.7-1c0.7,0,1.8,0.4,1.8,2.2v3
				h-0.9v-2.9c0-0.8-0.3-1.5-1.2-1.5c-0.6,0-1.1,0.4-1.2,1c0,0.1-0.1,0.3-0.1,0.4v3.1h-0.9V58.9z"/>
			<path id="XMLID_311_" class="st0" d="M54,55.2v6.2c0,0.5,0,1,0,1.3h-0.8l0-0.9h0c-0.3,0.6-0.9,1-1.7,1c-1.2,0-2.2-1-2.2-2.6
				c0-1.7,1-2.7,2.3-2.7c0.8,0,1.3,0.4,1.5,0.8h0v-3H54z M53,59.6c0-0.1,0-0.3,0-0.4c-0.1-0.6-0.6-1.1-1.3-1.1c-1,0-1.5,0.8-1.5,2
				c0,1,0.5,1.9,1.5,1.9c0.6,0,1.2-0.4,1.4-1.1c0-0.1,0-0.3,0-0.4V59.6z"/>
			<path id="XMLID_308_" class="st0" d="M56.5,56.1c0,0.3-0.2,0.6-0.6,0.6c-0.3,0-0.6-0.3-0.6-0.6c0-0.3,0.2-0.6,0.6-0.6
				C56.3,55.5,56.5,55.8,56.5,56.1z M55.5,62.7v-5.1h0.9v5.1H55.5z"/>
			<path id="XMLID_305_" class="st0" d="M60.8,62.7L60.7,62h0c-0.3,0.4-0.8,0.8-1.6,0.8c-1,0-1.6-0.7-1.6-1.5c0-1.2,1.1-1.9,3.1-1.9
				v-0.1c0-0.4-0.1-1.2-1.2-1.2c-0.5,0-1,0.1-1.3,0.4l-0.2-0.6c0.4-0.3,1-0.5,1.7-0.5c1.6,0,1.9,1.1,1.9,2.1v1.9
				c0,0.4,0,0.9,0.1,1.2H60.8z M60.7,60c-1,0-2.2,0.2-2.2,1.1c0,0.6,0.4,0.9,0.9,0.9c0.7,0,1.1-0.4,1.2-0.9c0-0.1,0.1-0.2,0.1-0.3
				V60z"/>
			<path id="XMLID_303_" class="st0" d="M63.1,55.2H64v7.5h-0.9V55.2z"/>
		</g>
	</g>
</g>
</svg>
