<?xml version="1.0" encoding="utf-8"?>
<!-- Generator: Adobe Illustrator 16.0.0, SVG Export Plug-In . SVG Version: 6.00 Build 0)  -->
<!DOCTYPE svg PUBLIC "-//W3C//DTD SVG 1.1//EN" "http://www.w3.org/Graphics/SVG/1.1/DTD/svg11.dtd">
<svg version="1.1" id="Capa_1" xmlns="http://www.w3.org/2000/svg" xmlns:xlink="http://www.w3.org/1999/xlink" x="0px" y="0px"
	 width="1351.74px" height="159.663px" viewBox="0 -0.663 1351.74 159.663" enable-background="new 0 -0.663 1351.74 159.663"
	 xml:space="preserve">
<g>
	<g id="XMLID_10_">
		<g>
			<g id="XMLID_132_">
				<path id="XMLID_144_" d="M298.547,130.352c-0.996,0-1.994,0.667-2.325,1.328l-4.317,11.292l-0.332,1.328l-0.333-1.328
					l-3.32-10.625c0,0,0,0,0-0.334l0,0l0,0c-0.332-0.994-1.33-1.661-2.324-1.661l0,0h-5.314l0,0
					c-1.328,0.337-1.992,0.998-1.992,2.325c0,0.331,0.332,0.664,0.332,0.998l0.664,2.656l-2.656,6.641l-0.666,1.328v-1.328
					l-3.319-10.625c0,0,0,0,0-0.334l0,0c-0.332-0.994-0.998-1.661-1.992-1.661l0,0h-5.646l0,0c-1.33,0.337-2.326,0.998-2.326,2.325
					c0,0.331,0.332,0.664,0.332,0.998l8.303,24.24c0.332,0.998,0.998,1.661,1.992,1.661c0.998,0,1.992-0.663,2.324-1.661
					l5.646-14.28l0.664-1.328l0.332,1.328l4.648,13.95c0,1.328,0.997,1.991,1.996,1.991c0.994,0,1.989-0.663,2.322-1.661
					l9.299-24.24c0.333-0.334,0.333-0.667,0.333-0.998C300.539,131.68,299.542,130.352,298.547,130.352L298.547,130.352z"/>
				<path id="XMLID_143_" d="M338.396,130.352c-0.996,0-1.991,0.667-2.324,1.328l-3.985,11.292l-0.334,1.328l-0.332-1.328
					l-3.32-10.625c0,0,0,0,0-0.334l0,0c-0.332-0.994-1.328-1.661-2.324-1.661l0,0h-5.314l0,0c-1.327,0.337-1.992,0.998-1.992,2.325
					c0,0.331,0,0.664,0,0.998l0.666,2.322l-2.658,6.645l-0.664,1.328v-0.998l-3.321-10.625c0,0,0,0-0.332-0.334l0,0
					c-0.333-0.994-0.998-1.661-1.992-1.661l0,0h-5.314l0,0c-1.33,0.337-2.325,0.998-2.325,2.325c0,0.331,0.333,0.664,0.333,0.998
					l7.97,23.91c0.33,0.994,1.328,1.66,2.322,1.66c0.998,0,1.992-0.666,2.328-1.66l5.644-14.283l0.663-1.328l0.332,1.328
					l4.65,13.949c0.332,0.997,1.328,1.662,2.324,1.662c0.995,0,1.993-0.665,2.324-1.662l9.299-24.243
					c0.332-0.331,0.332-0.661,0.332-0.995C340.388,131.68,339.394,130.352,338.396,130.352L338.396,130.352z"/>
				<path id="XMLID_142_" d="M364.298,130.352h-18.596c-1.33,0-1.992,0.998-1.992,1.995l0,0l0,0c0,0,0,1.989,0,4.646
					c0,6.643,0,20.259,0,20.259l0,0l0,0c0.332,1.328,0.995,1.994,2.324,1.994l0,0c3.32,0,5.313,0,5.313,0l0,0
					c1.33,0,1.992-0.997,1.992-1.994c0,0.334,0-11.623,0-11.623h7.639c0.998,0,1.992-0.998,1.992-1.993
					c0-1.328-0.995-2.321-1.992-2.321h-7.639v-6.641h10.959c1.33,0,2.324-0.998,2.324-2.326
					C366.622,131.68,365.293,130.352,364.298,130.352L364.298,130.352z"/>
				<path id="XMLID_141_" d="M335.408,50.988c3.32,3.653,3.652,15.276,12.287,10.625c4.982-2.656,4.982-14.279-1.992-18.264
					c-5.646-3.323-8.635,1.328-10.628,6.641C335.074,50.32,335.074,50.657,335.408,50.988L335.408,50.988z"/>
				<path id="XMLID_140_" d="M322.123,49.325c-3.652,2.991-5.977,11.29-12.619,8.303c-5.312-2.656-5.978-13.284,3.32-17.933
					c6.312-2.987,9.631,2.986,9.631,9.296C322.455,48.661,322.123,48.992,322.123,49.325L322.123,49.325z"/>
				<path id="XMLID_139_" d="M330.759,69.915c3.652-0.333,2.655-3.65,0-4.318c-2.327-0.998-5.978-1.328-8.636-1.328
					c-4.648,0-4.316,3.654-1.992,4.315c1.992,0.667,2.99,0.667,4.65,2.659C326.107,73.899,325.445,70.579,330.759,69.915
					L330.759,69.915z"/>
				<path id="XMLID_138_" d="M347.362,11.136c4.316-7.307,12.285-5.977,15.939-2.325c4.318,3.985,4.981,8.635,3.32,11.955
					c-2.324,4.32-7.968,9.632-11.623,4.65c-1.66-2.326-4.98-4.982-6.973-5.645C345.37,18.11,344.705,15.786,347.362,11.136
					L347.362,11.136z"/>
				<path id="XMLID_137_" d="M364.962,43.68c-0.333-1.328-0.995-1.328-0.995-0.331c0.331,13.615-7.638,28.228-24.908,28.228
					c-4.316,0-2.988,6.971-10.958,3.32c-5.646-3.988-8.965,3.984-13.283-4.318c-0.996-2.326-2.324-3.323-3.984-3.984
					c-16.938-4.318-22.251-27.563-7.308-46.823c2.99,1.991,3.986,2.321,7.308-0.998c1.66-1.662,4.314-3.32,5.975-3.651
					c3.654-1.33,5.646-2.99,2.328-9.964c-1.33-3.322-3.322-4.982-5.646-5.646h-5.645c-1.66,0.664-3.322,1.33-4.65,2.324
					c-4.316,3.654-7.306,8.968-1.992,15.609c-15.275,10.296-17.933,22.914-17.602,34.202c0.335,11.623-2.655,10.628,1.33,22.585
					c0.332,0.995-0.664,0.995-0.995,0.664c-15.941-9.631-24.244-40.514,0.331-57.785c0.664-0.331,0.332-0.995-1.66,0
					c-21.252,11.294-23.244,33.208-19.925,48.154c1.66,7.305-0.664,8.633,1.992,17.932c6.31,19.592,11.957,21.25,19.593,21.92
					c13.947,0,4.316-7.641,4.981-17.273c0-0.662,0.664-0.994,0.995,0.336c7.638,17.266,13.283,32.874,33.209,31.546
					c11.621-1.658,5.314-7.306,4.316-10.624c-8.633-28.561,12.287-35.203,6.311-7.311c-3.988,15.939,8.301,14.281,17.267,8.639
					C360.313,104.448,371.604,65.266,364.962,43.68L364.962,43.68z M331.09,77.884c-1.993,4.983-11.954,3.32-12.287-1.662
					c0-0.33,0.333-0.33,0.333,0c4.648,0.998,8.633,1.662,11.623,1.662C331.09,77.55,331.09,77.55,331.09,77.884L331.09,77.884z"/>
				<path id="XMLID_136_" d="M287.588,114.084c0,2.656-2.326,4.978-4.982,4.978c-2.99,0-4.982-2.321-4.982-4.978
					c0-2.66,2.326-4.981,4.982-4.981C285.262,108.768,287.588,111.089,287.588,114.084L287.588,114.084z M282.606,108.104
					c-3.32,0-5.977,2.656-5.977,5.979c0,3.317,2.656,5.974,5.977,5.974c3.322,0,5.976-2.656,5.976-5.974
					C288.583,110.431,285.928,108.104,282.606,108.104L282.606,108.104z"/>
				<path id="XMLID_135_" d="M284.267,114.745c0,0.997-0.997,1.328-1.66,1.328c-1.328,0-1.992-0.998-1.992-2.328
					c0-1.324,0.664-2.321,1.992-2.321c0.995,0,1.66,0.665,1.66,1.332h0.996c-0.332-1.332-1.326-1.995-2.656-1.995
					c-1.66,0-2.99,1.328-2.99,2.984c0,1.663,1.33,2.995,2.99,2.995c1.33,0,1.992-0.998,2.324-2.326h-0.664V114.745z"/>
				<path id="XMLID_134_" d="M365.293,121.718c0,2.656-2.324,4.98-4.98,4.98c-2.988,0-4.981-2.324-4.981-4.98
					s2.323-4.978,4.981-4.978C363.301,116.74,365.293,119.062,365.293,121.718L365.293,121.718z M360.646,115.742
					c-3.32,0-5.977,2.656-5.977,5.976c0,3.321,2.657,5.978,5.977,5.978c3.322,0,5.976-2.656,5.976-5.978
					C366.622,118.398,363.634,115.742,360.646,115.742L360.646,115.742z"/>
				<path id="XMLID_133_" d="M359.647,122.053h0.998l1.66,2.656h0.996l-1.662-2.656c0.998-0.335,1.662-0.667,1.662-1.663
					c0-1.328-0.664-1.66-1.992-1.66h-1.992v5.645h0.996v-2.321H359.647z M359.647,121.386v-1.659h0.998c0.664,0,1.33,0,1.33,0.663
					c0,0.996-0.666,0.996-1.33,0.996H359.647L359.647,121.386z"/>
			</g>
		</g>
	</g>
	<g id="XMLID_1_">
		<path id="XMLID_9_" fill="#FFFFFF" d="M1158.914,97.375c-0.334,0-0.334,0-0.671,0c-1.006-2.009-1.675-4.017-2.677-5.692
			c-6.361-12.387-12.388-25.108-18.746-37.495c-1.341-2.679-3.349-5.021-6.361-5.691c-4.017-0.67-7.7,0-11.721,0
			c0,21.092,0,41.846,0,62.938c3.35,0,6.362,0,10.046,0c0-16.404,0-32.809,0-49.212c0.672,0.667,1.341,1.341,1.675,2.345
			c7.7,15.4,15.4,30.463,23.097,45.864c0.337,0.668,1.008,1.34,1.675,1.34c4.351,0,9.04,0,13.395,0c0-21.429,0-42.183,0-63.274
			c-3.016,0-6.361,0-9.379,0c0,8.367,0,16.404,0,24.438C1158.914,80.972,1158.914,89.004,1158.914,97.375z"/>
		<path id="XMLID_8_" fill="#FFFFFF" d="M1242.942,111.434c0-1.003,0-1.675,0-2.679c0-9.373,0-19.084,0-28.459
			c0-1.336,0.332-2.338,1.67-2.338c3.014-0.674,5.693-1.341,8.708-2.011c2.009-0.334,3.685,0,5.689,0c0-2.679,0-4.688,0-7.03
			c0-1.338-0.668-2.008-2.005-2.008c-2.681,0-5.024,0-7.705,0.67c-2.679,0.667-5.021,1.671-7.696,2.676c0-1.005,0-2.342,0-3.347
			c-3.013,0-5.691,0-8.373,0c0,14.729,0,29.795,0,44.525C1236.58,111.434,1239.592,111.434,1242.942,111.434z"/>
		<path id="XMLID_7_" d="M1048.438,6.315c3.018,1.004,6.362,1.339,9.375,2.679c10.713,4.016,18.745,10.711,24.104,20.756
			c4.353,8.034,6.025,17.071,5.021,26.109c-0.668,8.037-3.683,16.074-10.045,24.107c5.024,6.359,8.704,13.725,9.712,21.757
			c1.004,7.701,0.667,15.068-2.009,22.43c-3.014,8.367-8.369,15.066-15.4,20.421c-6.023,4.351-12.724,7.364-20.086,8.367
			l-0.335,0.339c-4.353,0-8.704,0-13.055,0c-1.006-0.339-1.675-0.669-2.683-0.669c-7.362-1.341-14.059-4.689-19.749-9.373
			c-7.366-6.025-12.052-13.394-14.73-22.097c-0.666-2.008-1.003-4.35-1.674-6.358c0-4.021,0-8.037,0-12.058
			c0-0.33,0.335-0.33,0.335-0.667c1.008-8.367,4.688-15.4,10.044-22.092c-4.021-5.021-7.366-10.716-9.036-17.078
			c-0.335-1.671-1.008-3.68-1.343-5.351c0-4.354,0-8.708,0-12.724c0.335-1.341,0.671-2.676,1.008-4.017
			c4.351-15.734,14.056-26.781,29.789-32.139c2.682-1.002,5.356-1.338,7.702-2.007C1039.739,6.315,1044.088,6.315,1048.438,6.315z
			 M1081.246,49.501c-7.365-0.671-24.773,4.687-35.484,14.729c10.378,1.004,19.415,4.688,27.114,11.383
			C1078.904,67.579,1081.246,58.875,1081.246,49.501z M1003.243,49.167c0,0.334-0.333,0.667-0.333,1.004
			c-0.334,8.704,2.679,16.737,7.366,24.1c1.004,1.341,1.672,1.004,2.678,0c6.025-5.021,12.722-8.367,20.419-9.371
			c1.342-0.334,3.017-0.671,5.023-1.004C1027.682,55.192,1016.301,50.171,1003.243,49.167z M1006.256,35.438
			c-0.667,2.682-1.671,5.021-2.338,7.033c6.358,1.675,12.383,2.679,18.075,5.021c5.688,2.342,11.38,5.355,16.737,8.368
			c0-2.008,0-4.017,0-6.358c0-0.334-0.67-1.005-1.005-1.338c-7.362-5.357-15.396-9.041-24.102-11.383
			C1011.28,36.109,1008.937,35.775,1006.256,35.438z M1045.426,55.859c0.336,0,0.336,0,0.671,0
			c10.043-6.692,20.421-11.38,32.808-12.718c1.003,0,2.01-0.67,1.339-2.008c-0.336-1.341-1.006-2.345-1.006-3.687
			c-0.333-2.342-1.671-2.342-3.682-2.008c-2.009,0.67-4.016,1.007-6.025,1.341c-8.372,2.342-15.732,6.026-22.766,10.379
			c-0.668,0.333-1.003,1.337-1.003,2.008C1045.089,51.842,1045.426,53.852,1045.426,55.859z M1016.638,105.743
			c1.002-4.688,2.009-9.375,3.014-14.061c0-0.337,0-1.341-0.337-1.675c-2.342-1.675-5.022-3.35-7.701-5.356
			c-4.683,6.361-7.695,13.055-8.032,21.092C1007.935,105.743,1012.622,105.743,1016.638,105.743z M1011.613,132.857
			c2.679-1.675,5.024-3.68,7.701-5.356c0.337-0.334,0.671-1.006,0.671-1.338c-1.006-4.688-2.009-9.371-3.013-14.063
			c-4.351,0-8.704,0-13.392,0C1003.918,120.134,1006.597,126.834,1011.613,132.857z M1067.521,112.101
			c-1.003,4.691-1.675,9.041-2.678,13.392c-0.332,1.342,0,1.675,1.003,2.346c2.01,1.34,3.685,2.676,5.359,4.017
			c1.338,1.003,2.009,1.003,3.013-0.337c2.676-3.68,4.687-7.696,5.689-11.715c0.669-2.344,1.007-4.689,1.339-7.365
			C1076.228,112.101,1071.54,112.101,1067.521,112.101z M1080.914,105.408c0.669-5.695-4.687-17.744-8.038-20.757
			c-2.675,1.674-5.021,3.682-7.699,5.356c-0.334,0.334-0.666,1.005-0.334,1.338c1.003,4.688,2.01,9.373,3.013,14.063
			C1071.876,105.408,1076.228,105.408,1080.914,105.408z M1009.272,29.413c10.713,2.345,20.42,6.025,29.458,11.72
			c0-2.345,0-4.354,0-6.362c0-0.671-0.67-1.675-1.337-2.345c-6.362-3.347-12.721-6.025-19.754-8.034
			c-2.342-0.667-4.016-0.333-5.354,1.672C1011.613,27.072,1010.61,28.076,1009.272,29.413z M1074.218,29.75
			c-2.678-5.358-4.354-6.362-9.707-4.353h-0.339c-6.023,2.008-12.05,4.016-17.74,7.7c-0.335,0.333-1.006,1.004-1.006,1.337
			c0,2.345,0,4.354,0,7.033C1054.468,35.438,1063.839,31.758,1074.218,29.75z M1025.676,124.153
			c4.688-1.007,9.039-2.011,13.055-3.012c0-3.016,0-6.028,0-9.041c-5.021,0-10.041,0-15.399,0
			C1024.002,116.454,1025.005,120.472,1025.676,124.153z M1045.426,112.101c0,3.013,0,6.025,0,9.041
			c4.355,1.001,8.703,2.005,13.391,3.012c0.668-4.02,1.343-8.032,2.011-12.053C1055.468,112.101,1050.447,112.101,1045.426,112.101z
			 M1023.331,105.408c5.691,0,10.715,0,15.399,0c0-3.35,0-6.362,0-9.04c-4.016-1.002-7.699-1.676-11.384-2.677
			c-1.003-0.333-1.671-0.333-2.005,0.671C1024.673,98.042,1024.002,101.724,1023.331,105.408z M1060.827,105.408
			c-0.668-3.685-1.343-7.366-2.347-11.046c0-0.336-1.001-1.004-1.671-0.671c-4.017,1.001-7.699,2.005-11.721,2.677
			c0,3.014,0,6.027,0,9.04C1050.447,105.408,1055.468,105.408,1060.827,105.408z M1038.73,12.341
			c-6.696,0.669-12.722,2.678-18.078,6.362c6.028,2.677,12.053,5.022,18.078,7.698C1038.73,21.713,1038.73,17.028,1038.73,12.341z
			 M1063.504,18.703c-5.69-3.684-11.382-5.693-18.078-6.362c0,4.688,0,9.039,0,13.723
			C1051.456,23.388,1057.146,21.044,1063.504,18.703z M1045.426,146.918c0.336,0,0.336,0.337,0.671,0.337
			c3.345-5.695,7.033-11.05,10.713-17.071c-4.017-1.343-7.699-2.683-11.384-2.346
			C1045.426,134.53,1045.426,140.558,1045.426,146.918z M1038.73,90.008c0-6.699,0-13.054,0-19.416c-0.334,0-0.334-0.336-0.67-0.336
			c-3.346,5.357-7.029,11.048-10.714,17.074C1031.702,88.333,1035.048,89.341,1038.73,90.008z M1045.426,70.592
			c0,6.692,0,13.054,0,19.75c3.685-1.001,7.367-1.675,11.047-2.678C1053.463,81.304,1050.113,75.613,1045.426,70.592z
			 M1038.73,127.501c-3.683,1.008-7.362,1.677-11.049,2.683c3.015,6.358,6.028,12.049,11.049,17.071
			C1038.73,140.558,1038.73,134.2,1038.73,127.501z M1054.468,71.933c2.679,4.347,5.017,8.363,7.697,12.718
			c2.007-1.343,4.02-3.014,6.361-4.355C1064.172,76.617,1059.823,73.604,1054.468,71.933z M1029.692,71.933
			c-5.357,1.671-9.707,4.684-14.058,8.033c2.342,1.671,4.351,3.012,6.358,4.685C1024.673,80.296,1027.015,76.28,1029.692,71.933z
			 M1068.526,137.543c-2.342-1.673-4.354-3.013-6.361-4.347c-2.681,4.347-5.355,8.699-8.036,12.717
			C1059.484,143.905,1064.172,141.56,1068.526,137.543z M1030.029,145.913c-2.683-4.354-5.356-8.37-8.036-12.717
			c-2.008,1.334-3.682,3.009-6.025,4.684C1020.317,141.56,1025.005,143.905,1030.029,145.913z"/>
		<path id="XMLID_6_" d="M1351.74,110.763c-2.678,0.336-5.356,1.008-8.036,1.338c-3.346,0.337-6.692,0.673-10.042,0.337
			c-7.7-0.337-14.729-2.679-19.082-9.712c-2.005-3.013-2.677-6.357-3.014-9.705c-0.667-4.354,0-8.704,1.343-12.725
			c2.678-7.362,8.033-12.049,15.733-13.053c4.353-0.668,8.369,0,13.055,0c0-7.364,0-14.729,0-22.429c3.349,0,6.698,0,10.043,0
			C1351.74,66.575,1351.74,88.667,1351.74,110.763z M1342.029,104.737c0-1.004,0-1.338,0-1.675c0-9.036-0.332-17.744-0.332-26.782
			c0-1.672-1.006-1.672-2.005-1.672c-2.015,0-4.356,0-6.363,0c-4.687,0-9.709,2.675-10.713,8.033
			c-0.671,3.014-1.007,6.362-0.671,9.712c0.336,5.021,3.35,9.705,8.703,11.046C1334.333,104.404,1338.017,104.404,1342.029,104.737z
			"/>
		<path id="XMLID_5_" d="M1158.914,97.375c0-8.034,0-16.403,0-24.441c0-8.034,0-16.404,0-24.438c3.015,0,6.36,0,9.371,0
			c0,21.092,0,42.181,0,63.274c-4.352,0-9.039,0-13.39,0c-0.666,0-1.34-1.008-1.674-1.34c-7.696-15.401-15.398-30.464-23.097-45.864
			c-0.333-0.67-1.008-1.678-1.676-2.345c0,16.404,0,32.808,0,49.212c-3.349,0-6.698,0-10.043,0c0-20.757,0-41.846,0-62.938
			c4.021,0,8.036-0.333,11.719,0c3.01,0.334,5.018,3.013,6.36,5.691c6.361,12.387,12.387,25.108,18.745,37.495
			c1.004,2.009,1.674,3.684,2.679,5.692C1158.243,97.375,1158.58,97.375,1158.914,97.375z"/>
		<path id="XMLID_4_" d="M1292.487,83.983c0-1.005,0-1.678,0-2.346c0.333-4.017-1.676-6.025-6.028-6.362
			c-6.021-0.667-12.047,0.337-18.075,1.341c-0.338,0-0.67,0-1.005,0c0-2.679,0-5.357,0-8.033c9.038-1.341,17.742-2.679,26.78,0
			c6.027,1.671,8.036,6.024,8.036,10.712c0.333,10.045,0,20.086,0,30.129c0,1.338-0.333,1.674-2.009,2.009
			c-6.694,1.004-13.728,1.671-20.425,1.004c-4.683-0.337-9.702-0.667-13.387-4.688c-5.021-5.691-5.358-19.749,6.026-22.763
			c6.025-1.679,12.387-2.009,18.745-1.004C1291.819,83.983,1292.154,83.983,1292.487,83.983z M1292.82,92.017
			c-5.021-1.004-9.706-0.671-14.394,0.337c-2.344,0.667-4.687,2.339-4.687,4.351c-0.336,3.346,0.335,5.691,3.349,7.029
			c5.019,2.01,10.378,0.671,15.731,1.338C1292.82,100.388,1292.82,96.033,1292.82,92.017z"/>
		<path id="XMLID_3_" d="M1224.195,89.341c0,6.692-2.346,12.383-7.033,17.07c-3.68,3.681-8.032,5.359-13.055,6.026
			c-5.019,0.667-9.711-0.337-14.394-2.346c-6.025-2.675-9.71-7.696-11.385-14.059c-1.674-7.7-1.341-15.062,4.021-21.762
			c3.009-3.68,7.029-6.025,11.715-7.029c6.698-1.338,13.392-1.338,19.753,2.345c5.69,3.013,8.704,7.696,9.708,13.721
			C1223.86,85.318,1224.195,87.329,1224.195,89.341z M1188.038,89.671c-0.334,3.013,0.333,6.025,2.008,9.043
			c2.01,3.682,5.354,5.69,9.709,6.023c5.021,0.334,9.038-1.338,11.717-6.023c2.679-5.355,2.679-10.713,1.003-16.408
			c-2.677-8.368-13.386-10.042-19.08-5.689C1189.379,79.966,1188.038,84.316,1188.038,89.671z"/>
		<path id="XMLID_2_" d="M1242.942,111.434c-3.351,0-6.362,0-9.712,0c0-14.729,0-29.459,0-44.525c2.682,0,5.36,0,8.373,0
			c0,1.004,0,2.342,0,3.347c2.676-1.005,5.018-2.009,7.696-2.676c2.342-0.67,5.024-0.67,7.705-0.67c1.337,0,2.005,0.67,2.005,2.008
			c0,2.342,0,4.351,0,7.03c-2.005,0-4.018-0.334-5.689,0c-3.015,0.333-5.694,1.337-8.708,2.011c-1.338,0.331-1.67,1.001-1.67,2.338
			c0,9.375,0,19.086,0,28.459C1242.942,109.759,1242.942,110.431,1242.942,111.434z"/>
	</g>
	<g>
		<path d="M13.114,81.837v-4.42H24.53v10.452c-1.109,1.071-2.717,2.017-4.821,2.831c-2.106,0.818-4.239,1.227-6.398,1.227
			c-2.744,0-5.134-0.573-7.174-1.727c-2.041-1.15-3.573-2.797-4.598-4.938C0.512,83.12,0,80.793,0,78.275
			c0-2.731,0.572-5.16,1.717-7.282c1.146-2.122,2.821-3.751,5.027-4.885c1.683-0.872,3.776-1.306,6.281-1.306
			c3.255,0,5.798,0.684,7.63,2.047c1.83,1.367,3.009,3.256,3.534,5.663l-5.261,0.985c-0.369-1.286-1.064-2.303-2.084-3.048
			c-1.021-0.749-2.293-1.121-3.819-1.121c-2.314,0-4.154,0.735-5.52,2.203c-1.367,1.467-2.049,3.645-2.049,6.531
			c0,3.114,0.692,5.449,2.075,7.003c1.383,1.559,3.197,2.336,5.439,2.336c1.11,0,2.222-0.219,3.338-0.655
			c1.114-0.435,2.072-0.961,2.871-1.58v-3.329H13.114z"/>
		<path d="M29.431,91.479V65.25h11.147c2.803,0,4.84,0.236,6.111,0.706c1.27,0.473,2.287,1.308,3.05,2.513
			c0.763,1.206,1.145,2.582,1.145,4.134c0,1.969-0.578,3.593-1.735,4.875c-1.158,1.282-2.888,2.093-5.189,2.426
			c1.146,0.667,2.091,1.399,2.836,2.2c0.745,0.8,1.751,2.218,3.014,4.26l3.204,5.115h-6.334l-3.829-5.709
			c-1.359-2.037-2.29-3.323-2.791-3.854c-0.501-0.531-1.032-0.894-1.592-1.092c-0.562-0.198-1.45-0.295-2.667-0.295h-1.074v10.949
			H29.431z M34.727,76.342h3.918c2.541,0,4.126-0.107,4.76-0.321c0.632-0.213,1.126-0.583,1.484-1.107s0.538-1.182,0.538-1.97
			c0-0.881-0.236-1.593-0.708-2.138c-0.471-0.544-1.135-0.885-1.994-1.03c-0.429-0.058-1.719-0.087-3.865-0.087h-4.134V76.342z"/>
		<path d="M79.531,91.479h-5.762l-2.29-5.957H60.993l-2.164,5.957h-5.619L63.428,65.25h5.6L79.531,91.479z M69.778,81.104
			l-3.613-9.734l-3.542,9.734H69.778z"/>
		<path d="M99.122,81.837l5.134,1.628c-0.787,2.862-2.096,4.988-3.927,6.378c-1.831,1.391-4.153,2.084-6.968,2.084
			c-3.484,0-6.346-1.189-8.589-3.57c-2.242-2.377-3.362-5.631-3.362-9.761c0-4.363,1.125-7.754,3.38-10.171
			c2.255-2.414,5.219-3.622,8.894-3.622c3.208,0,5.814,0.95,7.818,2.845c1.192,1.121,2.087,2.73,2.684,4.83l-5.243,1.254
			c-0.31-1.361-0.957-2.433-1.94-3.22c-0.985-0.788-2.18-1.183-3.587-1.183c-1.945,0-3.523,0.7-4.733,2.096
			c-1.211,1.393-1.815,3.653-1.815,6.779c0,3.318,0.596,5.68,1.788,7.084c1.194,1.41,2.744,2.113,4.653,2.113
			c1.408,0,2.618-0.447,3.631-1.342C97.953,85.166,98.68,83.756,99.122,81.837z"/>
		<path d="M108.641,91.479V65.25h5.295v26.229H108.641z"/>
		<path d="M142.634,91.479h-5.761l-2.29-5.957h-10.486l-2.164,5.957h-5.619l10.217-26.229h5.6L142.634,91.479z M132.882,81.104
			l-3.613-9.734l-3.542,9.734H132.882z"/>
		<path d="M144.102,82.946l5.154-0.501c0.31,1.729,0.939,2.999,1.887,3.809c0.949,0.813,2.229,1.218,3.839,1.218
			c1.705,0,2.99-0.358,3.854-1.082c0.865-0.721,1.297-1.564,1.297-2.531c0-0.619-0.182-1.147-0.546-1.585
			c-0.363-0.435-0.998-0.813-1.905-1.134c-0.62-0.219-2.034-0.598-4.24-1.147c-2.839-0.703-4.831-1.568-5.977-2.595
			c-1.61-1.441-2.415-3.2-2.415-5.277c0-1.334,0.379-2.584,1.136-3.748c0.758-1.163,1.85-2.05,3.275-2.656
			c1.426-0.609,3.146-0.914,5.162-0.914c3.293,0,5.771,0.723,7.435,2.164c1.663,1.445,2.538,3.373,2.621,5.779l-5.296,0.233
			c-0.227-1.347-0.712-2.316-1.458-2.906c-0.745-0.592-1.864-0.887-3.354-0.887c-1.539,0-2.743,0.317-3.615,0.949
			c-0.561,0.405-0.841,0.949-0.841,1.625c0,0.622,0.262,1.154,0.787,1.594c0.669,0.561,2.29,1.147,4.867,1.752
			c2.577,0.609,4.481,1.237,5.716,1.889c1.236,0.651,2.201,1.539,2.899,2.666c0.698,1.127,1.046,2.521,1.046,4.178
			c0,1.505-0.418,2.911-1.252,4.223c-0.835,1.31-2.017,2.286-3.542,2.925c-1.527,0.637-3.43,0.957-5.708,0.957
			c-3.317,0-5.863-0.767-7.64-2.299C145.509,88.112,144.449,85.879,144.102,82.946z"/>
		<path d="M202.358,91.479h-5.761l-2.29-5.957h-10.486l-2.164,5.957h-5.619l10.218-26.229h5.599L202.358,91.479z M192.606,81.104
			l-3.613-9.734l-3.542,9.734H192.606z"/>
		<path d="M206.098,77.504v-5.027h5.029v5.027H206.098z M206.098,91.479v-5.027h5.029v5.027H206.098z"/>
	</g>
	<g>
		<path d="M413.59,16.908h5.4c3.051,0,5.513,0.718,7.384,2.151c1.869,1.435,2.805,3.297,2.805,5.589c0,2.308-0.988,4.24-2.964,5.801
			c-1.976,1.562-4.976,2.321-8.997,2.279v11.053h-3.628V16.908z M417.219,20.114v9.408c2.756-0.027,4.799-0.417,6.129-1.171
			c1.328-0.752,1.992-1.958,1.992-3.617c0-1.252-0.503-2.336-1.508-3.249C422.826,20.572,420.622,20.114,417.219,20.114z"/>
		<path d="M439.745,26.378v3.586c0.816-1.434,1.615-2.47,2.396-3.112c0.779-0.639,1.796-0.959,3.047-0.959
			c0.351,0,0.858,0.085,1.519,0.253l-1.117,3.67c-0.703-0.14-1.168-0.211-1.393-0.211c-1.237,0-2.274,0.433-3.111,1.298
			c-0.836,0.865-1.255,1.943-1.255,3.237v9.641h-3.67V26.378H439.745z"/>
		<path d="M449.889,35.006c0-2.376,0.938-4.49,2.815-6.34c1.877-1.848,4.033-2.773,6.466-2.773c2.502,0,4.69,0.911,6.562,2.731
			c1.869,1.822,2.805,3.949,2.805,6.382c0,2.447-0.918,4.603-2.753,6.465c-1.835,1.863-3.955,2.796-6.36,2.796
			c-2.572,0-4.806-0.922-6.698-2.765C450.833,39.661,449.889,37.496,449.889,35.006z M464.992,35.018
			c0-1.48-0.563-2.765-1.688-3.858c-1.126-1.091-2.462-1.637-4.009-1.637c-1.589,0-2.956,0.552-4.103,1.659
			c-1.147,1.106-1.718,2.428-1.718,3.963c0,1.466,0.58,2.747,1.739,3.847c1.16,1.098,2.521,1.647,4.082,1.647
			c1.52,0,2.848-0.562,3.988-1.689C464.422,37.821,464.992,36.511,464.992,35.018z"/>
		<path d="M472.161,26.378h4.164l6.312,9.454l4.366-9.454h3.785l-11.755,25.566H475.2l5.747-12.447L472.161,26.378z"/>
		<path d="M513.08,35.787h-14.849c0.321,1.786,1.058,3.09,2.204,3.913c1.146,0.823,2.394,1.234,3.743,1.234
			c2.081,0,3.825-0.865,5.231-2.595l2.679,2.025c-2.011,2.603-4.704,3.903-8.079,3.903c-2.589,0-4.754-0.886-6.497-2.658
			c-1.745-1.772-2.615-3.974-2.615-6.604c0-2.46,0.882-4.595,2.646-6.403c1.765-1.806,3.921-2.71,6.465-2.71
			c2.503,0,4.648,0.917,6.434,2.752C512.229,30.482,513.109,32.862,513.08,35.787z M498.61,32.855h10.632
			c-1.182-2.391-2.926-3.586-5.232-3.586C501.492,29.27,499.694,30.464,498.61,32.855z"/>
		<path d="M532.042,38.465v4.199c-1.868,1.069-3.684,1.604-5.443,1.604c-2.403,0-4.511-0.904-6.315-2.711
			c-1.807-1.808-2.712-3.899-2.712-6.276c0-2.7,0.9-4.939,2.699-6.719c1.802-1.778,4.059-2.668,6.772-2.668
			c1.617,0,3.283,0.421,4.999,1.265v4.093c-1.841-1.181-3.586-1.772-5.229-1.772c-1.52,0-2.85,0.535-3.99,1.604
			c-1.137,1.069-1.708,2.319-1.708,3.754c0,1.616,0.535,2.979,1.604,4.082c1.07,1.104,2.376,1.655,3.923,1.655
			C528.219,40.574,530.018,39.871,532.042,38.465z"/>
		<path d="M538.474,21.317h3.67v5.061h3.628v3.354h-3.628v14.049h-3.67V29.732h-2.891v-3.396h2.891V21.317z"/>
		<path d="M549.714,35.006c0-2.376,0.938-4.49,2.814-6.34c1.877-1.848,4.035-2.773,6.467-2.773c2.502,0,4.691,0.911,6.561,2.731
			c1.868,1.822,2.806,3.949,2.806,6.382c0,2.447-0.919,4.603-2.754,6.465c-1.835,1.863-3.954,2.796-6.359,2.796
			c-2.573,0-4.807-0.922-6.697-2.765C550.657,39.661,549.714,37.496,549.714,35.006z M564.817,35.018
			c0-1.48-0.564-2.765-1.688-3.858c-1.127-1.091-2.463-1.637-4.009-1.637c-1.589,0-2.957,0.552-4.103,1.659
			c-1.146,1.106-1.719,2.428-1.719,3.963c0,1.466,0.581,2.747,1.738,3.847c1.161,1.098,2.522,1.647,4.083,1.647
			c1.519,0,2.847-0.562,3.988-1.689C564.246,37.821,564.817,36.511,564.817,35.018z"/>
		<path d="M602.169,16.401h3.628v27.38h-3.585v-3.628c-1.733,2.742-4.001,4.114-6.801,4.114c-2.268,0-4.213-0.907-5.832-2.723
			c-1.62-1.813-2.43-3.992-2.43-6.538c0-2.49,0.823-4.631,2.472-6.424c1.647-1.793,3.612-2.689,5.894-2.689
			c1.366,0,2.641,0.379,3.822,1.139c1.184,0.759,2.127,1.75,2.832,2.974V16.401z M602.592,35.048c0-1.562-0.573-2.914-1.712-4.061
			c-1.143-1.146-2.5-1.718-4.079-1.718c-1.635,0-3.019,0.558-4.152,1.676c-1.134,1.117-1.701,2.486-1.701,4.103
			c0,1.547,0.578,2.901,1.731,4.061c1.157,1.161,2.502,1.741,4.038,1.741c1.632,0,3.021-0.562,4.163-1.688
			C602.019,38.036,602.592,36.666,602.592,35.048z"/>
		<path d="M630.475,35.787h-14.85c0.322,1.786,1.058,3.09,2.203,3.913s2.394,1.234,3.744,1.234c2.081,0,3.826-0.865,5.232-2.595
			l2.678,2.025c-2.011,2.603-4.703,3.903-8.079,3.903c-2.588,0-4.753-0.886-6.496-2.658c-1.744-1.772-2.615-3.974-2.615-6.604
			c0-2.46,0.884-4.595,2.646-6.403c1.765-1.806,3.923-2.71,6.466-2.71c2.502,0,4.648,0.917,6.433,2.752
			C629.623,30.482,630.503,32.862,630.475,35.787z M616.003,32.855h10.631c-1.18-2.391-2.924-3.586-5.23-3.586
			C618.886,29.27,617.087,30.464,616.003,32.855z"/>
		<path d="M422.756,62.313l12.688,27.906h-3.846l-3.12-6.877h-11.404l-3.083,6.877h-3.819L422.756,62.313z M422.747,70.7
			l-4.299,9.586h8.645L422.747,70.7z"/>
		<path d="M444.28,72.817v3.501c1.756-2.658,4.002-3.986,6.741-3.986c2.247,0,4.182,0.896,5.803,2.689
			c1.622,1.792,2.433,3.934,2.433,6.424c0,2.516-0.821,4.689-2.463,6.516c-1.644,1.829-3.582,2.744-5.815,2.744
			c-1.292,0-2.532-0.338-3.717-1.013c-1.187-0.675-2.167-1.653-2.94-2.933v11.622h-3.669V72.817H444.28z M455.418,81.446
			c0-1.533-0.577-2.873-1.727-4.02c-1.151-1.145-2.506-1.719-4.063-1.719c-1.586,0-2.959,0.569-4.118,1.709
			c-1.158,1.139-1.736,2.481-1.736,4.029c0,1.588,0.572,2.967,1.715,4.135c1.146,1.168,2.496,1.75,4.054,1.75
			c1.615,0,2.997-0.576,4.148-1.73C454.842,84.448,455.418,83.063,455.418,81.446z"/>
		<path d="M464.698,81.446c0-2.377,0.938-4.491,2.815-6.34c1.877-1.848,4.033-2.773,6.465-2.773c2.502,0,4.691,0.91,6.562,2.731
			c1.869,1.822,2.805,3.949,2.805,6.382c0,2.445-0.918,4.604-2.753,6.464c-1.835,1.863-3.956,2.796-6.361,2.796
			c-2.572,0-4.805-0.921-6.697-2.764S464.698,83.934,464.698,81.446z M479.801,81.456c0-1.48-0.563-2.764-1.688-3.857
			c-1.125-1.091-2.461-1.637-4.008-1.637c-1.589,0-2.957,0.552-4.103,1.658c-1.146,1.107-1.718,2.429-1.718,3.963
			c0,1.466,0.58,2.749,1.739,3.849c1.16,1.098,2.521,1.646,4.082,1.646c1.519,0,2.847-0.563,3.987-1.689
			C479.231,84.261,479.801,82.95,479.801,81.456z"/>
		<path d="M486.968,72.817h4.164l6.311,9.454l4.365-9.454h3.786l-11.756,25.565h-3.833l5.747-12.446L486.968,72.817z"/>
		<path d="M509.115,81.446c0-2.377,0.938-4.491,2.815-6.34c1.876-1.848,4.031-2.773,6.465-2.773c2.502,0,4.689,0.91,6.561,2.731
			c1.869,1.822,2.807,3.949,2.807,6.382c0,2.445-0.919,4.604-2.754,6.464c-1.835,1.863-3.955,2.796-6.36,2.796
			c-2.572,0-4.806-0.921-6.696-2.764C510.06,86.1,509.115,83.934,509.115,81.446z M524.22,81.456c0-1.48-0.565-2.764-1.689-3.857
			c-1.125-1.091-2.461-1.637-4.008-1.637c-1.589,0-2.957,0.552-4.103,1.658c-1.147,1.107-1.719,2.429-1.719,3.963
			c0,1.466,0.581,2.749,1.739,3.849c1.159,1.098,2.521,1.646,4.082,1.646c1.519,0,2.847-0.563,3.987-1.689
			C523.648,84.261,524.22,82.95,524.22,81.456z"/>
		<path d="M561.635,72.817h3.67V90.22h-3.67v-3.459c-1.784,2.63-4,3.945-6.645,3.945c-2.294,0-4.251-0.9-5.873-2.699
			c-1.625-1.801-2.438-3.988-2.438-6.561c0-2.434,0.82-4.56,2.458-6.382c1.639-1.821,3.56-2.731,5.77-2.731
			c1.364,0,2.658,0.373,3.88,1.118c1.225,0.745,2.176,1.717,2.849,2.911V72.817z M562.142,81.572c0-1.589-0.57-2.95-1.713-4.082
			c-1.142-1.132-2.506-1.698-4.098-1.698c-1.551,0-2.903,0.563-4.059,1.688c-1.157,1.124-1.733,2.445-1.733,3.966
			c0,1.645,0.565,3.045,1.69,4.196c1.126,1.153,2.494,1.731,4.102,1.731c1.592,0,2.956-0.573,4.098-1.722
			C561.571,84.509,562.142,83.146,562.142,81.572z"/>
		<path d="M586.603,62.84h3.673v27.38h-3.673V62.84z"/>
		<path d="M611.915,72.817h3.67V90.22h-3.67v-3.459c-1.785,2.63-4.002,3.945-6.645,3.945c-2.294,0-4.251-0.9-5.875-2.699
			c-1.625-1.801-2.438-3.988-2.438-6.561c0-2.434,0.822-4.56,2.459-6.382c1.638-1.821,3.561-2.731,5.771-2.731
			c1.363,0,2.658,0.373,3.88,1.118c1.224,0.745,2.173,1.717,2.849,2.911V72.817z M612.422,81.572c0-1.589-0.573-2.95-1.713-4.082
			c-1.142-1.132-2.508-1.698-4.099-1.698c-1.551,0-2.902,0.563-4.059,1.688c-1.156,1.124-1.732,2.445-1.732,3.966
			c0,1.645,0.563,3.045,1.69,4.196c1.126,1.153,2.494,1.731,4.101,1.731c1.591,0,2.957-0.573,4.099-1.722
			C611.849,84.509,612.422,83.146,612.422,81.572z"/>
		<path d="M412.768,109.787h6.52c5.16,0,8.999,1.362,11.518,4.091c2.517,2.729,3.775,5.843,3.775,9.345
			c0,3.529-1.3,6.652-3.903,9.364c-2.601,2.715-6.385,4.072-11.347,4.072h-6.562V109.787z M416.438,113.372v19.66h0.212
			c2.728,0,4.78-0.125,6.16-0.369c1.377-0.246,2.686-0.785,3.923-1.614c1.237-0.831,2.222-1.931,2.953-3.302
			c0.732-1.369,1.097-2.878,1.097-4.524c0-2.065-0.583-3.937-1.749-5.611c-1.168-1.675-2.564-2.798-4.189-3.375
			c-1.625-0.575-3.806-0.864-6.55-0.864H416.438z"/>
		<path d="M462.232,110.714v4.155c-2.897-1.419-5.562-2.13-7.995-2.13c-3.123,0-5.753,1.008-7.89,3.023
			c-2.138,2.018-3.207,4.493-3.207,7.428c0,2.992,1.093,5.49,3.279,7.492c2.187,2.003,4.926,3.004,8.217,3.004
			c2.391,0,4.922-0.753,7.595-2.259v4.198c-2.435,1.294-5.071,1.941-7.911,1.941c-4.163,0-7.721-1.41-10.673-4.227
			c-2.954-2.818-4.43-6.215-4.43-10.192c0-3.906,1.451-7.25,4.355-10.032s6.402-4.175,10.495-4.175
			C456.698,108.941,459.419,109.532,462.232,110.714z"/>
		<path d="M468.219,109.787h3.628v26.872h-3.628V109.787z"/>
	</g>
	<g>
		<g>
			<path d="M794.354,42.316v4.156c-2.896-1.418-5.561-2.131-7.994-2.131c-3.123,0-5.754,1.011-7.89,3.025
				c-2.139,2.015-3.206,4.493-3.206,7.428c0,2.994,1.094,5.491,3.279,7.493c2.188,2.002,4.926,3.003,8.217,3.003
				c2.39,0,4.921-0.755,7.594-2.258v4.198c-2.434,1.292-5.07,1.94-7.911,1.94c-4.161,0-7.72-1.409-10.672-4.228
				c-2.955-2.818-4.431-6.213-4.431-10.191c0-3.907,1.451-7.25,4.356-10.033c2.902-2.782,6.402-4.175,10.493-4.175
				C788.82,40.544,791.542,41.133,794.354,42.316z"/>
			<path d="M799.078,59.487c0-2.377,0.938-4.489,2.814-6.339c1.877-1.849,4.032-2.773,6.467-2.773c2.502,0,4.689,0.911,6.56,2.731
				c1.869,1.82,2.807,3.949,2.807,6.381c0,2.446-0.919,4.603-2.755,6.466c-1.834,1.862-3.953,2.795-6.359,2.795
				c-2.571,0-4.806-0.923-6.696-2.766C800.022,64.143,799.078,61.975,799.078,59.487z M814.183,59.497
				c0-1.48-0.565-2.763-1.689-3.858c-1.125-1.092-2.461-1.636-4.007-1.636c-1.59,0-2.958,0.55-4.104,1.659
				c-1.147,1.104-1.719,2.426-1.719,3.961c0,1.467,0.579,2.747,1.739,3.848c1.159,1.098,2.521,1.646,4.083,1.646
				c1.518,0,2.846-0.56,3.987-1.688C813.611,62.302,814.183,60.991,814.183,59.497z"/>
			<path d="M822.658,68.263V50.858h3.585v2.893c1.055-1.169,2.012-2.021,2.869-2.565c0.857-0.541,1.813-0.81,2.868-0.81
				c1.575,0,2.92,0.518,4.04,1.562c1.118,1.04,1.678,2.29,1.678,3.754v12.572h-3.67V56.766c0-0.942-0.307-1.723-0.92-2.341
				c-0.611-0.619-1.389-0.93-2.33-0.93c-1.224,0-2.277,0.518-3.162,1.552c-0.888,1.033-1.33,2.28-1.33,3.745v9.472H822.658z"/>
			<path d="M874.923,60.268h-14.85c0.322,1.785,1.058,3.09,2.203,3.913c1.146,0.823,2.395,1.234,3.744,1.234
				c2.082,0,3.826-0.865,5.232-2.595l2.679,2.024c-2.012,2.601-4.704,3.903-8.078,3.903c-2.589,0-4.755-0.888-6.497-2.66
				c-1.745-1.771-2.616-3.971-2.616-6.602c0-2.462,0.884-4.597,2.646-6.404c1.766-1.805,3.923-2.708,6.468-2.708
				c2.502,0,4.646,0.917,6.431,2.75C874.071,54.962,874.951,57.343,874.923,60.268z M860.452,57.336h10.631
				c-1.18-2.391-2.925-3.586-5.229-3.586C863.335,53.75,861.536,54.946,860.452,57.336z"/>
			<path d="M881.333,40.88h3.67v27.383h-3.67V40.88z"/>
			<path d="M786.929,97.297h3.67v17.406h-3.67v-3.462c-1.784,2.633-4.001,3.946-6.645,3.946c-2.293,0-4.25-0.899-5.873-2.702
				c-1.625-1.801-2.438-3.986-2.438-6.559c0-2.434,0.818-4.561,2.457-6.382s3.561-2.73,5.77-2.73c1.364,0,2.658,0.372,3.883,1.118
				c1.222,0.744,2.173,1.717,2.846,2.908V97.297z M787.437,106.054c0-1.592-0.571-2.951-1.713-4.083
				c-1.143-1.134-2.506-1.696-4.1-1.696c-1.55,0-2.902,0.561-4.056,1.688c-1.158,1.124-1.735,2.443-1.735,3.964
				c0,1.645,0.565,3.045,1.693,4.199c1.123,1.151,2.492,1.729,4.098,1.729c1.594,0,2.957-0.573,4.1-1.721
				C786.865,108.987,787.437,107.628,787.437,106.054z"/>
			<path d="M801.923,97.297v3.502c1.757-2.656,4.002-3.984,6.742-3.984c2.246,0,4.182,0.894,5.804,2.688
				c1.62,1.791,2.432,3.932,2.432,6.424c0,2.516-0.821,4.689-2.464,6.517s-3.58,2.744-5.813,2.744c-1.295,0-2.532-0.341-3.719-1.014
				c-1.188-0.673-2.167-1.652-2.938-2.933v11.625h-3.672V97.297H801.923z M813.063,105.927c0-1.532-0.577-2.875-1.727-4.021
				c-1.151-1.144-2.506-1.717-4.064-1.717c-1.585,0-2.959,0.567-4.116,1.707c-1.159,1.14-1.737,2.481-1.737,4.03
				c0,1.587,0.573,2.967,1.715,4.133c1.146,1.17,2.496,1.753,4.055,1.753c1.614,0,2.997-0.577,4.148-1.729
				C812.485,108.93,813.063,107.544,813.063,105.927z"/>
			<path d="M822.341,105.927c0-2.378,0.938-4.489,2.814-6.34c1.877-1.85,4.035-2.772,6.467-2.772c2.502,0,4.691,0.909,6.56,2.73
				c1.87,1.821,2.808,3.948,2.808,6.382c0,2.446-0.92,4.604-2.755,6.467c-1.835,1.86-3.954,2.794-6.36,2.794
				c-2.571,0-4.805-0.923-6.696-2.767C823.285,110.582,822.341,108.415,822.341,105.927z M837.445,105.937
				c0-1.48-0.565-2.764-1.688-3.857c-1.126-1.092-2.462-1.637-4.009-1.637c-1.589,0-2.956,0.551-4.103,1.658
				c-1.146,1.104-1.719,2.426-1.719,3.963c0,1.466,0.581,2.746,1.741,3.848c1.157,1.098,2.52,1.645,4.08,1.645
				c1.519,0,2.847-0.559,3.989-1.687C836.874,108.741,837.445,107.429,837.445,105.937z"/>
			<path d="M844.612,97.297h4.165l6.312,9.455l4.365-9.455h3.786l-11.757,25.569h-3.832l5.747-12.45L844.612,97.297z"/>
			<path d="M866.76,105.927c0-2.378,0.939-4.489,2.816-6.34c1.877-1.85,4.032-2.772,6.465-2.772c2.504,0,4.691,0.909,6.562,2.73
				c1.869,1.821,2.805,3.948,2.805,6.382c0,2.446-0.917,4.604-2.753,6.467c-1.834,1.86-3.955,2.794-6.359,2.794
				c-2.571,0-4.806-0.923-6.698-2.767C867.706,110.582,866.76,108.415,866.76,105.927z M881.864,105.937
				c0-1.48-0.563-2.764-1.688-3.857c-1.125-1.092-2.461-1.637-4.011-1.637c-1.588,0-2.954,0.551-4.102,1.658
				c-1.146,1.104-1.717,2.426-1.717,3.963c0,1.466,0.579,2.746,1.739,3.848c1.159,1.098,2.521,1.645,4.079,1.645
				c1.521,0,2.85-0.559,3.988-1.687C881.295,108.741,881.864,107.429,881.864,105.937z"/>
			<path d="M919.216,87.319h3.627v27.384h-3.586v-3.63c-1.73,2.74-3.998,4.114-6.801,4.114c-2.268,0-4.21-0.907-5.83-2.724
				c-1.62-1.813-2.431-3.991-2.431-6.537c0-2.492,0.825-4.633,2.472-6.424c1.646-1.795,3.612-2.688,5.896-2.688
				c1.364,0,2.639,0.378,3.822,1.138c1.185,0.762,2.126,1.751,2.831,2.973V87.319z M919.638,105.969c0-1.563-0.57-2.917-1.713-4.063
				c-1.142-1.144-2.5-1.717-4.078-1.717c-1.633,0-3.019,0.558-4.152,1.675c-1.134,1.118-1.701,2.488-1.701,4.104
				c0,1.545,0.577,2.899,1.733,4.059c1.155,1.164,2.5,1.743,4.035,1.743c1.634,0,3.021-0.563,4.163-1.688
				C919.067,108.956,919.638,107.585,919.638,105.969z"/>
			<path d="M947.521,106.708h-14.85c0.322,1.785,1.058,3.089,2.205,3.912c1.146,0.823,2.395,1.234,3.742,1.234
				c2.081,0,3.825-0.865,5.231-2.594l2.679,2.024c-2.011,2.601-4.703,3.902-8.078,3.902c-2.588,0-4.754-0.888-6.496-2.66
				c-1.745-1.771-2.617-3.97-2.617-6.601c0-2.462,0.884-4.598,2.648-6.404c1.766-1.805,3.92-2.708,6.465-2.708
				c2.504,0,4.649,0.917,6.434,2.75C946.671,101.401,947.55,103.781,947.521,106.708z M933.052,103.775h10.631
				c-1.182-2.39-2.925-3.586-5.232-3.586C935.935,100.189,934.135,101.386,933.052,103.775z"/>
			<path d="M952.793,102.91c0-0.804,0.276-1.477,0.833-2.027c0.555-0.547,1.227-0.819,2.014-0.819s1.46,0.274,2.015,0.832
				c0.558,0.555,0.833,1.228,0.833,2.015s-0.273,1.458-0.82,2.013c-0.549,0.558-1.225,0.836-2.027,0.836
				c-0.787,0-1.459-0.278-2.014-0.836C953.069,104.368,952.793,103.697,952.793,102.91z M952.793,112.19
				c0-0.803,0.276-1.482,0.833-2.047c0.555-0.559,1.227-0.842,2.014-0.842c0.775,0,1.441,0.285,2.005,0.852
				c0.563,0.571,0.843,1.25,0.843,2.037c0,0.775-0.28,1.442-0.843,2.004c-0.563,0.563-1.229,0.845-2.005,0.845
				c-0.787,0-1.459-0.278-2.014-0.833C953.069,113.649,952.793,112.978,952.793,112.19z"/>
		</g>
	</g>
	
		<line fill="none" stroke="#000000" stroke-width="3.3316" stroke-miterlimit="10" x1="702.296" y1="8.185" x2="702.296" y2="150.818"/>
</g>
</svg>
