<?xml version="1.0" encoding="utf-8"?>
<!-- Generator: Adobe Illustrator 16.0.0, SVG Export Plug-In . SVG Version: 6.00 Build 0)  -->
<!DOCTYPE svg PUBLIC "-//W3C//DTD SVG 1.1//EN" "http://www.w3.org/Graphics/SVG/1.1/DTD/svg11.dtd">
<svg version="1.1" id="Capa_1" xmlns="http://www.w3.org/2000/svg" xmlns:xlink="http://www.w3.org/1999/xlink" x="0px" y="0px"
	 width="1000px" height="159.663px" viewBox="0 -0.663 1000 159.663" enable-background="new 0 -0.663 1000 159.663"
	 xml:space="preserve">
<g>
	<g id="XMLID_10_">
		<g>
			<g id="XMLID_132_">
				<path id="XMLID_144_" d="M105.338,44.062c-0.3,0-0.601,0.201-0.701,0.4l-1.301,3.404l-0.1,0.4l-0.1-0.4l-1.001-3.203
					c0,0,0,0,0-0.101l0,0l0,0c-0.1-0.3-0.401-0.501-0.701-0.501l0,0h-1.602l0,0c-0.4,0.102-0.601,0.301-0.601,0.701
					c0,0.1,0.1,0.2,0.1,0.301l0.2,0.801l-0.801,2.002l-0.201,0.4v-0.4l-1-3.203c0,0,0,0,0-0.101l0,0
					c-0.1-0.3-0.301-0.501-0.601-0.501l0,0h-1.702l0,0c-0.401,0.102-0.701,0.301-0.701,0.701c0,0.1,0.1,0.2,0.1,0.301l2.503,7.308
					c0.1,0.301,0.301,0.501,0.601,0.501c0.301,0,0.601-0.2,0.701-0.501l1.702-4.305l0.2-0.4l0.1,0.4l1.401,4.205
					c0,0.4,0.301,0.601,0.602,0.601c0.3,0,0.6-0.2,0.7-0.501l2.803-7.308c0.1-0.101,0.1-0.201,0.1-0.301
					C105.939,44.462,105.638,44.062,105.338,44.062L105.338,44.062z"/>
				<path id="XMLID_143_" d="M117.352,44.062c-0.3,0-0.601,0.201-0.701,0.4l-1.201,3.404l-0.101,0.4l-0.1-0.4l-1.001-3.203
					c0,0,0,0,0-0.101l0,0c-0.1-0.3-0.4-0.501-0.701-0.501l0,0h-1.602l0,0c-0.4,0.102-0.601,0.301-0.601,0.701c0,0.1,0,0.2,0,0.301
					l0.201,0.7l-0.801,2.003l-0.2,0.4v-0.301l-1.001-3.203c0,0,0,0-0.1-0.101l0,0c-0.1-0.3-0.301-0.501-0.601-0.501l0,0h-1.602l0,0
					c-0.401,0.102-0.701,0.301-0.701,0.701c0,0.1,0.1,0.2,0.1,0.301l2.403,7.208c0.1,0.3,0.4,0.501,0.7,0.501
					c0.301,0,0.601-0.201,0.702-0.501l1.702-4.306l0.2-0.4l0.1,0.4l1.402,4.205c0.1,0.301,0.4,0.501,0.701,0.501
					c0.3,0,0.601-0.2,0.701-0.501l2.803-7.309c0.1-0.1,0.1-0.199,0.1-0.3C117.952,44.462,117.652,44.062,117.352,44.062
					L117.352,44.062z"/>
				<path id="XMLID_142_" d="M125.16,44.062h-5.606c-0.401,0-0.601,0.301-0.601,0.602l0,0l0,0c0,0,0,0.6,0,1.4
					c0,2.003,0,6.107,0,6.107l0,0l0,0c0.1,0.4,0.3,0.602,0.701,0.602l0,0c1.001,0,1.602,0,1.602,0l0,0
					c0.401,0,0.601-0.301,0.601-0.602c0,0.101,0-3.504,0-3.504h2.303c0.301,0,0.601-0.301,0.601-0.601c0-0.4-0.3-0.7-0.601-0.7
					h-2.303v-2.002h3.304c0.401,0,0.701-0.301,0.701-0.701C125.861,44.462,125.46,44.062,125.16,44.062L125.16,44.062z"/>
				<path id="XMLID_141_" d="M116.451,20.136c1.001,1.102,1.101,4.605,3.704,3.203c1.502-0.801,1.502-4.305-0.601-5.506
					c-1.702-1.002-2.603,0.4-3.204,2.002C116.35,19.935,116.35,20.036,116.451,20.136L116.451,20.136z"/>
				<path id="XMLID_140_" d="M112.446,19.635c-1.101,0.901-1.802,3.403-3.804,2.503c-1.602-0.801-1.802-4.005,1.001-5.406
					c1.903-0.9,2.903,0.9,2.903,2.803C112.546,19.435,112.446,19.534,112.446,19.635L112.446,19.635z"/>
				<path id="XMLID_139_" d="M115.049,25.842c1.101-0.101,0.8-1.101,0-1.302c-0.702-0.301-1.802-0.4-2.604-0.4
					c-1.401,0-1.301,1.102-0.601,1.301c0.601,0.201,0.901,0.201,1.402,0.802C113.647,27.043,113.447,26.042,115.049,25.842
					L115.049,25.842z"/>
				<path id="XMLID_138_" d="M120.055,8.122c1.301-2.203,3.704-1.802,4.805-0.701c1.302,1.201,1.501,2.603,1.001,3.604
					c-0.701,1.302-2.402,2.904-3.504,1.402c-0.5-0.701-1.501-1.502-2.102-1.702C119.454,10.224,119.253,9.523,120.055,8.122
					L120.055,8.122z"/>
				<path id="XMLID_137_" d="M125.36,17.933c-0.1-0.4-0.3-0.4-0.3-0.1c0.1,4.104-2.303,8.51-7.509,8.51
					c-1.301,0-0.901,2.102-3.304,1.001c-1.702-1.202-2.703,1.201-4.004-1.302c-0.3-0.701-0.701-1.002-1.201-1.201
					c-5.106-1.302-6.708-8.31-2.203-14.116c0.901,0.6,1.202,0.7,2.203-0.301c0.5-0.501,1.301-1.001,1.801-1.101
					c1.102-0.401,1.702-0.901,0.702-3.004c-0.401-1.001-1.001-1.502-1.702-1.702h-1.702c-0.5,0.2-1.001,0.401-1.402,0.701
					c-1.301,1.102-2.203,2.704-0.601,4.706c-4.605,3.104-5.406,6.908-5.307,10.311c0.101,3.504-0.8,3.204,0.401,6.809
					c0.1,0.3-0.2,0.3-0.3,0.2c-4.806-2.903-7.309-12.214,0.1-17.42c0.2-0.1,0.1-0.3-0.5,0c-6.407,3.405-7.007,10.011-6.007,14.517
					c0.5,2.202-0.2,2.603,0.601,5.406c1.902,5.906,3.604,6.406,5.907,6.607c4.205,0,1.301-2.303,1.502-5.207
					c0-0.199,0.2-0.3,0.3,0.102c2.303,5.205,4.004,9.91,10.012,9.51c3.503-0.5,1.602-2.202,1.301-3.203
					c-2.603-8.609,3.704-10.612,1.902-2.203c-1.202,4.805,2.502,4.305,5.206,2.604C123.959,36.253,127.363,24.44,125.36,17.933
					L125.36,17.933z M115.149,28.244c-0.601,1.502-3.604,1.001-3.704-0.501c0-0.1,0.101-0.1,0.101,0
					c1.401,0.301,2.603,0.501,3.504,0.501C115.149,28.144,115.149,28.144,115.149,28.244L115.149,28.244z"/>
				<path id="XMLID_136_" d="M102.035,39.157c0,0.801-0.701,1.501-1.502,1.501c-0.901,0-1.502-0.7-1.502-1.501
					c0-0.802,0.701-1.502,1.502-1.502C101.333,37.555,102.035,38.255,102.035,39.157L102.035,39.157z M100.533,37.354
					c-1.001,0-1.802,0.801-1.802,1.803c0,1,0.801,1.801,1.802,1.801c1.001,0,1.802-0.801,1.802-1.801
					C102.334,38.056,101.534,37.354,100.533,37.354L100.533,37.354z"/>
				<path id="XMLID_135_" d="M101.033,39.356c0,0.301-0.3,0.4-0.5,0.4c-0.4,0-0.601-0.301-0.601-0.701c0-0.399,0.2-0.7,0.601-0.7
					c0.3,0,0.5,0.2,0.5,0.401h0.3c-0.1-0.401-0.4-0.602-0.801-0.602c-0.5,0-0.901,0.4-0.901,0.9c0,0.501,0.401,0.902,0.901,0.902
					c0.401,0,0.601-0.301,0.701-0.701h-0.2V39.356z"/>
				<path id="XMLID_134_" d="M125.46,41.459c0,0.801-0.701,1.501-1.501,1.501c-0.901,0-1.501-0.7-1.501-1.501s0.7-1.501,1.501-1.501
					C124.86,39.958,125.46,40.658,125.46,41.459L125.46,41.459z M124.059,39.657c-1.001,0-1.802,0.801-1.802,1.802
					s0.801,1.802,1.802,1.802c1.001,0,1.802-0.801,1.802-1.802S124.96,39.657,124.059,39.657L124.059,39.657z"/>
				<path id="XMLID_133_" d="M123.758,41.56h0.301l0.5,0.801h0.3l-0.501-0.801c0.301-0.101,0.501-0.201,0.501-0.501
					c0-0.4-0.2-0.501-0.601-0.501h-0.601v1.702h0.3v-0.7H123.758z M123.758,41.358v-0.5h0.301c0.2,0,0.401,0,0.401,0.2
					c0,0.3-0.201,0.3-0.401,0.3H123.758L123.758,41.358z"/>
			</g>
		</g>
	</g>
	<g id="XMLID_1_">
		<path id="XMLID_9_" fill="#FFFFFF" d="M364.713,34.12c-0.101,0-0.101,0-0.202,0c-0.303-0.605-0.505-1.211-0.807-1.716
			c-1.918-3.734-3.734-7.569-5.651-11.304c-0.404-0.808-1.01-1.514-1.918-1.716c-1.211-0.202-2.321,0-3.533,0
			c0,6.358,0,12.615,0,18.974c1.01,0,1.918,0,3.028,0c0-4.945,0-9.891,0-14.836c0.202,0.201,0.404,0.404,0.505,0.707
			c2.321,4.643,4.643,9.184,6.963,13.826c0.102,0.202,0.304,0.404,0.505,0.404c1.312,0,2.726,0,4.038,0c0-6.46,0-12.717,0-19.075
			c-0.909,0-1.918,0-2.827,0c0,2.522,0,4.945,0,7.367C364.713,29.175,364.713,31.597,364.713,34.12z"/>
		<path id="XMLID_8_" fill="#FFFFFF" d="M390.045,38.358c0-0.303,0-0.505,0-0.808c0-2.825,0-5.753,0-8.579
			c0-0.403,0.101-0.705,0.504-0.705c0.908-0.203,1.716-0.404,2.625-0.606c0.605-0.101,1.11,0,1.715,0c0-0.808,0-1.413,0-2.119
			c0-0.403-0.201-0.605-0.604-0.605c-0.808,0-1.515,0-2.322,0.202c-0.808,0.201-1.514,0.504-2.32,0.807c0-0.303,0-0.706,0-1.009
			c-0.908,0-1.716,0-2.524,0c0,4.44,0,8.982,0,13.423C388.127,38.358,389.035,38.358,390.045,38.358z"/>
		<path id="XMLID_7_" d="M331.408,6.668c0.909,0.303,1.918,0.404,2.826,0.808c3.229,1.21,5.651,3.229,7.267,6.257
			c1.313,2.422,1.816,5.146,1.514,7.871c-0.201,2.423-1.11,4.846-3.028,7.268c1.515,1.917,2.624,4.138,2.928,6.56
			c0.303,2.321,0.201,4.542-0.605,6.762c-0.908,2.522-2.523,4.542-4.643,6.156c-1.816,1.312-3.836,2.22-6.056,2.522l-0.101,0.102
			c-1.313,0-2.624,0-3.936,0c-0.304-0.102-0.505-0.201-0.809-0.201c-2.22-0.404-4.238-1.414-5.954-2.826
			c-2.221-1.816-3.633-4.037-4.44-6.661c-0.201-0.605-0.303-1.312-0.505-1.917c0-1.212,0-2.423,0-3.635c0-0.1,0.101-0.1,0.101-0.201
			c0.304-2.522,1.413-4.643,3.028-6.66c-1.212-1.514-2.221-3.23-2.725-5.148c-0.101-0.504-0.304-1.109-0.404-1.613
			c0-1.313,0-2.625,0-3.836c0.101-0.404,0.202-0.807,0.304-1.211c1.312-4.743,4.237-8.074,8.98-9.689
			c0.809-0.302,1.615-0.403,2.322-0.605C328.785,6.668,330.097,6.668,331.408,6.668z M341.299,19.688
			c-2.221-0.202-7.469,1.413-10.697,4.44c3.128,0.303,5.853,1.413,8.174,3.432C340.593,25.138,341.299,22.514,341.299,19.688z
			 M317.783,19.587c0,0.101-0.101,0.201-0.101,0.303c-0.101,2.624,0.808,5.046,2.221,7.266c0.303,0.404,0.504,0.303,0.808,0
			c1.816-1.514,3.835-2.522,6.155-2.825c0.404-0.101,0.909-0.202,1.515-0.303C325.15,21.403,321.72,19.89,317.783,19.587z
			 M318.691,15.448c-0.201,0.809-0.504,1.514-0.705,2.12c1.917,0.505,3.733,0.808,5.449,1.514c1.715,0.706,3.431,1.614,5.046,2.522
			c0-0.605,0-1.211,0-1.917c0-0.101-0.202-0.303-0.303-0.403c-2.22-1.615-4.642-2.726-7.267-3.432
			C320.206,15.65,319.499,15.55,318.691,15.448z M330.5,21.604c0.102,0,0.102,0,0.202,0c3.027-2.018,6.156-3.431,9.891-3.834
			c0.302,0,0.605-0.202,0.403-0.605c-0.102-0.404-0.303-0.707-0.303-1.111c-0.101-0.706-0.504-0.706-1.11-0.605
			c-0.605,0.202-1.211,0.304-1.816,0.404c-2.523,0.706-4.743,1.816-6.863,3.129c-0.201,0.101-0.302,0.403-0.302,0.605
			C330.398,20.394,330.5,20.999,330.5,21.604z M321.821,36.643c0.302-1.413,0.605-2.826,0.908-4.238c0-0.102,0-0.404-0.102-0.505
			c-0.706-0.505-1.514-1.01-2.321-1.615c-1.412,1.918-2.32,3.936-2.422,6.358C319.197,36.643,320.61,36.643,321.821,36.643z
			 M320.307,44.817c0.808-0.505,1.515-1.109,2.321-1.615c0.102-0.101,0.202-0.303,0.202-0.403c-0.303-1.413-0.605-2.825-0.908-4.239
			c-1.312,0-2.624,0-4.037,0C317.986,40.981,318.794,43.001,320.307,44.817z M337.161,38.56c-0.303,1.414-0.505,2.726-0.808,4.037
			c-0.101,0.404,0,0.505,0.303,0.707c0.605,0.404,1.11,0.807,1.615,1.211c0.403,0.303,0.605,0.303,0.908-0.102
			c0.807-1.109,1.413-2.32,1.715-3.531c0.202-0.707,0.304-1.414,0.404-2.221C339.785,38.56,338.372,38.56,337.161,38.56z
			 M341.198,36.542c0.202-1.717-1.413-5.35-2.423-6.258c-0.807,0.505-1.514,1.11-2.321,1.615c-0.101,0.101-0.201,0.303-0.101,0.403
			c0.303,1.413,0.605,2.825,0.908,4.239C338.474,36.542,339.785,36.542,341.198,36.542z M319.601,13.632
			c3.229,0.707,6.156,1.816,8.881,3.533c0-0.707,0-1.313,0-1.918c0-0.202-0.202-0.505-0.403-0.707
			c-1.918-1.009-3.835-1.816-5.955-2.422c-0.706-0.201-1.211-0.101-1.614,0.504C320.307,12.926,320.004,13.229,319.601,13.632z
			 M339.18,13.733c-0.808-1.615-1.313-1.918-2.927-1.313h-0.102c-1.816,0.605-3.633,1.211-5.349,2.321
			c-0.101,0.101-0.303,0.303-0.303,0.403c0,0.707,0,1.313,0,2.12C333.226,15.448,336.051,14.339,339.18,13.733z M324.546,42.193
			c1.413-0.304,2.725-0.606,3.936-0.908c0-0.909,0-1.817,0-2.726c-1.514,0-3.027,0-4.643,0
			C324.041,39.872,324.344,41.083,324.546,42.193z M330.5,38.56c0,0.908,0,1.816,0,2.726c1.313,0.302,2.624,0.604,4.037,0.908
			c0.201-1.212,0.404-2.422,0.605-3.634C333.527,38.56,332.014,38.56,330.5,38.56z M323.839,36.542c1.716,0,3.23,0,4.643,0
			c0-1.01,0-1.918,0-2.726c-1.211-0.302-2.321-0.505-3.432-0.807c-0.303-0.101-0.504-0.101-0.604,0.202
			C324.243,34.321,324.041,35.432,323.839,36.542z M335.143,36.542c-0.201-1.11-0.404-2.221-0.707-3.33
			c0-0.102-0.302-0.303-0.504-0.202c-1.211,0.302-2.321,0.604-3.533,0.807c0,0.909,0,1.817,0,2.726
			C332.014,36.542,333.527,36.542,335.143,36.542z M328.481,8.485c-2.019,0.202-3.835,0.808-5.45,1.918
			c1.817,0.807,3.634,1.514,5.45,2.321C328.481,11.311,328.481,9.898,328.481,8.485z M335.95,10.403
			c-1.716-1.11-3.432-1.716-5.45-1.918c0,1.413,0,2.725,0,4.137C332.317,11.815,334.033,11.109,335.95,10.403z M330.5,49.056
			c0.102,0,0.102,0.102,0.202,0.102c1.009-1.717,2.12-3.331,3.229-5.146c-1.211-0.404-2.321-0.809-3.432-0.707
			C330.5,45.321,330.5,47.139,330.5,49.056z M328.481,31.899c0-2.02,0-3.936,0-5.854c-0.101,0-0.101-0.102-0.202-0.102
			c-1.009,1.615-2.119,3.331-3.229,5.147C326.362,31.395,327.371,31.698,328.481,31.899z M330.5,26.046c0,2.018,0,3.936,0,5.954
			c1.11-0.302,2.221-0.505,3.33-0.808C332.923,29.275,331.913,27.56,330.5,26.046z M328.481,43.202
			c-1.11,0.304-2.22,0.506-3.331,0.809c0.909,1.917,1.817,3.633,3.331,5.146C328.481,47.139,328.481,45.222,328.481,43.202z
			 M333.226,26.45c0.808,1.311,1.513,2.521,2.32,3.834c0.605-0.404,1.212-0.908,1.918-1.313
			C336.151,27.862,334.84,26.954,333.226,26.45z M325.757,26.45c-1.615,0.504-2.927,1.412-4.238,2.422
			c0.706,0.504,1.312,0.908,1.917,1.412C324.243,28.972,324.949,27.761,325.757,26.45z M337.464,46.229
			c-0.706-0.504-1.313-0.908-1.918-1.311c-0.808,1.311-1.614,2.623-2.422,3.834C334.738,48.147,336.151,47.44,337.464,46.229z
			 M325.858,48.753c-0.809-1.313-1.615-2.523-2.423-3.834c-0.605,0.402-1.11,0.907-1.816,1.412
			C322.931,47.44,324.344,48.147,325.858,48.753z"/>
		<path id="XMLID_6_" d="M422.845,38.156c-0.808,0.102-1.615,0.304-2.423,0.403c-1.009,0.102-2.018,0.203-3.027,0.102
			c-2.321-0.102-4.44-0.808-5.753-2.928c-0.604-0.908-0.807-1.917-0.908-2.926c-0.201-1.313,0-2.624,0.404-3.836
			c0.808-2.22,2.422-3.633,4.743-3.936c1.313-0.201,2.523,0,3.936,0c0-2.22,0-4.44,0-6.762c1.01,0,2.02,0,3.028,0
			C422.845,24.835,422.845,31.495,422.845,38.156z M419.917,36.34c0-0.303,0-0.403,0-0.505c0-2.725-0.101-5.35-0.101-8.074
			c0-0.504-0.303-0.504-0.604-0.504c-0.606,0-1.313,0-1.918,0c-1.413,0-2.927,0.807-3.229,2.422
			c-0.202,0.908-0.304,1.918-0.202,2.928c0.102,1.514,1.01,2.926,2.624,3.33C417.597,36.239,418.707,36.239,419.917,36.34z"/>
		<path id="XMLID_5_" d="M364.713,34.12c0-2.422,0-4.945,0-7.368c0-2.422,0-4.945,0-7.367c0.909,0,1.918,0,2.825,0
			c0,6.358,0,12.716,0,19.075c-1.312,0-2.725,0-4.036,0c-0.201,0-0.404-0.304-0.505-0.404c-2.32-4.643-4.643-9.184-6.963-13.826
			c-0.101-0.202-0.304-0.506-0.505-0.707c0,4.945,0,9.891,0,14.836c-1.01,0-2.02,0-3.028,0c0-6.258,0-12.615,0-18.974
			c1.212,0,2.423-0.101,3.533,0c0.907,0.101,1.513,0.908,1.917,1.716c1.918,3.734,3.734,7.569,5.651,11.304
			c0.303,0.605,0.505,1.11,0.808,1.716C364.511,34.12,364.612,34.12,364.713,34.12z"/>
		<path id="XMLID_4_" d="M404.981,30.083c0-0.303,0-0.506,0-0.707c0.101-1.211-0.505-1.816-1.817-1.918
			c-1.815-0.201-3.632,0.102-5.449,0.404c-0.102,0-0.202,0-0.303,0c0-0.808,0-1.615,0-2.422c2.725-0.404,5.349-0.808,8.073,0
			c1.817,0.504,2.423,1.816,2.423,3.229c0.101,3.028,0,6.056,0,9.083c0,0.403-0.101,0.505-0.605,0.605
			c-2.019,0.303-4.139,0.504-6.157,0.303c-1.412-0.102-2.926-0.201-4.036-1.413c-1.514-1.716-1.615-5.954,1.816-6.862
			c1.816-0.506,3.734-0.605,5.651-0.303C404.78,30.083,404.881,30.083,404.981,30.083z M405.082,32.505
			c-1.514-0.303-2.927-0.202-4.34,0.102c-0.706,0.201-1.412,0.705-1.412,1.312c-0.102,1.009,0.101,1.716,1.009,2.119
			c1.514,0.605,3.129,0.202,4.743,0.403C405.082,35.028,405.082,33.716,405.082,32.505z"/>
		<path id="XMLID_3_" d="M384.394,31.698c0,2.018-0.707,3.733-2.12,5.146c-1.109,1.109-2.422,1.615-3.936,1.816
			s-2.928-0.102-4.34-0.707c-1.816-0.807-2.927-2.32-3.432-4.238c-0.505-2.321-0.404-4.541,1.212-6.561
			c0.907-1.109,2.119-1.816,3.531-2.119c2.02-0.403,4.037-0.403,5.955,0.707c1.716,0.908,2.624,2.32,2.927,4.137
			C384.292,30.485,384.394,31.092,384.394,31.698z M373.493,31.798c-0.101,0.908,0.101,1.816,0.605,2.726
			c0.605,1.11,1.614,1.716,2.927,1.816c1.514,0.101,2.725-0.403,3.532-1.816c0.808-1.614,0.808-3.229,0.303-4.946
			c-0.808-2.522-4.036-3.027-5.752-1.715C373.897,28.872,373.493,30.184,373.493,31.798z"/>
		<path id="XMLID_2_" d="M390.045,38.358c-1.01,0-1.918,0-2.928,0c0-4.44,0-8.881,0-13.423c0.809,0,1.616,0,2.524,0
			c0,0.303,0,0.706,0,1.009c0.807-0.303,1.513-0.605,2.32-0.807c0.706-0.202,1.515-0.202,2.322-0.202
			c0.403,0,0.604,0.202,0.604,0.605c0,0.706,0,1.312,0,2.119c-0.604,0-1.211-0.101-1.715,0c-0.909,0.101-1.717,0.403-2.625,0.606
			c-0.403,0.1-0.504,0.302-0.504,0.705c0,2.826,0,5.754,0,8.579C390.045,37.854,390.045,38.056,390.045,38.358z"/>
	</g>
	<g>
		<path d="M19.289,29.436v-1.332h3.441v3.15c-0.334,0.323-0.819,0.608-1.454,0.854c-0.635,0.246-1.278,0.369-1.929,0.369
			c-0.827,0-1.548-0.173-2.163-0.521c-0.615-0.347-1.077-0.843-1.386-1.488c-0.31-0.646-0.464-1.348-0.464-2.106
			c0-0.823,0.172-1.556,0.518-2.195s0.851-1.131,1.516-1.473c0.507-0.263,1.138-0.394,1.894-0.394c0.981,0,1.748,0.206,2.3,0.617
			c0.552,0.412,0.907,0.981,1.065,1.707l-1.586,0.297c-0.111-0.388-0.321-0.694-0.628-0.919c-0.308-0.226-0.691-0.338-1.151-0.338
			c-0.698,0-1.252,0.222-1.664,0.664c-0.412,0.442-0.618,1.099-0.618,1.969c0,0.938,0.208,1.643,0.625,2.111
			c0.417,0.47,0.964,0.704,1.64,0.704c0.334,0,0.67-0.065,1.006-0.197c0.336-0.131,0.625-0.29,0.866-0.477v-1.004H19.289z"/>
		<path d="M24.208,32.343v-7.907h3.36c0.845,0,1.459,0.071,1.842,0.213c0.383,0.143,0.689,0.395,0.919,0.758
			s0.345,0.778,0.345,1.246c0,0.594-0.174,1.083-0.523,1.47c-0.349,0.387-0.871,0.631-1.564,0.731
			c0.345,0.201,0.63,0.422,0.855,0.663s0.528,0.669,0.909,1.284l0.966,1.542h-1.91l-1.154-1.721c-0.41-0.614-0.69-1.002-0.841-1.162
			c-0.151-0.16-0.311-0.27-0.48-0.329c-0.169-0.06-0.437-0.089-0.804-0.089h-0.324v3.301H24.208z M25.805,27.779h1.181
			c0.766,0,1.244-0.032,1.435-0.097c0.19-0.064,0.339-0.176,0.447-0.334s0.162-0.356,0.162-0.594c0-0.266-0.071-0.48-0.213-0.645
			s-0.342-0.267-0.601-0.311c-0.129-0.018-0.518-0.026-1.165-0.026h-1.246V27.779z"/>
		<path d="M39.312,32.343h-1.737l-0.69-1.796h-3.161l-0.652,1.796h-1.694l3.08-7.907h1.688L39.312,32.343z M36.372,29.215
			l-1.089-2.935l-1.068,2.935H36.372z"/>
		<path d="M45.218,29.436l1.548,0.491c-0.237,0.863-0.632,1.504-1.184,1.923c-0.552,0.419-1.252,0.628-2.101,0.628
			c-1.05,0-1.913-0.358-2.589-1.076c-0.676-0.717-1.014-1.697-1.014-2.942c0-1.315,0.339-2.338,1.019-3.066
			c0.68-0.728,1.573-1.092,2.681-1.092c0.967,0,1.753,0.286,2.357,0.857c0.359,0.338,0.629,0.823,0.809,1.456l-1.581,0.378
			c-0.093-0.41-0.289-0.733-0.585-0.971c-0.297-0.237-0.657-0.356-1.082-0.356c-0.586,0-1.062,0.211-1.427,0.632
			c-0.365,0.42-0.547,1.102-0.547,2.044c0,1,0.18,1.712,0.539,2.136c0.36,0.425,0.827,0.637,1.403,0.637
			c0.424,0,0.789-0.135,1.095-0.404S45.084,30.015,45.218,29.436z"/>
		<path d="M48.087,32.343v-7.907h1.596v7.907H48.087z"/>
		<path d="M58.335,32.343h-1.737l-0.69-1.796h-3.161l-0.652,1.796h-1.694l3.08-7.907h1.688L58.335,32.343z M55.396,29.215
			l-1.089-2.935l-1.068,2.935H55.396z"/>
		<path d="M58.778,29.771l1.554-0.151c0.093,0.521,0.283,0.904,0.569,1.148c0.286,0.245,0.672,0.367,1.157,0.367
			c0.514,0,0.901-0.108,1.162-0.326s0.391-0.472,0.391-0.764c0-0.187-0.055-0.346-0.165-0.478c-0.109-0.131-0.301-0.245-0.574-0.342
			c-0.187-0.065-0.613-0.18-1.278-0.346c-0.856-0.212-1.457-0.473-1.802-0.782c-0.485-0.435-0.728-0.965-0.728-1.591
			c0-0.402,0.114-0.779,0.342-1.13c0.229-0.351,0.558-0.618,0.987-0.801c0.43-0.184,0.948-0.275,1.556-0.275
			c0.993,0,1.74,0.218,2.241,0.652c0.501,0.436,0.765,1.017,0.79,1.742l-1.597,0.07c-0.068-0.406-0.215-0.698-0.439-0.876
			c-0.225-0.179-0.562-0.268-1.011-0.268c-0.464,0-0.827,0.096-1.09,0.286c-0.169,0.122-0.253,0.286-0.253,0.49
			c0,0.188,0.079,0.348,0.237,0.48c0.202,0.169,0.69,0.346,1.467,0.528c0.777,0.184,1.351,0.373,1.723,0.569
			c0.373,0.196,0.664,0.464,0.874,0.804s0.315,0.76,0.315,1.26c0,0.453-0.126,0.877-0.377,1.272
			c-0.252,0.396-0.608,0.689-1.068,0.882c-0.46,0.192-1.034,0.289-1.721,0.289c-1,0-1.768-0.231-2.303-0.693
			C59.202,31.328,58.882,30.654,58.778,29.771z"/>
		<path d="M76.34,32.343h-1.737l-0.69-1.796h-3.161L70.1,32.343h-1.694l3.08-7.907h1.688L76.34,32.343z M73.4,29.215l-1.089-2.935
			l-1.068,2.935H73.4z"/>
		<path d="M77.468,28.13v-1.516h1.516v1.516H77.468z M77.468,32.343v-1.516h1.516v1.516H77.468z"/>
	</g>
	<g>
		<path d="M140.021,9.862h1.628c0.92,0,1.662,0.216,2.226,0.648c0.563,0.433,0.846,0.994,0.846,1.685
			c0,0.696-0.298,1.278-0.894,1.749s-1.5,0.7-2.712,0.687v3.332h-1.094V9.862z M141.114,10.828v2.836
			c0.831-0.008,1.447-0.126,1.848-0.353c0.4-0.227,0.601-0.59,0.601-1.09c0-0.377-0.151-0.704-0.455-0.979
			S142.14,10.828,141.114,10.828z"/>
		<path d="M147.905,12.717v1.081c0.246-0.432,0.487-0.745,0.722-0.938c0.235-0.193,0.542-0.289,0.918-0.289
			c0.106,0,0.259,0.025,0.458,0.076l-0.337,1.106c-0.212-0.042-0.352-0.063-0.42-0.063c-0.373,0-0.686,0.13-0.938,0.391
			c-0.252,0.261-0.378,0.586-0.378,0.976v2.906h-1.106v-5.247H147.905z"/>
		<path d="M150.963,15.318c0-0.716,0.283-1.354,0.849-1.911c0.566-0.557,1.216-0.836,1.949-0.836c0.754,0,1.414,0.274,1.978,0.823
			c0.563,0.549,0.846,1.19,0.846,1.924c0,0.738-0.277,1.388-0.83,1.949s-1.192,0.843-1.917,0.843c-0.775,0-1.449-0.278-2.019-0.833
			C151.248,16.721,150.963,16.068,150.963,15.318z M155.517,15.321c0-0.446-0.17-0.833-0.509-1.163
			c-0.339-0.329-0.742-0.494-1.208-0.494c-0.479,0-0.891,0.167-1.237,0.5s-0.518,0.732-0.518,1.195c0,0.442,0.175,0.828,0.524,1.16
			c0.35,0.331,0.76,0.497,1.23,0.497c0.458,0,0.858-0.169,1.202-0.509C155.345,16.167,155.517,15.771,155.517,15.321z"/>
		<path d="M157.678,12.717h1.255l1.903,2.85l1.316-2.85h1.141l-3.544,7.708h-1.155l1.732-3.752L157.678,12.717z"/>
		<path d="M170.014,15.553h-4.477c0.097,0.539,0.319,0.932,0.665,1.18c0.345,0.248,0.722,0.372,1.128,0.372
			c0.627,0,1.153-0.261,1.577-0.782l0.808,0.61c-0.606,0.785-1.418,1.177-2.436,1.177c-0.78,0-1.433-0.267-1.958-0.801
			c-0.526-0.534-0.789-1.198-0.789-1.991c0-0.742,0.266-1.385,0.798-1.93c0.532-0.544,1.182-0.817,1.949-0.817
			c0.754,0,1.401,0.276,1.939,0.83C169.757,13.954,170.022,14.671,170.014,15.553z M165.651,14.669h3.205
			c-0.356-0.721-0.882-1.081-1.577-1.081C166.521,13.588,165.978,13.949,165.651,14.669z"/>
		<path d="M175.73,16.361v1.266c-0.563,0.322-1.11,0.483-1.641,0.483c-0.725,0-1.36-0.272-1.904-0.817
			c-0.545-0.545-0.817-1.175-0.817-1.892c0-0.814,0.271-1.489,0.814-2.025c0.542-0.536,1.223-0.804,2.042-0.804
			c0.487,0,0.99,0.127,1.507,0.381v1.234c-0.555-0.356-1.081-0.534-1.577-0.534c-0.458,0-0.859,0.161-1.202,0.483
			s-0.515,0.699-0.515,1.132c0,0.487,0.161,0.898,0.483,1.23c0.322,0.333,0.716,0.499,1.183,0.499
			C174.577,16.997,175.12,16.785,175.73,16.361z"/>
		<path d="M177.669,11.191h1.106v1.526h1.094v1.011h-1.094v4.235h-1.106v-4.235h-0.871v-1.024h0.871V11.191z"/>
		<path d="M181.058,15.318c0-0.716,0.283-1.354,0.849-1.911c0.566-0.557,1.216-0.836,1.949-0.836c0.754,0,1.414,0.274,1.978,0.823
			c0.563,0.549,0.846,1.19,0.846,1.924c0,0.738-0.277,1.388-0.83,1.949s-1.192,0.843-1.917,0.843c-0.775,0-1.449-0.278-2.019-0.833
			C181.342,16.721,181.058,16.068,181.058,15.318z M185.611,15.321c0-0.446-0.17-0.833-0.509-1.163
			c-0.339-0.329-0.742-0.494-1.208-0.494c-0.479,0-0.891,0.167-1.237,0.5s-0.518,0.732-0.518,1.195c0,0.442,0.175,0.828,0.524,1.16
			c0.35,0.331,0.76,0.497,1.23,0.497c0.458,0,0.858-0.169,1.202-0.509C185.439,16.167,185.611,15.771,185.611,15.321z"/>
		<path d="M196.871,9.709h1.094v8.254h-1.081V16.87c-0.522,0.827-1.206,1.24-2.05,1.24c-0.684,0-1.27-0.273-1.758-0.821
			c-0.488-0.547-0.732-1.204-0.732-1.971c0-0.75,0.249-1.396,0.745-1.937s1.089-0.811,1.777-0.811c0.412,0,0.796,0.114,1.152,0.343
			c0.357,0.229,0.641,0.528,0.854,0.896V9.709z M196.999,15.331c0-0.471-0.172-0.878-0.516-1.224
			c-0.344-0.345-0.754-0.518-1.229-0.518c-0.493,0-0.91,0.168-1.252,0.505s-0.513,0.75-0.513,1.237c0,0.466,0.174,0.875,0.522,1.224
			c0.349,0.35,0.754,0.525,1.217,0.525c0.492,0,0.911-0.169,1.255-0.509C196.826,16.231,196.999,15.818,196.999,15.331z"/>
		<path d="M205.404,15.553h-4.477c0.097,0.539,0.319,0.932,0.665,1.18c0.345,0.248,0.722,0.372,1.128,0.372
			c0.627,0,1.153-0.261,1.577-0.782l0.808,0.61c-0.606,0.785-1.418,1.177-2.436,1.177c-0.78,0-1.433-0.267-1.958-0.801
			c-0.526-0.534-0.789-1.198-0.789-1.991c0-0.742,0.266-1.385,0.798-1.93c0.532-0.544,1.182-0.817,1.949-0.817
			c0.754,0,1.401,0.276,1.939,0.83C205.148,13.954,205.413,14.671,205.404,15.553z M201.042,14.669h3.205
			c-0.356-0.721-0.882-1.081-1.577-1.081C201.911,13.588,201.369,13.949,201.042,14.669z"/>
		<path d="M142.784,23.55l3.825,8.413h-1.16l-0.94-2.073h-3.438l-0.929,2.073h-1.151L142.784,23.55z M142.781,26.079l-1.296,2.89
			h2.606L142.781,26.079z"/>
		<path d="M149.272,26.717v1.056c0.529-0.801,1.207-1.202,2.032-1.202c0.677,0,1.261,0.27,1.75,0.811s0.733,1.186,0.733,1.937
			c0,0.759-0.248,1.414-0.743,1.965c-0.496,0.551-1.08,0.827-1.753,0.827c-0.39,0-0.763-0.102-1.121-0.306
			c-0.358-0.203-0.653-0.498-0.886-0.884v3.504h-1.106v-7.708H149.272z M152.63,29.318c0-0.462-0.174-0.866-0.521-1.211
			c-0.347-0.345-0.755-0.518-1.225-0.518c-0.478,0-0.892,0.171-1.241,0.515c-0.349,0.343-0.523,0.748-0.523,1.214
			c0,0.479,0.172,0.895,0.517,1.247c0.345,0.352,0.752,0.528,1.222,0.528c0.487,0,0.903-0.174,1.25-0.521
			C152.457,30.223,152.63,29.806,152.63,29.318z"/>
		<path d="M155.428,29.318c0-0.716,0.283-1.354,0.849-1.911c0.566-0.557,1.216-0.836,1.949-0.836c0.754,0,1.414,0.274,1.978,0.823
			c0.563,0.549,0.846,1.19,0.846,1.924c0,0.738-0.277,1.388-0.83,1.949s-1.192,0.843-1.917,0.843c-0.775,0-1.449-0.278-2.019-0.833
			C155.712,30.721,155.428,30.068,155.428,29.318z M159.981,29.321c0-0.446-0.17-0.833-0.509-1.163
			c-0.339-0.329-0.742-0.494-1.208-0.494c-0.479,0-0.891,0.167-1.237,0.5s-0.518,0.732-0.518,1.195c0,0.442,0.175,0.828,0.524,1.16
			c0.35,0.331,0.76,0.497,1.23,0.497c0.458,0,0.858-0.169,1.202-0.509C159.809,30.167,159.981,29.771,159.981,29.321z"/>
		<path d="M162.142,26.717h1.255l1.903,2.85l1.316-2.85h1.141l-3.544,7.708h-1.155l1.732-3.752L162.142,26.717z"/>
		<path d="M168.818,29.318c0-0.716,0.283-1.354,0.849-1.911c0.566-0.557,1.216-0.836,1.949-0.836c0.754,0,1.414,0.274,1.978,0.823
			c0.563,0.549,0.846,1.19,0.846,1.924c0,0.738-0.277,1.388-0.83,1.949s-1.192,0.843-1.917,0.843c-0.775,0-1.449-0.278-2.019-0.833
			C169.103,30.721,168.818,30.068,168.818,29.318z M173.372,29.321c0-0.446-0.17-0.833-0.509-1.163
			c-0.339-0.329-0.742-0.494-1.208-0.494c-0.479,0-0.891,0.167-1.237,0.5s-0.518,0.732-0.518,1.195c0,0.442,0.175,0.828,0.524,1.16
			c0.35,0.331,0.76,0.497,1.23,0.497c0.458,0,0.858-0.169,1.202-0.509C173.2,30.167,173.372,29.771,173.372,29.321z"/>
		<path d="M184.651,26.717h1.106v5.247h-1.106V30.92c-0.538,0.793-1.206,1.189-2.003,1.189c-0.691,0-1.282-0.271-1.771-0.814
			c-0.49-0.543-0.735-1.202-0.735-1.978c0-0.733,0.247-1.375,0.741-1.924c0.494-0.549,1.073-0.823,1.739-0.823
			c0.411,0,0.801,0.112,1.17,0.337s0.655,0.518,0.858,0.877V26.717z M184.804,29.356c0-0.479-0.172-0.889-0.516-1.23
			c-0.344-0.341-0.756-0.512-1.236-0.512c-0.467,0-0.875,0.169-1.223,0.509c-0.349,0.339-0.522,0.737-0.522,1.195
			c0,0.496,0.17,0.918,0.51,1.266c0.339,0.348,0.751,0.521,1.236,0.521c0.48,0,0.892-0.173,1.236-0.519
			C184.632,30.241,184.804,29.831,184.804,29.356z"/>
		<path d="M192.179,23.709h1.106v8.254h-1.106V23.709z"/>
		<path d="M199.809,26.717h1.106v5.247h-1.106V30.92c-0.538,0.793-1.206,1.189-2.003,1.189c-0.691,0-1.282-0.271-1.771-0.814
			c-0.49-0.543-0.735-1.202-0.735-1.978c0-0.733,0.247-1.375,0.741-1.924c0.494-0.549,1.073-0.823,1.739-0.823
			c0.411,0,0.801,0.112,1.17,0.337s0.655,0.518,0.858,0.877V26.717z M199.962,29.356c0-0.479-0.172-0.889-0.516-1.23
			c-0.344-0.341-0.756-0.512-1.236-0.512c-0.467,0-0.875,0.169-1.223,0.509c-0.349,0.339-0.522,0.737-0.522,1.195
			c0,0.496,0.17,0.918,0.51,1.266c0.339,0.348,0.751,0.521,1.236,0.521c0.48,0,0.892-0.173,1.236-0.519
			C199.79,30.241,199.962,29.831,199.962,29.356z"/>
		<path d="M139.772,37.862h1.965c1.556,0,2.713,0.411,3.472,1.233c0.759,0.823,1.138,1.762,1.138,2.817
			c0,1.064-0.392,2.005-1.177,2.823c-0.784,0.818-1.925,1.228-3.421,1.228h-1.978V37.862z M140.879,38.943v5.927h0.064
			c0.822,0,1.441-0.037,1.857-0.111c0.415-0.074,0.81-0.236,1.183-0.486c0.373-0.25,0.67-0.582,0.89-0.996
			c0.221-0.413,0.331-0.868,0.331-1.364c0-0.623-0.176-1.187-0.527-1.691c-0.352-0.505-0.773-0.844-1.263-1.018
			s-1.147-0.261-1.975-0.261H140.879z"/>
		<path d="M154.685,38.142v1.252c-0.874-0.428-1.677-0.642-2.41-0.642c-0.941,0-1.734,0.304-2.378,0.912
			c-0.645,0.608-0.967,1.354-0.967,2.239c0,0.902,0.33,1.655,0.989,2.259s1.485,0.905,2.477,0.905c0.721,0,1.484-0.227,2.29-0.681
			v1.266c-0.734,0.39-1.529,0.585-2.385,0.585c-1.255,0-2.328-0.425-3.218-1.274c-0.891-0.85-1.335-1.874-1.335-3.073
			c0-1.178,0.438-2.186,1.313-3.024s1.93-1.258,3.164-1.258C153.016,37.607,153.836,37.785,154.685,38.142z"/>
		<path d="M156.489,37.862h1.094v8.102h-1.094V37.862z"/>
	</g>
	<g>
		<g>
			<path d="M254.81,17.521v1.253c-0.874-0.428-1.677-0.643-2.41-0.643c-0.941,0-1.734,0.305-2.378,0.912
				c-0.645,0.607-0.967,1.354-0.967,2.239c0,0.902,0.33,1.655,0.989,2.259s1.485,0.905,2.477,0.905c0.721,0,1.484-0.228,2.29-0.681
				v1.266c-0.734,0.39-1.529,0.585-2.385,0.585c-1.255,0-2.328-0.425-3.218-1.274c-0.891-0.85-1.335-1.873-1.335-3.072
				c0-1.178,0.438-2.186,1.313-3.024s1.93-1.259,3.164-1.259C253.141,16.987,253.961,17.165,254.81,17.521z"/>
			<path d="M256.233,22.698c0-0.717,0.283-1.354,0.849-1.911s1.216-0.836,1.949-0.836c0.754,0,1.414,0.274,1.978,0.823
				c0.563,0.549,0.846,1.19,0.846,1.924c0,0.737-0.277,1.388-0.83,1.949s-1.192,0.843-1.917,0.843c-0.775,0-1.449-0.278-2.019-0.834
				C256.518,24.102,256.233,23.448,256.233,22.698z M260.787,22.701c0-0.446-0.17-0.833-0.509-1.163
				c-0.339-0.329-0.742-0.493-1.208-0.493c-0.479,0-0.891,0.166-1.237,0.5c-0.346,0.333-0.518,0.731-0.518,1.194
				c0,0.442,0.175,0.828,0.524,1.16c0.35,0.331,0.76,0.496,1.23,0.496c0.458,0,0.858-0.169,1.202-0.509
				C260.615,23.547,260.787,23.151,260.787,22.701z"/>
			<path d="M263.342,25.344v-5.247h1.081v0.872c0.318-0.353,0.606-0.609,0.865-0.773c0.259-0.163,0.547-0.244,0.865-0.244
				c0.475,0,0.881,0.156,1.218,0.471c0.337,0.313,0.505,0.69,0.505,1.132v3.79h-1.106v-3.466c0-0.284-0.092-0.52-0.277-0.706
				c-0.184-0.187-0.418-0.28-0.703-0.28c-0.369,0-0.687,0.156-0.954,0.468s-0.401,0.688-0.401,1.129v2.855H263.342z"/>
			<path d="M279.098,22.934h-4.477c0.097,0.538,0.319,0.932,0.665,1.18c0.345,0.248,0.722,0.372,1.128,0.372
				c0.627,0,1.153-0.261,1.577-0.782l0.808,0.61c-0.606,0.784-1.418,1.177-2.436,1.177c-0.78,0-1.433-0.268-1.958-0.802
				c-0.526-0.534-0.789-1.197-0.789-1.99c0-0.742,0.266-1.386,0.798-1.931c0.532-0.544,1.182-0.816,1.949-0.816
				c0.754,0,1.401,0.276,1.939,0.829C278.842,21.334,279.107,22.052,279.098,22.934z M274.736,22.05h3.205
				c-0.356-0.721-0.882-1.081-1.577-1.081C275.605,20.969,275.063,21.329,274.736,22.05z"/>
			<path d="M281.031,17.089h1.106v8.255h-1.106V17.089z"/>
			<path d="M252.571,34.097h1.106v5.247h-1.106v-1.043c-0.538,0.793-1.206,1.189-2.003,1.189c-0.691,0-1.282-0.271-1.771-0.814
				c-0.49-0.543-0.735-1.202-0.735-1.978c0-0.733,0.247-1.375,0.741-1.924c0.494-0.549,1.073-0.823,1.739-0.823
				c0.411,0,0.801,0.112,1.17,0.337s0.655,0.518,0.858,0.877V34.097z M252.724,36.736c0-0.479-0.172-0.89-0.516-1.23
				c-0.344-0.342-0.756-0.512-1.236-0.512c-0.467,0-0.875,0.169-1.223,0.509c-0.349,0.339-0.522,0.737-0.522,1.195
				c0,0.496,0.17,0.918,0.51,1.266c0.339,0.348,0.751,0.521,1.236,0.521c0.48,0,0.892-0.173,1.236-0.519
				C252.551,37.621,252.724,37.211,252.724,36.736z"/>
			<path d="M257.091,34.097v1.056c0.529-0.801,1.207-1.201,2.032-1.201c0.677,0,1.261,0.27,1.75,0.811
				c0.489,0.54,0.733,1.186,0.733,1.937c0,0.759-0.248,1.414-0.743,1.965c-0.496,0.551-1.08,0.827-1.753,0.827
				c-0.39,0-0.763-0.103-1.121-0.306c-0.358-0.203-0.653-0.498-0.886-0.884v3.504h-1.106v-7.708H257.091z M260.449,36.698
				c0-0.462-0.174-0.866-0.521-1.212c-0.347-0.345-0.755-0.518-1.225-0.518c-0.478,0-0.892,0.171-1.241,0.515
				s-0.523,0.748-0.523,1.215c0,0.479,0.172,0.895,0.517,1.246c0.345,0.353,0.752,0.528,1.222,0.528c0.487,0,0.903-0.174,1.25-0.521
				C260.275,37.604,260.449,37.186,260.449,36.698z"/>
			<path d="M263.247,36.698c0-0.717,0.283-1.354,0.849-1.911s1.216-0.836,1.949-0.836c0.754,0,1.414,0.274,1.978,0.823
				c0.563,0.549,0.846,1.19,0.846,1.924c0,0.737-0.277,1.388-0.83,1.949s-1.192,0.843-1.917,0.843c-0.775,0-1.449-0.278-2.019-0.834
				C263.531,38.102,263.247,37.448,263.247,36.698z M267.8,36.701c0-0.446-0.17-0.833-0.509-1.163
				c-0.339-0.329-0.742-0.493-1.208-0.493c-0.479,0-0.891,0.166-1.237,0.5c-0.346,0.333-0.518,0.731-0.518,1.194
				c0,0.442,0.175,0.828,0.524,1.16c0.35,0.331,0.76,0.496,1.23,0.496c0.458,0,0.858-0.169,1.202-0.509
				C267.628,37.547,267.8,37.151,267.8,36.701z"/>
			<path d="M269.961,34.097h1.255l1.903,2.851l1.316-2.851h1.141l-3.544,7.708h-1.155l1.732-3.753L269.961,34.097z"/>
			<path d="M276.638,36.698c0-0.717,0.283-1.354,0.849-1.911s1.216-0.836,1.949-0.836c0.754,0,1.414,0.274,1.978,0.823
				c0.563,0.549,0.846,1.19,0.846,1.924c0,0.737-0.277,1.388-0.83,1.949s-1.192,0.843-1.917,0.843c-0.775,0-1.449-0.278-2.019-0.834
				C276.922,38.102,276.638,37.448,276.638,36.698z M281.191,36.701c0-0.446-0.17-0.833-0.509-1.163
				c-0.339-0.329-0.742-0.493-1.208-0.493c-0.479,0-0.891,0.166-1.237,0.5c-0.346,0.333-0.518,0.731-0.518,1.194
				c0,0.442,0.175,0.828,0.524,1.16c0.35,0.331,0.76,0.496,1.23,0.496c0.458,0,0.858-0.169,1.202-0.509
				C281.019,37.547,281.191,37.151,281.191,36.701z"/>
			<path d="M292.451,31.089h1.094v8.255h-1.081V38.25c-0.522,0.826-1.206,1.24-2.05,1.24c-0.684,0-1.27-0.273-1.758-0.821
				c-0.488-0.547-0.732-1.203-0.732-1.971c0-0.751,0.249-1.396,0.745-1.937c0.497-0.541,1.089-0.811,1.777-0.811
				c0.412,0,0.796,0.114,1.152,0.343c0.357,0.229,0.641,0.528,0.854,0.896V31.089z M292.579,36.711c0-0.471-0.172-0.879-0.516-1.225
				c-0.344-0.345-0.754-0.518-1.229-0.518c-0.493,0-0.91,0.168-1.252,0.505s-0.513,0.75-0.513,1.237
				c0,0.466,0.174,0.874,0.522,1.224c0.349,0.351,0.754,0.525,1.217,0.525c0.492,0,0.911-0.17,1.255-0.509
				C292.406,37.611,292.579,37.198,292.579,36.711z"/>
			<path d="M300.984,36.934h-4.477c0.097,0.538,0.319,0.932,0.665,1.18c0.345,0.248,0.722,0.372,1.128,0.372
				c0.627,0,1.153-0.261,1.577-0.782l0.808,0.61c-0.606,0.784-1.418,1.177-2.436,1.177c-0.78,0-1.433-0.268-1.958-0.802
				c-0.526-0.534-0.789-1.197-0.789-1.99c0-0.742,0.266-1.386,0.798-1.931c0.532-0.544,1.182-0.816,1.949-0.816
				c0.754,0,1.401,0.276,1.939,0.829C300.728,35.334,300.993,36.052,300.984,36.934z M296.622,36.05h3.205
				c-0.356-0.721-0.882-1.081-1.577-1.081C297.491,34.969,296.949,35.329,296.622,36.05z"/>
			<path d="M302.574,35.789c0-0.242,0.083-0.445,0.251-0.611c0.167-0.165,0.37-0.247,0.607-0.247s0.44,0.083,0.607,0.251
				c0.167,0.167,0.251,0.37,0.251,0.607s-0.083,0.439-0.248,0.606c-0.166,0.168-0.369,0.252-0.611,0.252
				c-0.237,0-0.44-0.084-0.607-0.252C302.657,36.229,302.574,36.026,302.574,35.789z M302.574,38.587
				c0-0.242,0.083-0.447,0.251-0.617c0.167-0.169,0.37-0.254,0.607-0.254c0.233,0,0.435,0.086,0.604,0.257
				c0.169,0.172,0.254,0.377,0.254,0.614c0,0.233-0.084,0.435-0.254,0.604c-0.17,0.17-0.371,0.255-0.604,0.255
				c-0.237,0-0.44-0.084-0.607-0.251C302.657,39.026,302.574,38.824,302.574,38.587z"/>
		</g>
	</g>
	
		<line fill="none" stroke="#000000" stroke-width="1.0044" stroke-miterlimit="10" x1="227.057" y1="7.232" x2="227.057" y2="50.231"/>
</g>
</svg>
