<?xml version="1.0" encoding="utf-8"?>
<!-- Generator: Adobe Illustrator 19.0.0, SVG Export Plug-In . SVG Version: 6.00 Build 0)  -->
<svg version="1.1" id="Capa_1" xmlns="http://www.w3.org/2000/svg" xmlns:xlink="http://www.w3.org/1999/xlink" x="0px" y="0px"
	 viewBox="0 0 36 36" style="enable-background:new 0 0 36 36;" xml:space="preserve">
<style type="text/css">
	.st0{fill:#579F32;}
	.st1{fill:#FFFFFF;}
</style>
<circle id="XMLID_45_" class="st0" cx="17.9" cy="18" r="18"/>
<g id="XMLID_17_">
	<path id="XMLID_18_" class="st1" d="M23.1,7.5l-2.7,0c-3,0-5,2-5,5.1v2.4h-2.7c-0.2,0-0.4,0.2-0.4,0.4v3.4c0,0.2,0.2,0.4,0.4,0.4
		h2.7V28c0,0.2,0.2,0.4,0.4,0.4h3.6c0.2,0,0.4-0.2,0.4-0.4v-8.7H23c0.2,0,0.4-0.2,0.4-0.4l0-3.4c0-0.1,0-0.2-0.1-0.3
		c-0.1-0.1-0.2-0.1-0.3-0.1h-3.2v-2c0-1,0.2-1.5,1.5-1.5l1.8,0c0.2,0,0.4-0.2,0.4-0.4V8C23.5,7.7,23.3,7.5,23.1,7.5z"/>
</g>
</svg>
