<?xml version="1.0" encoding="utf-8"?>
<!-- Generator: Adobe Illustrator 19.0.0, SVG Export Plug-In . SVG Version: 6.00 Build 0)  -->
<svg version="1.1" id="Capa_1" xmlns="http://www.w3.org/2000/svg" xmlns:xlink="http://www.w3.org/1999/xlink" x="0px" y="0px"
	 viewBox="0 0 36 36" style="enable-background:new 0 0 36 36;" xml:space="preserve">
<style type="text/css">
	.st0{fill:#EC8B00;}
	.st1{fill:#FFFFFF;}
</style>
<g id="XMLID_417_">
	<circle id="XMLID_449_" class="st0" cx="124" cy="17.9" r="18"/>
	<g id="XMLID_421_">
		<g id="XMLID_422_">
			<path id="XMLID_423_" class="st1" d="M135.6,11.5c-0.8,0.3-1.6,0.6-2.4,0.7c0.9-0.5,1.6-1.4,1.9-2.4c-0.8,0.5-1.7,0.8-2.7,1
				c-0.8-0.8-1.9-1.3-3.1-1.3c-2.3,0-4.3,1.9-4.3,4.3c0,0.3,0,0.7,0.1,1c-3.5-0.2-6.7-1.9-8.8-4.4c-0.4,0.6-0.6,1.4-0.6,2.1
				c0,1.5,0.8,2.8,1.9,3.5c-0.7,0-1.4-0.2-1.9-0.5v0.1c0,2.1,1.5,3.8,3.4,4.2c-0.4,0.1-0.7,0.2-1.1,0.2c-0.3,0-0.5,0-0.8-0.1
				c0.5,1.7,2.1,2.9,4,3c-1.5,1.1-3.3,1.8-5.3,1.8c-0.3,0-0.7,0-1-0.1c1.9,1.2,4.1,1.9,6.5,1.9c7.8,0,12.1-6.5,12.1-12.1l0-0.6
				C134.3,13.1,135,12.3,135.6,11.5z"/>
		</g>
	</g>
</g>
<g id="XMLID_1_">
	<circle id="XMLID_443_" class="st0" cx="18" cy="18" r="18"/>
	<g id="XMLID_418_">
		<path id="Flickr" class="st1" d="M28.4,18c0,2.5-2.1,4.6-4.6,4.6c-2.6,0-4.6-2.1-4.6-4.6c0-2.5,2.1-4.6,4.6-4.6
			C26.3,13.4,28.4,15.5,28.4,18z M12.3,13.4c-2.6,0-4.6,2.1-4.6,4.6c0,2.5,2.1,4.6,4.6,4.6c2.6,0,4.6-2.1,4.6-4.6
			C16.9,15.5,14.8,13.4,12.3,13.4z"/>
	</g>
</g>
<rect id="XMLID_445_" x="-65.1" y="-10.4" class="st0" width="48" height="48"/>
</svg>
