<?xml version="1.0" encoding="utf-8"?>
<!-- Generator: Adobe Illustrator 19.0.0, SVG Export Plug-In . SVG Version: 6.00 Build 0)  -->
<svg version="1.1" id="Capa_1" xmlns="http://www.w3.org/2000/svg" xmlns:xlink="http://www.w3.org/1999/xlink" x="0px" y="0px"
	 viewBox="0 0 20 11" style="enable-background:new 0 0 20 11;" xml:space="preserve">
<style type="text/css">
	.st0{fill:#FE0000;}
	.st1{fill:#3F48CB;}
	.st2{fill:#FFFFFF;}
</style>
<g id="XMLID_343_">
	
		<text id="XMLID_355_" transform="matrix(1 0 0 1 -48.5518 14.4602)" style="fill:#666666; font-family:'OpenSans'; font-size:12px;">Español</text>
</g>
<g id="XMLID_319_">
	<rect id="XMLID_341_" x="0" y="9.7" class="st0" width="20" height="1.3"/>
	<rect id="XMLID_340_" x="0" y="6.7" class="st0" width="20" height="1.3"/>
	<rect id="XMLID_339_" x="0" y="3.4" class="st0" width="20" height="1.3"/>
	<rect id="XMLID_338_" x="0" y="0" class="st0" width="20" height="1.3"/>
	<rect id="XMLID_337_" x="0" y="0" class="st1" width="8.2" height="7.6"/>
	<polygon id="XMLID_336_" class="st2" points="0.9,1.3 1,1.6 1.3,1.7 1.1,1.9 1.2,2.3 0.9,2.1 0.7,2.3 0.7,1.9 0.5,1.7 0.8,1.6 	"/>
	<polygon id="XMLID_335_" class="st2" points="0.9,3.2 1,3.5 1.3,3.5 1.1,3.8 1.2,4.2 0.9,4 0.7,4.2 0.7,3.8 0.5,3.5 0.8,3.5 	"/>
	<polygon id="XMLID_334_" class="st2" points="0.9,5 1,5.4 1.3,5.4 1.1,5.7 1.2,6 0.9,5.9 0.7,6 0.7,5.7 0.5,5.4 0.8,5.4 	"/>
	<polygon id="XMLID_333_" class="st2" points="3.9,1.3 4,1.6 4.3,1.7 4.1,1.9 4.2,2.3 3.9,2.1 3.7,2.3 3.7,1.9 3.5,1.7 3.8,1.6 	"/>
	<polygon id="XMLID_332_" class="st2" points="3.9,3.2 4,3.5 4.3,3.5 4.1,3.8 4.2,4.2 3.9,4 3.7,4.2 3.7,3.8 3.5,3.5 3.8,3.5 	"/>
	<polygon id="XMLID_331_" class="st2" points="2.4,2.4 2.5,2.7 2.8,2.7 2.6,3 2.7,3.3 2.4,3.2 2.2,3.3 2.2,3 2,2.7 2.3,2.7 	"/>
	<polygon id="XMLID_330_" class="st2" points="2.4,4.2 2.5,4.6 2.8,4.6 2.6,4.9 2.7,5.2 2.4,5.1 2.2,5.2 2.2,4.9 2,4.6 2.3,4.6 	"/>
	<polygon id="XMLID_329_" class="st2" points="5.4,2.4 5.5,2.7 5.8,2.7 5.6,3 5.7,3.3 5.4,3.2 5.2,3.3 5.2,3 5,2.7 5.3,2.7 	"/>
	<polygon id="XMLID_327_" class="st2" points="5.4,4.2 5.5,4.6 5.8,4.6 5.6,4.9 5.7,5.2 5.4,5.1 5.2,5.2 5.2,4.9 5,4.6 5.3,4.6 	"/>
	<polygon id="XMLID_325_" class="st2" points="3.9,5 4,5.4 4.3,5.4 4.1,5.7 4.2,6 3.9,5.9 3.7,6 3.7,5.7 3.5,5.4 3.8,5.4 	"/>
	<polygon id="XMLID_322_" class="st2" points="6.9,1.3 7,1.6 7.3,1.7 7.1,1.9 7.2,2.3 6.9,2.1 6.7,2.3 6.7,1.9 6.5,1.7 6.8,1.6 	"/>
	<polygon id="XMLID_321_" class="st2" points="6.9,3.2 7,3.5 7.3,3.5 7.1,3.8 7.2,4.2 6.9,4 6.7,4.2 6.7,3.8 6.5,3.5 6.8,3.5 	"/>
	<polygon id="XMLID_320_" class="st2" points="6.9,5 7,5.4 7.3,5.4 7.1,5.7 7.2,6 6.9,5.9 6.7,6 6.7,5.7 6.5,5.4 6.8,5.4 	"/>
</g>
<g id="XMLID_173_">
	
		<text id="XMLID_379_" transform="matrix(1 0 0 1 45.9267 38.6269)" style="fill:#666666; font-family:'OpenSans'; font-size:12px;">Ingles</text>
</g>
</svg>
