<?xml version="1.0" encoding="utf-8"?>
<!-- Generator: Adobe Illustrator 19.0.0, SVG Export Plug-In . SVG Version: 6.00 Build 0)  -->
<svg version="1.1" id="Capa_1" xmlns="http://www.w3.org/2000/svg" xmlns:xlink="http://www.w3.org/1999/xlink" x="0px" y="0px"
	 viewBox="0 0 106 44" style="enable-background:new 0 0 106 44;" xml:space="preserve">
<style type="text/css">
	.st0{fill:#FFFFFF;}
</style>
<g id="XMLID_118_">
	<path id="XMLID_507_" class="st0" d="M48.4,27.2c-0.1,0-0.1,0-0.2,0c-0.3-0.6-0.5-1.2-0.8-1.7c-1.9-3.7-3.7-7.5-5.6-11.2
		c-0.4-0.8-1-1.5-1.9-1.7c-1.2-0.2-2.3,0-3.5,0c0,6.3,0,12.5,0,18.8c1,0,1.9,0,3,0c0-4.9,0-9.8,0-14.7c0.2,0.2,0.4,0.4,0.5,0.7
		c2.3,4.6,4.6,9.1,6.9,13.7c0.1,0.2,0.3,0.4,0.5,0.4c1.3,0,2.7,0,4,0c0-6.4,0-12.6,0-18.9c-0.9,0-1.9,0-2.8,0c0,2.5,0,4.9,0,7.3
		C48.4,22.3,48.4,24.7,48.4,27.2z"/>
	<path id="XMLID_504_" class="st0" d="M73.5,31.4c0-0.3,0-0.5,0-0.8c0-2.8,0-5.7,0-8.5c0-0.4,0.1-0.7,0.5-0.7
		c0.9-0.2,1.7-0.4,2.6-0.6c0.6-0.1,1.1,0,1.7,0c0-0.8,0-1.4,0-2.1c0-0.4-0.2-0.6-0.6-0.6c-0.8,0-1.5,0-2.3,0.2
		c-0.8,0.2-1.5,0.5-2.3,0.8c0-0.3,0-0.7,0-1c-0.9,0-1.7,0-2.5,0c0,4.4,0,8.9,0,13.3C71.6,31.4,72.5,31.4,73.5,31.4z"/>
	<path id="XMLID_477_" d="M15.4,0c0.9,0.3,1.9,0.4,2.8,0.8C21.4,2,23.8,4,25.4,7c1.3,2.4,1.8,5.1,1.5,7.8c-0.2,2.4-1.1,4.8-3,7.2
		c1.5,1.9,2.6,4.1,2.9,6.5c0.3,2.3,0.2,4.5-0.6,6.7c-0.9,2.5-2.5,4.5-4.6,6.1c-1.8,1.3-3.8,2.2-6,2.5c0,0-0.1,0.1-0.1,0.1
		c-1.3,0-2.6,0-3.9,0c-0.3-0.1-0.5-0.2-0.8-0.2c-2.2-0.4-4.2-1.4-5.9-2.8c-2.2-1.8-3.6-4-4.4-6.6c-0.2-0.6-0.3-1.3-0.5-1.9
		c0-1.2,0-2.4,0-3.6c0-0.1,0.1-0.1,0.1-0.2C0.4,26.1,1.5,24,3.1,22c-1.2-1.5-2.2-3.2-2.7-5.1c-0.1-0.5-0.3-1.1-0.4-1.6
		c0-1.3,0-2.6,0-3.8c0.1-0.4,0.2-0.8,0.3-1.2c1.3-4.7,4.2-8,8.9-9.6c0.8-0.3,1.6-0.4,2.3-0.6C12.8,0,14.1,0,15.4,0z M25.2,12.9
		c-2.2-0.2-7.4,1.4-10.6,4.4c3.1,0.3,5.8,1.4,8.1,3.4C24.5,18.3,25.2,15.7,25.2,12.9z M1.9,12.8c0,0.1-0.1,0.2-0.1,0.3
		c-0.1,2.6,0.8,5,2.2,7.2c0.3,0.4,0.5,0.3,0.8,0c1.8-1.5,3.8-2.5,6.1-2.8c0.4-0.1,0.9-0.2,1.5-0.3C9.2,14.6,5.8,13.1,1.9,12.8z
		 M2.8,8.7c-0.2,0.8-0.5,1.5-0.7,2.1c1.9,0.5,3.7,0.8,5.4,1.5c1.7,0.7,3.4,1.6,5,2.5c0-0.6,0-1.2,0-1.9c0-0.1-0.2-0.3-0.3-0.4
		C10,10.9,7.6,9.8,5,9.1C4.3,8.9,3.6,8.8,2.8,8.7z M14.5,14.8c0.1,0,0.1,0,0.2,0c3-2,6.1-3.4,9.8-3.8c0.3,0,0.6-0.2,0.4-0.6
		c-0.1-0.4-0.3-0.7-0.3-1.1c-0.1-0.7-0.5-0.7-1.1-0.6c-0.6,0.2-1.2,0.3-1.8,0.4c-2.5,0.7-4.7,1.8-6.8,3.1c-0.2,0.1-0.3,0.4-0.3,0.6
		C14.4,13.6,14.5,14.2,14.5,14.8z M5.9,29.7c0.3-1.4,0.6-2.8,0.9-4.2c0-0.1,0-0.4-0.1-0.5c-0.7-0.5-1.5-1-2.3-1.6
		c-1.4,1.9-2.3,3.9-2.4,6.3C3.3,29.7,4.7,29.7,5.9,29.7z M4.4,37.8c0.8-0.5,1.5-1.1,2.3-1.6c0.1-0.1,0.2-0.3,0.2-0.4
		c-0.3-1.4-0.6-2.8-0.9-4.2c-1.3,0-2.6,0-4,0C2.1,34,2.9,36,4.4,37.8z M21.1,31.6c-0.3,1.4-0.5,2.7-0.8,4c-0.1,0.4,0,0.5,0.3,0.7
		c0.6,0.4,1.1,0.8,1.6,1.2c0.4,0.3,0.6,0.3,0.9-0.1c0.8-1.1,1.4-2.3,1.7-3.5c0.2-0.7,0.3-1.4,0.4-2.2C23.7,31.6,22.3,31.6,21.1,31.6
		z M25.1,29.6c0.2-1.7-1.4-5.3-2.4-6.2c-0.8,0.5-1.5,1.1-2.3,1.6c-0.1,0.1-0.2,0.3-0.1,0.4c0.3,1.4,0.6,2.8,0.9,4.2
		C22.4,29.6,23.7,29.6,25.1,29.6z M3.7,6.9c3.2,0.7,6.1,1.8,8.8,3.5c0-0.7,0-1.3,0-1.9c0-0.2-0.2-0.5-0.4-0.7
		c-1.9-1-3.8-1.8-5.9-2.4C5.5,5.2,5,5.3,4.6,5.9C4.4,6.2,4.1,6.5,3.7,6.9z M23.1,7c-0.8-1.6-1.3-1.9-2.9-1.3c0,0-0.1,0-0.1,0
		c-1.8,0.6-3.6,1.2-5.3,2.3c-0.1,0.1-0.3,0.3-0.3,0.4c0,0.7,0,1.3,0,2.1C17.2,8.7,20,7.6,23.1,7z M8.6,35.2c1.4-0.3,2.7-0.6,3.9-0.9
		c0-0.9,0-1.8,0-2.7c-1.5,0-3,0-4.6,0C8.1,32.9,8.4,34.1,8.6,35.2z M14.5,31.6c0,0.9,0,1.8,0,2.7c1.3,0.3,2.6,0.6,4,0.9
		c0.2-1.2,0.4-2.4,0.6-3.6C17.5,31.6,16,31.6,14.5,31.6z M7.9,29.6c1.7,0,3.2,0,4.6,0c0-1,0-1.9,0-2.7c-1.2-0.3-2.3-0.5-3.4-0.8
		C8.8,26,8.6,26,8.5,26.3C8.3,27.4,8.1,28.5,7.9,29.6z M19.1,29.6c-0.2-1.1-0.4-2.2-0.7-3.3c0-0.1-0.3-0.3-0.5-0.2
		c-1.2,0.3-2.3,0.6-3.5,0.8c0,0.9,0,1.8,0,2.7C16,29.6,17.5,29.6,19.1,29.6z M12.5,1.8c-2,0.2-3.8,0.8-5.4,1.9
		c1.8,0.8,3.6,1.5,5.4,2.3C12.5,4.6,12.5,3.2,12.5,1.8z M19.9,3.7c-1.7-1.1-3.4-1.7-5.4-1.9c0,1.4,0,2.7,0,4.1
		C16.3,5.1,18,4.4,19.9,3.7z M14.5,42c0.1,0,0.1,0.1,0.2,0.1c1-1.7,2.1-3.3,3.2-5.1c-1.2-0.4-2.3-0.8-3.4-0.7
		C14.5,38.3,14.5,40.1,14.5,42z M12.5,25c0-2,0-3.9,0-5.8c-0.1,0-0.1-0.1-0.2-0.1c-1,1.6-2.1,3.3-3.2,5.1
		C10.4,24.5,11.4,24.8,12.5,25z M14.5,19.2c0,2,0,3.9,0,5.9c1.1-0.3,2.2-0.5,3.3-0.8C16.9,22.4,15.9,20.7,14.5,19.2z M12.5,36.2
		c-1.1,0.3-2.2,0.5-3.3,0.8c0.9,1.9,1.8,3.6,3.3,5.1C12.5,40.1,12.5,38.2,12.5,36.2z M17.2,19.6c0.8,1.3,1.5,2.5,2.3,3.8
		c0.6-0.4,1.2-0.9,1.9-1.3C20.1,21,18.8,20.1,17.2,19.6z M9.8,19.6C8.2,20.1,6.9,21,5.6,22c0.7,0.5,1.3,0.9,1.9,1.4
		C8.3,22.1,9,20.9,9.8,19.6z M21.4,39.2c-0.7-0.5-1.3-0.9-1.9-1.3c-0.8,1.3-1.6,2.6-2.4,3.8C18.7,41.1,20.1,40.4,21.4,39.2z
		 M9.9,41.7c-0.8-1.3-1.6-2.5-2.4-3.8c-0.6,0.4-1.1,0.9-1.8,1.4C7,40.4,8.4,41.1,9.9,41.7z"/>
	<path id="XMLID_474_" d="M106,31.2c-0.8,0.1-1.6,0.3-2.4,0.4c-1,0.1-2,0.2-3,0.1c-2.3-0.1-4.4-0.8-5.7-2.9
		c-0.6-0.9-0.8-1.9-0.9-2.9c-0.2-1.3,0-2.6,0.4-3.8c0.8-2.2,2.4-3.6,4.7-3.9c1.3-0.2,2.5,0,3.9,0c0-2.2,0-4.4,0-6.7c1,0,2,0,3,0
		C106,18,106,24.6,106,31.2z M103.1,29.4c0-0.3,0-0.4,0-0.5c0-2.7-0.1-5.3-0.1-8c0-0.5-0.3-0.5-0.6-0.5c-0.6,0-1.3,0-1.9,0
		c-1.4,0-2.9,0.8-3.2,2.4c-0.2,0.9-0.3,1.9-0.2,2.9c0.1,1.5,1,2.9,2.6,3.3C100.8,29.3,101.9,29.3,103.1,29.4z"/>
	<path id="XMLID_470_" d="M48.4,27.2c0-2.4,0-4.9,0-7.3c0-2.4,0-4.9,0-7.3c0.9,0,1.9,0,2.8,0c0,6.3,0,12.6,0,18.9c-1.3,0-2.7,0-4,0
		c-0.2,0-0.4-0.3-0.5-0.4c-2.3-4.6-4.6-9.1-6.9-13.7c-0.1-0.2-0.3-0.5-0.5-0.7c0,4.9,0,9.8,0,14.7c-1,0-2,0-3,0c0-6.2,0-12.5,0-18.8
		c1.2,0,2.4-0.1,3.5,0c0.9,0.1,1.5,0.9,1.9,1.7c1.9,3.7,3.7,7.5,5.6,11.2c0.3,0.6,0.5,1.1,0.8,1.7C48.2,27.2,48.3,27.2,48.4,27.2z"
		/>
	<path id="XMLID_467_" d="M88.3,23.2c0-0.3,0-0.5,0-0.7c0.1-1.2-0.5-1.8-1.8-1.9c-1.8-0.2-3.6,0.1-5.4,0.4c-0.1,0-0.2,0-0.3,0
		c0-0.8,0-1.6,0-2.4c2.7-0.4,5.3-0.8,8,0c1.8,0.5,2.4,1.8,2.4,3.2c0.1,3,0,6,0,9c0,0.4-0.1,0.5-0.6,0.6c-2,0.3-4.1,0.5-6.1,0.3
		c-1.4-0.1-2.9-0.2-4-1.4c-1.5-1.7-1.6-5.9,1.8-6.8c1.8-0.5,3.7-0.6,5.6-0.3C88.1,23.2,88.2,23.2,88.3,23.2z M88.4,25.6
		c-1.5-0.3-2.9-0.2-4.3,0.1c-0.7,0.2-1.4,0.7-1.4,1.3c-0.1,1,0.1,1.7,1,2.1c1.5,0.6,3.1,0.2,4.7,0.4C88.4,28.1,88.4,26.8,88.4,25.6z
		"/>
	<path id="XMLID_464_" d="M67.9,24.8c0,2-0.7,3.7-2.1,5.1c-1.1,1.1-2.4,1.6-3.9,1.8c-1.5,0.2-2.9-0.1-4.3-0.7
		c-1.8-0.8-2.9-2.3-3.4-4.2c-0.5-2.3-0.4-4.5,1.2-6.5c0.9-1.1,2.1-1.8,3.5-2.1c2-0.4,4-0.4,5.9,0.7c1.7,0.9,2.6,2.3,2.9,4.1
		C67.8,23.6,67.9,24.2,67.9,24.8z M57.1,24.9c-0.1,0.9,0.1,1.8,0.6,2.7c0.6,1.1,1.6,1.7,2.9,1.8c1.5,0.1,2.7-0.4,3.5-1.8
		c0.8-1.6,0.8-3.2,0.3-4.9c-0.8-2.5-4-3-5.7-1.7C57.5,22,57.1,23.3,57.1,24.9z"/>
	<path id="XMLID_463_" d="M73.5,31.4c-1,0-1.9,0-2.9,0c0-4.4,0-8.8,0-13.3c0.8,0,1.6,0,2.5,0c0,0.3,0,0.7,0,1
		c0.8-0.3,1.5-0.6,2.3-0.8c0.7-0.2,1.5-0.2,2.3-0.2c0.4,0,0.6,0.2,0.6,0.6c0,0.7,0,1.3,0,2.1c-0.6,0-1.2-0.1-1.7,0
		c-0.9,0.1-1.7,0.4-2.6,0.6c-0.4,0.1-0.5,0.3-0.5,0.7c0,2.8,0,5.7,0,8.5C73.5,30.9,73.5,31.1,73.5,31.4z"/>
</g>
</svg>
