<?xml version="1.0" encoding="utf-8"?>
<!-- Generator: Adobe Illustrator 19.0.0, SVG Export Plug-In . SVG Version: 6.00 Build 0)  -->
<svg version="1.1" id="Capa_1" xmlns="http://www.w3.org/2000/svg" xmlns:xlink="http://www.w3.org/1999/xlink" x="0px" y="0px"
	 viewBox="0 0 20 11" style="enable-background:new 0 0 20 11;" xml:space="preserve">
<style type="text/css">
	.st0{fill:#E40A0A;}
	.st1{fill:#B3B3B3;}
	.st2{fill:#808080;}
	.st3{fill:#FFFFFF;}
</style>
<g id="XMLID_346_">
	<rect id="XMLID_348_" x="0" y="0" class="st0" width="6.2" height="11"/>
	<rect id="XMLID_347_" x="14" y="0" class="st0" width="6" height="11"/>
</g>
<g id="XMLID_343_">
	
		<text id="XMLID_355_" transform="matrix(1 0 0 1 -48.5518 14.4602)" style="fill:#666666; font-family:'OpenSans'; font-size:12px;">Español</text>
</g>
<g id="XMLID_319_">
	<rect id="XMLID_341_" x="20" y="38.9" class="st1" width="20" height="1.3"/>
	<rect id="XMLID_340_" x="20" y="35.8" class="st1" width="20" height="1.3"/>
	<rect id="XMLID_339_" x="20" y="32.4" class="st1" width="20" height="1.3"/>
	<rect id="XMLID_338_" x="20" y="28.9" class="st1" width="20" height="1.3"/>
	<rect id="XMLID_337_" x="20" y="28.9" class="st2" width="8.2" height="7.8"/>
	<polygon id="XMLID_336_" class="st3" points="20.9,30.2 21,30.6 21.3,30.6 21.1,30.9 21.2,31.3 20.9,31.1 20.7,31.3 20.7,30.9 
		20.5,30.6 20.8,30.6 	"/>
	<polygon id="XMLID_335_" class="st3" points="20.9,32.2 21,32.5 21.3,32.6 21.1,32.8 21.2,33.2 20.9,33 20.7,33.2 20.7,32.8 
		20.5,32.6 20.8,32.5 	"/>
	<polygon id="XMLID_334_" class="st3" points="20.9,34.1 21,34.4 21.3,34.5 21.1,34.8 21.2,35.1 20.9,35 20.7,35.1 20.7,34.8 
		20.5,34.5 20.8,34.4 	"/>
	<polygon id="XMLID_333_" class="st3" points="23.9,30.2 24,30.6 24.3,30.6 24.1,30.9 24.2,31.3 23.9,31.1 23.7,31.3 23.7,30.9 
		23.5,30.6 23.8,30.6 	"/>
	<polygon id="XMLID_332_" class="st3" points="23.9,32.2 24,32.5 24.3,32.6 24.1,32.8 24.2,33.2 23.9,33 23.7,33.2 23.7,32.8 
		23.5,32.6 23.8,32.5 	"/>
	<polygon id="XMLID_331_" class="st3" points="22.4,31.4 22.5,31.7 22.8,31.7 22.6,32 22.7,32.4 22.4,32.2 22.2,32.4 22.2,32 
		22,31.7 22.3,31.7 	"/>
	<polygon id="XMLID_330_" class="st3" points="22.4,33.3 22.5,33.6 22.8,33.7 22.6,33.9 22.7,34.3 22.4,34.1 22.2,34.3 22.2,33.9 
		22,33.7 22.3,33.6 	"/>
	<polygon id="XMLID_329_" class="st3" points="25.4,31.4 25.5,31.7 25.8,31.7 25.6,32 25.7,32.4 25.4,32.2 25.2,32.4 25.2,32 
		25,31.7 25.3,31.7 	"/>
	<polygon id="XMLID_327_" class="st3" points="25.4,33.3 25.5,33.6 25.8,33.7 25.6,33.9 25.7,34.3 25.4,34.1 25.2,34.3 25.2,33.9 
		25,33.7 25.3,33.6 	"/>
	<polygon id="XMLID_325_" class="st3" points="23.9,34.1 24,34.4 24.3,34.5 24.1,34.8 24.2,35.1 23.9,35 23.7,35.1 23.7,34.8 
		23.5,34.5 23.8,34.4 	"/>
	<polygon id="XMLID_322_" class="st3" points="26.9,30.2 27,30.6 27.3,30.6 27.1,30.9 27.2,31.3 26.9,31.1 26.7,31.3 26.7,30.9 
		26.5,30.6 26.8,30.6 	"/>
	<polygon id="XMLID_321_" class="st3" points="26.9,32.2 27,32.5 27.3,32.6 27.1,32.8 27.2,33.2 26.9,33 26.7,33.2 26.7,32.8 
		26.5,32.6 26.8,32.5 	"/>
	<polygon id="XMLID_320_" class="st3" points="26.9,34.1 27,34.4 27.3,34.5 27.1,34.8 27.2,35.1 26.9,35 26.7,35.1 26.7,34.8 
		26.5,34.5 26.8,34.4 	"/>
</g>
<g id="XMLID_173_">
	
		<text id="XMLID_379_" transform="matrix(1 0 0 1 45.9267 38.6269)" style="fill:#666666; font-family:'OpenSans'; font-size:12px;">Ingles</text>
</g>
</svg>
