<?xml version="1.0" encoding="utf-8"?>
<!-- Generator: Adobe Illustrator 19.0.0, SVG Export Plug-In . SVG Version: 6.00 Build 0)  -->
<svg version="1.1" id="Capa_1" xmlns="http://www.w3.org/2000/svg" xmlns:xlink="http://www.w3.org/1999/xlink" x="0px" y="0px"
	 viewBox="0 0 36 36" style="enable-background:new 0 0 36 36;" xml:space="preserve">
<style type="text/css">
	.st0{fill:#FFFFFF;}
	.st1{fill:#579F32;}
</style>
<g id="XMLID_17_">
	<path id="XMLID_18_" class="st0" d="M23.1,7.5l-2.7,0c-3,0-5,2-5,5.1v2.4h-2.7c-0.2,0-0.4,0.2-0.4,0.4v3.4c0,0.2,0.2,0.4,0.4,0.4
		h2.7V28c0,0.2,0.2,0.4,0.4,0.4h3.6c0.2,0,0.4-0.2,0.4-0.4v-8.7H23c0.2,0,0.4-0.2,0.4-0.4l0-3.4c0-0.1,0-0.2-0.1-0.3
		c-0.1-0.1-0.2-0.1-0.3-0.1h-3.2v-2c0-1,0.2-1.5,1.5-1.5l1.8,0c0.2,0,0.4-0.2,0.4-0.4V8C23.5,7.7,23.3,7.5,23.1,7.5z"/>
</g>
<g id="XMLID_2_">
	<circle id="XMLID_42_" class="st1" cx="18" cy="18" r="18"/>
	<g id="XMLID_6_">
		<g id="XMLID_7_">
			<path id="XMLID_15_" class="st0" d="M29.6,11.6c-0.8,0.3-1.6,0.6-2.4,0.7c0.9-0.5,1.6-1.4,1.9-2.4c-0.8,0.5-1.7,0.8-2.7,1
				c-0.8-0.8-1.9-1.3-3.1-1.3c-2.3,0-4.3,1.9-4.3,4.3c0,0.3,0,0.7,0.1,1c-3.5-0.2-6.7-1.9-8.8-4.4C10,11,9.7,11.7,9.7,12.5
				c0,1.5,0.8,2.8,1.9,3.5c-0.7,0-1.4-0.2-1.9-0.5v0.1c0,2.1,1.5,3.8,3.4,4.2c-0.4,0.1-0.7,0.2-1.1,0.2c-0.3,0-0.5,0-0.8-0.1
				c0.5,1.7,2.1,2.9,4,3c-1.5,1.1-3.3,1.8-5.3,1.8c-0.3,0-0.7,0-1-0.1c1.9,1.2,4.1,1.9,6.5,1.9c7.8,0,12.1-6.5,12.1-12.1l0-0.6
				C28.3,13.2,29,12.4,29.6,11.6z"/>
		</g>
	</g>
</g>
</svg>
