<?xml version="1.0" encoding="utf-8"?>
<!-- Generator: Adobe Illustrator 19.0.0, SVG Export Plug-In . SVG Version: 6.00 Build 0)  -->
<svg version="1.1" id="Capa_1" xmlns="http://www.w3.org/2000/svg" xmlns:xlink="http://www.w3.org/1999/xlink" x="0px" y="0px"
	 viewBox="0 0 32 48" style="enable-background:new 0 0 32 48;" xml:space="preserve">
<style type="text/css">
	.st0{fill-rule:evenodd;clip-rule:evenodd;fill:#183505;}
</style>
<g id="XMLID_126_">
	<g id="XMLID_289_">
		<path id="XMLID_309_" class="st0" d="M11.2,39.2c-0.3,0-0.6,0.2-0.7,0.4L9.2,43l-0.1,0.4L9,43l-1-3.2c0,0,0,0,0-0.1l0,0l0,0
			c-0.1-0.3-0.4-0.5-0.7-0.5l0,0H5.7l0,0c-0.4,0.1-0.6,0.3-0.6,0.7c0,0.1,0.1,0.2,0.1,0.3L5.4,41l-0.8,2l-0.2,0.4L4.4,43l-1-3.2
			c0,0,0,0,0-0.1H3.4c-0.1-0.3-0.3-0.5-0.6-0.5l0,0H1.1l0,0c-0.4,0.1-0.7,0.3-0.7,0.7c0,0.1,0.1,0.2,0.1,0.3L3,47.5
			C3.1,47.8,3.3,48,3.6,48c0.3,0,0.6-0.2,0.7-0.5l1.7-4.3l0.2-0.4l0.1,0.4l1.4,4.2C7.7,47.8,8,48,8.3,48c0.3,0,0.6-0.2,0.7-0.5
			l2.8-7.3c0.1-0.1,0.1-0.2,0.1-0.3C11.8,39.6,11.5,39.2,11.2,39.2L11.2,39.2z"/>
		<path id="XMLID_308_" class="st0" d="M23.2,39.2c-0.3,0-0.6,0.2-0.7,0.4L21.3,43l-0.1,0.4L21.1,43l-1-3.2c0,0,0,0,0-0.1l0,0
			c-0.1-0.3-0.4-0.5-0.7-0.5l0,0h-1.6l0,0c-0.4,0.1-0.6,0.3-0.6,0.7c0,0.1,0,0.2,0,0.3l0.2,0.7l-0.8,2l-0.2,0.4L16.4,43l-1-3.2
			c0,0,0,0-0.1-0.1l0,0c-0.1-0.3-0.3-0.5-0.6-0.5l0,0h-1.6l0,0c-0.4,0.1-0.7,0.3-0.7,0.7c0,0.1,0.1,0.2,0.1,0.3l2.4,7.2
			c0.1,0.3,0.4,0.5,0.7,0.5c0.3,0,0.6-0.2,0.7-0.5l1.7-4.3l0.2-0.4l0.1,0.4l1.4,4.2c0.1,0.3,0.4,0.5,0.7,0.5c0.3,0,0.6-0.2,0.7-0.5
			l2.8-7.3c0.1-0.1,0.1-0.2,0.1-0.3C23.8,39.6,23.5,39.2,23.2,39.2L23.2,39.2z"/>
		<path id="XMLID_307_" class="st0" d="M31,39.2h-5.6c-0.4,0-0.6,0.3-0.6,0.6l0,0l0,0c0,0,0,0.6,0,1.4c0,2,0,6.1,0,6.1l0,0l0,0
			c0.1,0.4,0.3,0.6,0.7,0.6l0,0c1,0,1.6,0,1.6,0l0,0c0.4,0,0.6-0.3,0.6-0.6c0,0.1,0-3.5,0-3.5h2.3c0.3,0,0.6-0.3,0.6-0.6
			c0-0.4-0.3-0.7-0.6-0.7c0,0-2.3,0-2.3,0v-2H31c0.4,0,0.7-0.3,0.7-0.7C31.7,39.6,31.3,39.2,31,39.2L31,39.2z"/>
		<path id="XMLID_306_" class="st0" d="M22.3,15.3c1,1.1,1.1,4.6,3.7,3.2c1.5-0.8,1.5-4.3-0.6-5.5c-1.7-1-2.6,0.4-3.2,2
			C22.2,15.1,22.2,15.2,22.3,15.3L22.3,15.3z"/>
		<path id="XMLID_305_" class="st0" d="M18.3,14.8c-1.1,0.9-1.8,3.4-3.8,2.5c-1.6-0.8-1.8-4,1-5.4c1.9-0.9,2.9,0.9,2.9,2.8
			C18.4,14.6,18.3,14.7,18.3,14.8L18.3,14.8z"/>
		<path id="XMLID_304_" class="st0" d="M20.9,21c1.1-0.1,0.8-1.1,0-1.3c-0.7-0.3-1.8-0.4-2.6-0.4c-1.4,0-1.3,1.1-0.6,1.3
			c0.6,0.2,0.9,0.2,1.4,0.8C19.5,22.2,19.3,21.2,20.9,21L20.9,21z"/>
		<path id="XMLID_303_" class="st0" d="M25.9,3.3c1.3-2.2,3.7-1.8,4.8-0.7c1.3,1.2,1.5,2.6,1,3.6c-0.7,1.3-2.4,2.9-3.5,1.4
			c-0.5-0.7-1.5-1.5-2.1-1.7C25.3,5.4,25.1,4.7,25.9,3.3L25.9,3.3z"/>
		<path id="XMLID_300_" class="st0" d="M31.2,13.1c-0.1-0.4-0.3-0.4-0.3-0.1c0.1,4.1-2.3,8.5-7.5,8.5c-1.3,0-0.9,2.1-3.3,1
			c-1.7-1.2-2.7,1.2-4-1.3c-0.3-0.7-0.7-1-1.2-1.2c-5.1-1.3-6.7-8.3-2.2-14.1c0.9,0.6,1.2,0.7,2.2-0.3c0.5-0.5,1.3-1,1.8-1.1
			c1.1-0.4,1.7-0.9,0.7-3c-0.4-1-1-1.5-1.7-1.7h-1.7c-0.5,0.2-1,0.4-1.4,0.7c-1.3,1.1-2.2,2.7-0.6,4.7c-4.6,3.1-5.4,6.9-5.3,10.3
			c0.1,3.5-0.8,3.2,0.4,6.8c0.1,0.3-0.2,0.3-0.3,0.2C2,19.6-0.5,10.3,6.9,5.1C7.1,5,7,4.8,6.4,5.1c-6.4,3.4-7,10-6,14.5
			C0.9,21.8,0.2,22.2,1,25c1.9,5.9,3.6,6.4,5.9,6.6c4.2,0,1.3-2.3,1.5-5.2c0-0.2,0.2-0.3,0.3,0.1c2.3,5.2,4,9.9,10,9.5
			c3.5-0.5,1.6-2.2,1.3-3.2c-2.6-8.6,3.7-10.6,1.9-2.2c-1.2,4.8,2.5,4.3,5.2,2.6C29.8,31.4,33.2,19.6,31.2,13.1L31.2,13.1z M21,23.4
			c-0.6,1.5-3.6,1-3.7-0.5c0-0.1,0.1-0.1,0.1,0c1.4,0.3,2.6,0.5,3.5,0.5C21,23.3,21,23.3,21,23.4L21,23.4z"/>
		<path id="XMLID_297_" class="st0" d="M7.9,34.3c0,0.8-0.7,1.5-1.5,1.5c-0.9,0-1.5-0.7-1.5-1.5c0-0.8,0.7-1.5,1.5-1.5
			C7.2,32.7,7.9,33.4,7.9,34.3L7.9,34.3z M6.4,32.5c-1,0-1.8,0.8-1.8,1.8c0,1,0.8,1.8,1.8,1.8c1,0,1.8-0.8,1.8-1.8
			C8.2,33.2,7.4,32.5,6.4,32.5L6.4,32.5z"/>
		<path id="XMLID_296_" class="st0" d="M6.9,34.5c0,0.3-0.3,0.4-0.5,0.4c-0.4,0-0.6-0.3-0.6-0.7s0.2-0.7,0.6-0.7
			c0.3,0,0.5,0.2,0.5,0.4h0.3c-0.1-0.4-0.4-0.6-0.8-0.6c-0.5,0-0.9,0.4-0.9,0.9c0,0.5,0.4,0.9,0.9,0.9c0.4,0,0.6-0.3,0.7-0.7H6.9
			L6.9,34.5z"/>
		<path id="XMLID_293_" class="st0" d="M31.3,36.6c0,0.8-0.7,1.5-1.5,1.5c-0.9,0-1.5-0.7-1.5-1.5c0-0.8,0.7-1.5,1.5-1.5
			C30.7,35.1,31.3,35.8,31.3,36.6L31.3,36.6z M29.9,34.8c-1,0-1.8,0.8-1.8,1.8c0,1,0.8,1.8,1.8,1.8c1,0,1.8-0.8,1.8-1.8
			C31.7,35.6,30.8,34.8,29.9,34.8L29.9,34.8z"/>
		<path id="XMLID_290_" class="st0" d="M29.6,36.7h0.3l0.5,0.8h0.3l-0.5-0.8c0.3-0.1,0.5-0.2,0.5-0.5c0-0.4-0.2-0.5-0.6-0.5h-0.6
			v1.7h0.3V36.7L29.6,36.7z M29.6,36.5V36h0.3c0.2,0,0.4,0,0.4,0.2c0,0.3-0.2,0.3-0.4,0.3H29.6L29.6,36.5z"/>
	</g>
</g>
</svg>
