<?xml version="1.0" encoding="utf-8"?>
<!-- Generator: Adobe Illustrator 19.0.0, SVG Export Plug-In . SVG Version: 6.00 Build 0)  -->
<svg version="1.1" id="Capa_1" xmlns="http://www.w3.org/2000/svg" xmlns:xlink="http://www.w3.org/1999/xlink" x="0px" y="0px"
	 viewBox="0 0 36 36" style="enable-background:new 0 0 36 36;" xml:space="preserve">
<style type="text/css">
	.st0{fill:#579E32;}
	.st1{fill:#EC8B00;}
	.st2{fill:#FFFFFF;}
</style>
<circle id="XMLID_443_" class="st0" cx="19.8" cy="69.3" r="17.6"/>
<g id="XMLID_424_">
	<circle id="XMLID_446_" class="st1" cx="18" cy="18" r="18"/>
	<g id="XMLID_426_">
		<g id="XMLID_427_">
			<g id="XMLID_428_">
				<path id="XMLID_442_" class="st2" d="M19.7,21c-0.2,0-0.3,0.1-0.5,0.2v3.5c0.2,0.2,0.3,0.3,0.5,0.3c0.3,0,0.4-0.3,0.4-0.8v-2.4
					C20.2,21.2,20,21,19.7,21z"/>
				<path id="XMLID_441_" class="st2" d="M23.5,21c-0.3,0-0.5,0.3-0.5,0.8v0.5h1v-0.5C24,21.2,23.8,21,23.5,21z"/>
				<g id="XMLID_429_">
					<path id="XMLID_435_" class="st2" d="M25.6,17.1c-0.6-0.7-1.4-0.7-1.7-0.7c-2.4-0.2-5.9-0.2-5.9-0.2h0c0,0-3.6,0-5.9,0.2
						c-0.3,0-1.1,0-1.7,0.7c-0.5,0.5-0.7,1.7-0.7,1.7s-0.2,1.4-0.2,2.7v1.3c0,1.4,0.2,2.7,0.2,2.7s0.2,1.2,0.7,1.7
						c0.6,0.7,1.5,0.7,1.9,0.7c1.4,0.1,5.8,0.2,5.8,0.2s3.6,0,5.9-0.2c0.3,0,1.1,0,1.7-0.7c0.5-0.5,0.7-1.7,0.7-1.7s0.2-1.4,0.2-2.7
						v-1.3c0-1.4-0.2-2.7-0.2-2.7S26.1,17.6,25.6,17.1z M13.3,25.8h-1.1v-6.5h-1.2v-1.1h3.6v1.1h-1.2V25.8L13.3,25.8z M17.3,25.8h-1
						v-0.6c-0.4,0.5-0.8,0.7-1.2,0.7c-0.3,0-0.6-0.1-0.7-0.4c-0.1-0.2-0.1-0.4-0.1-0.8v-4.5h1v4.2c0,0.2,0,0.4,0,0.4
						c0,0.2,0.1,0.2,0.2,0.2c0.2,0,0.4-0.2,0.6-0.5v-4.3h1V25.8L17.3,25.8z M21.2,24.1c0,0.5,0,0.9-0.1,1.1
						c-0.1,0.4-0.4,0.6-0.8,0.6c-0.4,0-0.7-0.2-1.1-0.6v0.5h-1v-7.6h1v2.5c0.3-0.4,0.7-0.6,1.1-0.6c0.4,0,0.7,0.2,0.8,0.6
						c0.1,0.2,0.1,0.6,0.1,1.1V24.1z M25,23.1H23v1c0,0.5,0.2,0.8,0.5,0.8c0.3,0,0.4-0.1,0.5-0.4c0-0.1,0-0.3,0-0.7h1V24
						c0,0.3,0,0.6,0,0.7c0,0.2-0.1,0.4-0.2,0.6c-0.3,0.4-0.7,0.6-1.2,0.6c-0.5,0-0.9-0.2-1.2-0.6C22.1,25,22,24.5,22,23.9v-2
						c0-0.6,0.1-1,0.3-1.3c0.3-0.4,0.7-0.6,1.2-0.6c0.5,0,0.9,0.2,1.2,0.6c0.2,0.3,0.3,0.7,0.3,1.3V23.1L25,23.1z"/>
					<path id="XMLID_434_" class="st2" d="M15.3,15.6v-3.1l1.4-4.6h-1.2l-0.8,3l-0.8-3h-1.2c0.2,0.7,0.5,1.4,0.7,2.1
						c0.4,1.1,0.6,1.9,0.7,2.4v3.1H15.3L15.3,15.6z"/>
					<path id="XMLID_431_" class="st2" d="M18,15.7c0.5,0,0.9-0.2,1.2-0.6c0.2-0.3,0.3-0.7,0.3-1.3v-2c0-0.6-0.1-1.1-0.3-1.3
						C18.9,10,18.5,9.8,18,9.8c-0.5,0-0.9,0.2-1.2,0.6c-0.2,0.3-0.3,0.7-0.3,1.3v2c0,0.6,0.1,1.1,0.3,1.3
						C17.1,15.5,17.5,15.7,18,15.7z M17.5,11.6c0-0.5,0.2-0.8,0.5-0.8c0.3,0,0.5,0.3,0.5,0.8V14c0,0.5-0.2,0.8-0.5,0.8
						c-0.3,0-0.5-0.3-0.5-0.8V11.6z"/>
					<path id="XMLID_430_" class="st2" d="M23.3,15.6V9.9h-1v4.4c-0.2,0.3-0.4,0.5-0.7,0.5c-0.1,0-0.2-0.1-0.2-0.2c0,0,0-0.2,0-0.4
						V9.9h-1v4.5c0,0.4,0,0.7,0.1,0.9c0.1,0.3,0.3,0.4,0.7,0.4c0.4,0,0.8-0.2,1.2-0.7v0.6H23.3z"/>
				</g>
			</g>
		</g>
	</g>
</g>
<g id="XMLID_417_">
	<circle id="XMLID_449_" class="st1" cx="124" cy="17.9" r="18"/>
	<g id="XMLID_421_">
		<g id="XMLID_422_">
			<path id="XMLID_423_" class="st2" d="M135.6,11.5c-0.8,0.3-1.6,0.6-2.4,0.7c0.9-0.5,1.6-1.4,1.9-2.4c-0.8,0.5-1.7,0.8-2.7,1
				c-0.8-0.8-1.9-1.3-3.1-1.3c-2.3,0-4.3,1.9-4.3,4.3c0,0.3,0,0.7,0.1,1c-3.5-0.2-6.7-1.9-8.8-4.4c-0.4,0.6-0.6,1.4-0.6,2.1
				c0,1.5,0.8,2.8,1.9,3.5c-0.7,0-1.4-0.2-1.9-0.5v0.1c0,2.1,1.5,3.8,3.4,4.2c-0.4,0.1-0.7,0.2-1.1,0.2c-0.3,0-0.5,0-0.8-0.1
				c0.5,1.7,2.1,2.9,4,3c-1.5,1.1-3.3,1.8-5.3,1.8c-0.3,0-0.7,0-1-0.1c1.9,1.2,4.1,1.9,6.5,1.9c7.8,0,12.1-6.5,12.1-12.1l0-0.6
				C134.3,13.1,135,12.3,135.6,11.5z"/>
		</g>
	</g>
</g>
<g id="XMLID_418_">
	<path id="Flickr" class="st2" d="M30,69.3c0,2.5-2,4.5-4.5,4.5c-2.5,0-4.5-2-4.5-4.5c0-2.5,2-4.5,4.5-4.5
		C27.9,64.8,30,66.8,30,69.3z M14.2,64.8c-2.5,0-4.5,2-4.5,4.5c0,2.5,2,4.5,4.5,4.5c2.5,0,4.5-2,4.5-4.5
		C18.8,66.8,16.8,64.8,14.2,64.8z"/>
</g>
<rect id="XMLID_445_" x="-65.1" y="-10.4" class="st1" width="48" height="48"/>
</svg>
